<svg width="24" height="24" viewBox="0 0 24 24" fill="none" xmlns="http://www.w3.org/2000/svg">
<path d="M9.59999 10.8C11.5882 10.8 13.2 9.1882 13.2 7.19998C13.2 5.21175 11.5882 3.59998 9.59999 3.59998C7.61177 3.59998 5.99999 5.21175 5.99999 7.19998C5.99999 9.1882 7.61177 10.8 9.59999 10.8Z" fill="#687782"/>
<path d="M9.59999 13.2C13.5764 13.2 16.8 16.4235 16.8 20.4H2.39999C2.39999 16.4235 5.62354 13.2 9.59999 13.2Z" fill="#687782"/>
<path d="M19.2 8.39998C19.2 7.73723 18.6627 7.19998 18 7.19998C17.3373 7.19998 16.8 7.73723 16.8 8.39998V9.59998H15.6C14.9373 9.59998 14.4 10.1372 14.4 10.8C14.4 11.4627 14.9373 12 15.6 12H16.8V13.2C16.8 13.8627 17.3373 14.4 18 14.4C18.6627 14.4 19.2 13.8627 19.2 13.2V12H20.4C21.0627 12 21.6 11.4627 21.6 10.8C21.6 10.1372 21.0627 9.59998 20.4 9.59998H19.2V8.39998Z" fill="#687782"/>
</svg>
