<svg width="24" height="24" viewBox="0 0 24 24" fill="none" xmlns="http://www.w3.org/2000/svg">
<path fill-rule="evenodd" clip-rule="evenodd" d="M12 3.59998C12.6627 3.59998 13.2 4.13723 13.2 4.79998V10.8H19.2C19.8627 10.8 20.4 11.3372 20.4 12C20.4 12.6627 19.8627 13.2 19.2 13.2H13.2V19.2C13.2 19.8627 12.6627 20.4 12 20.4C11.3372 20.4 10.8 19.8627 10.8 19.2V13.2H4.79998C4.13723 13.2 3.59998 12.6627 3.59998 12C3.59998 11.3372 4.13723 10.8 4.79998 10.8L10.8 10.8V4.79998C10.8 4.13723 11.3372 3.59998 12 3.59998Z" fill="#687782"/>
</svg>
