<svg width="24" height="24" viewBox="0 0 24 24" fill="none" xmlns="http://www.w3.org/2000/svg">
<path d="M5.99999 4.79998C5.99999 4.13723 5.46274 3.59998 4.79999 3.59998C4.13725 3.59998 3.59999 4.13723 3.59999 4.79998V13.5211C2.88263 13.936 2.39999 14.7116 2.39999 15.6C2.39999 16.4883 2.88263 17.2639 3.59999 17.6789V19.2C3.59999 19.8627 4.13725 20.4 4.79999 20.4C5.46274 20.4 5.99999 19.8627 5.99999 19.2V17.6789C6.71736 17.2639 7.19999 16.4883 7.19999 15.6C7.19999 14.7116 6.71736 13.936 5.99999 13.5211V4.79998Z" fill="#687782"/>
<path d="M13.2 4.79998C13.2 4.13723 12.6627 3.59998 12 3.59998C11.3373 3.59998 10.8 4.13723 10.8 4.79998V6.32105C10.0826 6.73602 9.59999 7.51164 9.59999 8.39998C9.59999 9.28831 10.0826 10.0639 10.8 10.4789V19.2C10.8 19.8627 11.3373 20.4 12 20.4C12.6627 20.4 13.2 19.8627 13.2 19.2V10.4789C13.9174 10.0639 14.4 9.28831 14.4 8.39998C14.4 7.51164 13.9174 6.73602 13.2 6.32105V4.79998Z" fill="#687782"/>
<path d="M19.2 3.59998C19.8627 3.59998 20.4 4.13723 20.4 4.79998V13.5211C21.1174 13.936 21.6 14.7116 21.6 15.6C21.6 16.4883 21.1174 17.2639 20.4 17.6789V19.2C20.4 19.8627 19.8627 20.4 19.2 20.4C18.5373 20.4 18 19.8627 18 19.2V17.6789C17.2826 17.2639 16.8 16.4883 16.8 15.6C16.8 14.7116 17.2826 13.936 18 13.5211V4.79998C18 4.13723 18.5373 3.59998 19.2 3.59998Z" fill="#687782"/>
</svg>
