<svg width="24" height="24" viewBox="0 0 24 24" fill="none" xmlns="http://www.w3.org/2000/svg">
<path fill-rule="evenodd" clip-rule="evenodd" d="M3.59998 5.99999C3.59998 5.33725 4.13723 4.79999 4.79998 4.79999H19.2C19.8627 4.79999 20.4 5.33725 20.4 5.99999C20.4 6.66273 19.8627 7.19999 19.2 7.19999H4.79998C4.13723 7.19999 3.59998 6.66273 3.59998 5.99999Z" fill="#687782"/>
<path fill-rule="evenodd" clip-rule="evenodd" d="M3.59998 12C3.59998 11.3372 4.13723 10.8 4.79998 10.8H19.2C19.8627 10.8 20.4 11.3372 20.4 12C20.4 12.6627 19.8627 13.2 19.2 13.2H4.79998C4.13723 13.2 3.59998 12.6627 3.59998 12Z" fill="#687782"/>
<path fill-rule="evenodd" clip-rule="evenodd" d="M10.8 18C10.8 17.3372 11.3372 16.8 12 16.8H19.2C19.8627 16.8 20.4 17.3372 20.4 18C20.4 18.6627 19.8627 19.2 19.2 19.2H12C11.3372 19.2 10.8 18.6627 10.8 18Z" fill="#687782"/>
</svg>
