<svg width="24" height="24" viewBox="0 0 24 24" fill="none" xmlns="http://www.w3.org/2000/svg">
<path fill-rule="evenodd" clip-rule="evenodd" d="M3.60001 6.00002C3.60001 4.67454 4.67452 3.60002 6.00001 3.60002H7.20001C7.86275 3.60002 8.40001 4.13728 8.40001 4.80002C8.40001 5.46277 7.86275 6.00002 7.20001 6.00002L6.00001 6.00002V18H18V6.00002H16.8C16.1373 6.00002 15.6 5.46277 15.6 4.80002C15.6 4.13728 16.1373 3.60002 16.8 3.60002H18C19.3255 3.60002 20.4 4.67454 20.4 6.00002V18C20.4 19.3255 19.3255 20.4 18 20.4H6.00001C4.67452 20.4 3.60001 19.3255 3.60001 18V6.00002Z" fill="#687782"/>
<path d="M4.80001 14.4H8.40001L9.60001 16.8H14.4L15.6 14.4H19.2V19.2H4.80001V14.4Z" fill="#687782"/>
<path d="M8.75148 8.7515C9.22011 8.28287 9.97991 8.28287 10.4485 8.7515L10.8 9.10297V3.60002C10.8 2.93728 11.3373 2.40002 12 2.40002C12.6627 2.40002 13.2 2.93728 13.2 3.60002V9.10297L13.5515 8.7515C14.0201 8.28287 14.7799 8.28287 15.2485 8.7515C15.7172 9.22013 15.7172 9.97992 15.2485 10.4486L12.8485 12.8486C12.6235 13.0736 12.3183 13.2 12 13.2C11.6817 13.2 11.3765 13.0736 11.1515 12.8486L8.75148 10.4486C8.28285 9.97992 8.28285 9.22013 8.75148 8.7515Z" fill="#687782"/>
</svg>
