<svg width="24" height="24" viewBox="0 0 24 24" fill="none" xmlns="http://www.w3.org/2000/svg">
<path fill-rule="evenodd" clip-rule="evenodd" d="M12 21.6C17.3019 21.6 21.6 17.302 21.6 12C21.6 6.69809 17.3019 2.40002 12 2.40002C6.69807 2.40002 2.4 6.69809 2.4 12C2.4 17.302 6.69807 21.6 12 21.6ZM16.4485 11.1515L12.8485 7.5515C12.3799 7.08287 11.6201 7.08287 11.1515 7.5515L7.55147 11.1515C7.08284 11.6201 7.08284 12.3799 7.55147 12.8486C8.0201 13.3172 8.7799 13.3172 9.24853 12.8486L10.8 11.2971L10.8 15.6C10.8 16.2628 11.3373 16.8 12 16.8C12.6627 16.8 13.2 16.2628 13.2 15.6V11.2971L14.7515 12.8486C15.2201 13.3172 15.9799 13.3172 16.4485 12.8486C16.9172 12.3799 16.9172 11.6201 16.4485 11.1515Z" fill="#687782"/>
</svg>
