<svg width="24" height="24" viewBox="0 0 24 24" fill="none" xmlns="http://www.w3.org/2000/svg">
<path fill-rule="evenodd" clip-rule="evenodd" d="M17.0912 6.90886C14.2794 4.09708 9.72063 4.09708 6.90886 6.90886C4.09708 9.72063 4.09708 14.2794 6.90886 17.0912C9.35277 19.5351 13.1191 19.8558 15.9084 18.049C16.4646 17.6887 17.2076 17.8475 17.5679 18.4038C17.9282 18.96 17.7694 19.703 17.2132 20.0633C13.4934 22.4728 8.47274 22.0492 5.2118 18.7882C1.46277 15.0392 1.46277 8.96083 5.2118 5.2118C8.96083 1.46277 15.0392 1.46277 18.7882 5.2118C20.6625 7.08606 21.6 9.54507 21.6 12C21.6 13.9883 19.9882 15.6 18 15.6C17.1896 15.6 16.4418 15.3323 15.8401 14.8804C14.9644 16.046 13.5703 16.8 12 16.8C9.34906 16.8 7.20002 14.651 7.20002 12C7.20002 9.34906 9.34906 7.20002 12 7.20002C14.651 7.20002 16.8 9.34906 16.8 12C16.8 12.6628 17.3373 13.2 18 13.2C18.6628 13.2 19.2 12.6628 19.2 12C19.2 10.1556 18.4973 8.31495 17.0912 6.90886ZM14.4 12C14.4 10.6745 13.3255 9.60002 12 9.60002C10.6745 9.60002 9.60002 10.6745 9.60002 12C9.60002 13.3255 10.6745 14.4 12 14.4C13.3255 14.4 14.4 13.3255 14.4 12Z" fill="#687782"/>
</svg>
