<svg width="24" height="24" viewBox="0 0 24 24" fill="none" xmlns="http://www.w3.org/2000/svg">
<path fill-rule="evenodd" clip-rule="evenodd" d="M12 21.6C17.3019 21.6 21.6 17.302 21.6 12C21.6 6.69809 17.3019 2.40002 12 2.40002C6.69807 2.40002 2.4 6.69809 2.4 12C2.4 17.302 6.69807 21.6 12 21.6ZM12.8485 9.24855C13.3172 8.77992 13.3172 8.02012 12.8485 7.5515C12.3799 7.08287 11.6201 7.08287 11.1515 7.5515L7.55147 11.1515C7.08284 11.6201 7.08284 12.3799 7.55147 12.8486L11.1515 16.4486C11.6201 16.9172 12.3799 16.9172 12.8485 16.4486C13.3172 15.9799 13.3172 15.2201 12.8485 14.7515L11.2971 13.2H15.6C16.2627 13.2 16.8 12.6628 16.8 12C16.8 11.3373 16.2627 10.8 15.6 10.8H11.2971L12.8485 9.24855Z" fill="#687782"/>
</svg>
