<svg width="24" height="24" viewBox="0 0 24 24" fill="none" xmlns="http://www.w3.org/2000/svg">
<path fill-rule="evenodd" clip-rule="evenodd" d="M12 21.6C17.3019 21.6 21.6 17.302 21.6 12C21.6 6.69809 17.3019 2.40002 12 2.40002C6.69807 2.40002 2.4 6.69809 2.4 12C2.4 17.302 6.69807 21.6 12 21.6ZM16.4485 11.1515L12.8485 7.5515C12.3799 7.08287 11.6201 7.08287 11.1515 7.5515C10.6828 8.02012 10.6828 8.77992 11.1515 9.24855L12.7029 10.8L8.4 10.8C7.73726 10.8 7.2 11.3373 7.2 12C7.2 12.6628 7.73726 13.2 8.4 13.2H12.7029L11.1515 14.7515C10.6828 15.2201 10.6828 15.9799 11.1515 16.4486C11.6201 16.9172 12.3799 16.9172 12.8485 16.4486L16.4485 12.8486C16.9172 12.3799 16.9172 11.6201 16.4485 11.1515Z" fill="#687782"/>
</svg>
