<svg width="24" height="24" viewBox="0 0 24 24" fill="none" xmlns="http://www.w3.org/2000/svg">
<path fill-rule="evenodd" clip-rule="evenodd" d="M9.59998 4.80002C7.61175 4.80002 5.99998 6.4118 5.99998 8.40002V13.2C5.99998 16.5137 8.68627 19.2 12 19.2C15.3137 19.2 18 16.5137 18 13.2V8.40002C18 7.73728 18.5372 7.20002 19.2 7.20002C19.8627 7.20002 20.4 7.73728 20.4 8.40002V13.2C20.4 17.8392 16.6392 21.6 12 21.6C7.36078 21.6 3.59998 17.8392 3.59998 13.2V8.40002C3.59998 5.08632 6.28627 2.40002 9.59998 2.40002C12.9137 2.40002 15.6 5.08632 15.6 8.40002V13.2C15.6 15.1882 13.9882 16.8 12 16.8C10.0118 16.8 8.39998 15.1882 8.39998 13.2V8.40002C8.39998 7.73728 8.93723 7.20002 9.59998 7.20002C10.2627 7.20002 10.8 7.73728 10.8 8.40002V13.2C10.8 13.8628 11.3372 14.4 12 14.4C12.6627 14.4 13.2 13.8628 13.2 13.2V8.40002C13.2 6.4118 11.5882 4.80002 9.59998 4.80002Z" fill="#687782"/>
</svg>
