<svg width="24" height="24" viewBox="0 0 24 24" fill="none" xmlns="http://www.w3.org/2000/svg">
<path fill-rule="evenodd" clip-rule="evenodd" d="M8.04852 5.85446C8.72365 5.17933 9.63933 4.80005 10.5941 4.80005H18C19.9882 4.80005 21.6 6.41182 21.6 8.40005V15.6C21.6 17.5883 19.9882 19.2 18 19.2H10.5941C9.63933 19.2 8.72365 18.8208 8.04852 18.1456L2.75147 12.8486C2.52642 12.6235 2.39999 12.3183 2.39999 12C2.39999 11.6818 2.52642 11.3766 2.75147 11.1515L8.04852 5.85446ZM12.8485 8.75152C12.3799 8.28289 11.6201 8.28289 11.1515 8.75152C10.6828 9.22015 10.6828 9.97995 11.1515 10.4486L12.7029 12L11.1515 13.5515C10.6828 14.0202 10.6828 14.7799 11.1515 15.2486C11.6201 15.7172 12.3799 15.7172 12.8485 15.2486L14.4 13.6971L15.9515 15.2486C16.4201 15.7172 17.1799 15.7172 17.6485 15.2486C18.1172 14.7799 18.1172 14.0202 17.6485 13.5515L16.097 12L17.6485 10.4486C18.1172 9.97995 18.1172 9.22015 17.6485 8.75152C17.1799 8.28289 16.4201 8.28289 15.9515 8.75152L14.4 10.303L12.8485 8.75152Z" fill="#687782"/>
</svg>
