<svg width="24" height="24" viewBox="0 0 24 24" fill="none" xmlns="http://www.w3.org/2000/svg">
<path fill-rule="evenodd" clip-rule="evenodd" d="M12.5956 2.55813C12.2267 2.34732 11.7738 2.34732 11.4049 2.55813L3.00486 7.35813C2.42944 7.68695 2.22953 8.41997 2.55834 8.99539C2.7796 9.3826 3.18389 9.59977 3.60002 9.60023V18C2.93728 18 2.40002 18.5373 2.40002 19.2C2.40002 19.8628 2.93728 20.4 3.60002 20.4H20.4C21.0628 20.4 21.6 19.8628 21.6 19.2C21.6 18.5373 21.0628 18 20.4 18V9.60023C20.8163 9.59991 21.2208 9.38272 21.4421 8.99539C21.7709 8.41997 21.571 7.68695 20.9956 7.35813L12.5956 2.55813ZM7.20002 10.8C6.53728 10.8 6.00002 11.3373 6.00002 12V15.6C6.00002 16.2628 6.53728 16.8 7.20002 16.8C7.86277 16.8 8.40002 16.2628 8.40002 15.6V12C8.40002 11.3373 7.86277 10.8 7.20002 10.8ZM10.8 12C10.8 11.3373 11.3373 10.8 12 10.8C12.6628 10.8 13.2 11.3373 13.2 12V15.6C13.2 16.2628 12.6628 16.8 12 16.8C11.3373 16.8 10.8 16.2628 10.8 15.6V12ZM16.8 10.8C16.1373 10.8 15.6 11.3373 15.6 12V15.6C15.6 16.2628 16.1373 16.8 16.8 16.8C17.4628 16.8 18 16.2628 18 15.6V12C18 11.3373 17.4628 10.8 16.8 10.8Z" fill="#687782"/>
</svg>
