<svg width="24" height="24" viewBox="0 0 24 24" fill="none" xmlns="http://www.w3.org/2000/svg">
<path fill-rule="evenodd" clip-rule="evenodd" d="M8.39981 2.40002C7.91446 2.40002 7.47689 2.6924 7.29115 3.1408C7.10542 3.58921 7.20808 4.10535 7.55128 4.44855L8.39981 5.29708V9.80591C8.39981 10.1242 8.27338 10.4294 8.04834 10.6544L3.24834 15.4544C0.980467 17.7223 2.58666 21.6 5.79392 21.6H18.2057C21.4129 21.6 23.0192 17.7223 20.7513 15.4544L15.9513 10.6544C15.7262 10.4294 15.5998 10.1242 15.5998 9.80591V5.29708L16.4483 4.44855C16.7915 4.10535 16.8942 3.58921 16.7085 3.1408C16.5227 2.6924 16.0852 2.40002 15.5998 2.40002H8.39981ZM10.7998 9.80591V4.80002H13.1998V9.80591C13.1998 10.7607 13.5791 11.6764 14.2542 12.3515L15.4873 13.5846C14.6271 13.3845 13.7252 13.425 12.8819 13.7061L12.3176 13.8941C11.3324 14.2226 10.2671 14.2226 9.28185 13.8941L8.60691 13.6692C8.56122 13.6539 8.51527 13.6401 8.46914 13.6278L9.74539 12.3515C10.4205 11.6764 10.7998 10.7607 10.7998 9.80591Z" fill="#687782"/>
</svg>
