<svg width="24" height="24" viewBox="0 0 24 24" fill="none" xmlns="http://www.w3.org/2000/svg">
<path d="M10.8 5.76513C9.53139 5.14692 8.10621 4.80005 6.60002 4.80005C5.09383 4.80005 3.66866 5.14692 2.40002 5.76513V17.7651C3.66866 17.1469 5.09383 16.8 6.60002 16.8C8.60235 16.8 10.4615 17.4131 12 18.4617C13.5386 17.4131 15.3977 16.8 17.4 16.8C18.9062 16.8 20.3314 17.1469 21.6 17.7651V5.76513C20.3314 5.14692 18.9062 4.80005 17.4 4.80005C15.8938 4.80005 14.4687 5.14692 13.2 5.76513V14.4C13.2 15.0628 12.6628 15.6 12 15.6C11.3373 15.6 10.8 15.0628 10.8 14.4V5.76513Z" fill="#687782"/>
</svg>
