<svg width="24" height="24" viewBox="0 0 24 24" fill="none" xmlns="http://www.w3.org/2000/svg">
<path d="M13.2 20.4C13.2 20.8159 13.4153 21.2022 13.7691 21.4208C14.1229 21.6395 14.5646 21.6593 14.9366 21.4733L19.7366 19.0733C20.1432 18.8701 20.4 18.4546 20.4 18V11.0833C20.4 10.6674 20.1846 10.2812 19.8309 10.0625C19.4771 9.84388 19.0353 9.824 18.6633 10.01L13.8633 12.41C13.4568 12.6133 13.2 13.0288 13.2 13.4833V20.4Z" fill="#687782"/>
<path d="M18.2534 7.5317C18.6599 7.32843 18.9167 6.91291 18.9167 6.45838C18.9167 6.00386 18.6599 5.58834 18.2534 5.38507L12.5366 2.52671C12.1988 2.3578 11.8012 2.3578 11.4633 2.52671L5.7466 5.38507C5.34006 5.58834 5.08326 6.00386 5.08326 6.45838C5.08326 6.91291 5.34006 7.32843 5.7466 7.5317L11.4633 10.3901C11.8012 10.559 12.1988 10.559 12.5366 10.3901L18.2534 7.5317Z" fill="#687782"/>
<path d="M5.33663 10.01C4.96465 9.824 4.52288 9.84388 4.1691 10.0625C3.81532 10.2812 3.59998 10.6674 3.59998 11.0833V18C3.59998 18.4546 3.85678 18.8701 4.26332 19.0733L9.06332 21.4733C9.43531 21.6593 9.87707 21.6395 10.2309 21.4208C10.5846 21.2022 10.8 20.8159 10.8 20.4V13.4833C10.8 13.0288 10.5432 12.6133 10.1366 12.41L5.33663 10.01Z" fill="#687782"/>
</svg>
