<svg width="24" height="24" viewBox="0 0 24 24" fill="none" xmlns="http://www.w3.org/2000/svg">
<path d="M5.33332 1.99997H7.83332C9.67426 1.99997 11.1666 3.49235 11.1666 5.33329V7.83329C11.1666 9.67423 9.67426 11.1666 7.83332 11.1666H5.33332C3.49238 11.1666 2 9.67427 2 7.83329V5.33329C2 3.49235 3.49238 1.99997 5.33332 1.99997Z" fill="#687782"/>
<path d="M16.1667 1.99997H18.6667C20.5076 1.99997 22 3.49235 22 5.33329V7.83329C22 9.67423 20.5076 11.1666 18.6667 11.1666H16.1667C14.3257 11.1666 12.8334 9.67423 12.8334 7.83329V5.33329C12.8333 3.49235 14.3257 1.99997 16.1667 1.99997Z" fill="#687782"/>
<path d="M5.33332 12.8333H7.83332C9.67426 12.8333 11.1666 14.3257 11.1666 16.1666V18.6666C11.1666 20.5075 9.67426 21.9999 7.83332 21.9999H5.33332C3.49238 22 2 20.5076 2 18.6666V16.1666C2 14.3257 3.49238 12.8333 5.33332 12.8333Z" fill="#687782"/>
<path d="M16.1667 12.8333H18.6667C20.5076 12.8333 22 14.3257 22 16.1666V18.6666C22 20.5076 20.5076 22 18.6667 22H16.1667C14.3257 22 12.8334 20.5076 12.8334 18.6666V16.1666C12.8333 14.3257 14.3257 12.8333 16.1667 12.8333Z" fill="#687782"/>
</svg>
