<svg width="24" height="24" viewBox="0 0 24 24" fill="none" xmlns="http://www.w3.org/2000/svg">
<path fill-rule="evenodd" clip-rule="evenodd" d="M7.19999 7.20002V6.00002C7.19999 4.0118 8.81177 2.40002 10.8 2.40002H13.2C15.1882 2.40002 16.8 4.0118 16.8 6.00002V7.20002H19.2C20.5255 7.20002 21.6 8.27454 21.6 9.60002V13.8849C18.6116 14.9937 15.3779 15.6 12 15.6C8.62217 15.6 5.38843 14.9937 2.39999 13.8849V9.60002C2.39999 8.27454 3.47451 7.20002 4.79999 7.20002H7.19999ZM9.59999 6.00002C9.59999 5.33728 10.1373 4.80002 10.8 4.80002H13.2C13.8627 4.80002 14.4 5.33728 14.4 6.00002V7.20002H9.59999V6.00002ZM10.8 12C10.8 11.3373 11.3373 10.8 12 10.8H12.012C12.6747 10.8 13.212 11.3373 13.212 12C13.212 12.6628 12.6747 13.2 12.012 13.2H12C11.3373 13.2 10.8 12.6628 10.8 12Z" fill="#687782"/>
<path d="M2.39999 16.4307V19.2C2.39999 20.5255 3.47451 21.6 4.79999 21.6H19.2C20.5255 21.6 21.6 20.5255 21.6 19.2V16.4308C18.5847 17.4486 15.3557 18 12 18C8.64435 18 5.41535 17.4486 2.39999 16.4307Z" fill="#687782"/>
</svg>
