<svg width="24" height="24" viewBox="0 0 24 24" fill="none" xmlns="http://www.w3.org/2000/svg">
<path fill-rule="evenodd" clip-rule="evenodd" d="M4.89954 10.8H7.23435C7.34139 8.94435 7.69473 7.23491 8.23972 5.85876C6.50101 6.92564 5.25015 8.7102 4.89954 10.8ZM12 2.40002C6.69806 2.40002 2.39999 6.69809 2.39999 12C2.39999 17.302 6.69806 21.6 12 21.6C17.3019 21.6 21.6 17.302 21.6 12C21.6 6.69809 17.3019 2.40002 12 2.40002ZM12 4.80002C11.9087 4.80002 11.7214 4.83809 11.4416 5.11423C11.1567 5.39547 10.845 5.86191 10.5574 6.53303C10.091 7.62135 9.74988 9.10273 9.63884 10.8H14.3612C14.2501 9.10273 13.909 7.62135 13.4426 6.53303C13.155 5.86191 12.8433 5.39547 12.5584 5.11423C12.2786 4.83809 12.0913 4.80002 12 4.80002ZM16.7656 10.8C16.6586 8.94435 16.3053 7.23491 15.7603 5.85876C17.499 6.92564 18.7498 8.7102 19.1004 10.8H16.7656ZM14.3612 13.2H9.63884C9.74988 14.8973 10.091 16.3787 10.5574 17.467C10.845 18.1381 11.1567 18.6046 11.4416 18.8858C11.7214 19.162 11.9087 19.2 12 19.2C12.0913 19.2 12.2786 19.162 12.5584 18.8858C12.8433 18.6046 13.155 18.1381 13.4426 17.467C13.909 16.3787 14.2501 14.8973 14.3612 13.2ZM15.7603 18.1413C16.3053 16.7651 16.6586 15.0557 16.7656 13.2H19.1004C18.7498 15.2898 17.499 17.0744 15.7603 18.1413ZM8.23972 18.1413C7.69473 16.7651 7.3414 15.0557 7.23435 13.2H4.89954C5.25015 15.2898 6.50101 17.0744 8.23972 18.1413Z" fill="#687782"/>
</svg>
