<svg width="24" height="24" viewBox="0 0 24 24" fill="none" xmlns="http://www.w3.org/2000/svg">
<path d="M4.79999 3.59998C3.47451 3.59998 2.39999 4.67449 2.39999 5.99998C2.39999 7.32546 3.47451 8.39998 4.79999 8.39998H19.2C20.5255 8.39998 21.6 7.32546 21.6 5.99998C21.6 4.67449 20.5255 3.59998 19.2 3.59998H4.79999Z" fill="#687782"/>
<path fill-rule="evenodd" clip-rule="evenodd" d="M3.59999 9.59998H20.4V18C20.4 19.3255 19.3255 20.4 18 20.4H5.99999C4.67451 20.4 3.59999 19.3255 3.59999 18V9.59998ZM9.59999 13.2C9.59999 12.5372 10.1373 12 10.8 12H13.2C13.8627 12 14.4 12.5372 14.4 13.2C14.4 13.8627 13.8627 14.4 13.2 14.4H10.8C10.1373 14.4 9.59999 13.8627 9.59999 13.2Z" fill="#687782"/>
</svg>
