<svg width="24" height="24" viewBox="0 0 24 24" fill="none" xmlns="http://www.w3.org/2000/svg">
<path fill-rule="evenodd" clip-rule="evenodd" d="M4.79998 4.80002C4.79998 3.47454 5.87449 2.40002 7.19998 2.40002H16.8C18.1255 2.40002 19.2 3.47454 19.2 4.80002V19.2C19.8627 19.2 20.4 19.7373 20.4 20.4C20.4 21.0628 19.8627 21.6 19.2 21.6H15.4C14.8477 21.6 14.4 21.1523 14.4 20.6V18C14.4 17.3373 13.8627 16.8 13.2 16.8H10.8C10.1372 16.8 9.59998 17.3373 9.59998 18V20.6C9.59998 21.1523 9.15226 21.6 8.59998 21.6H4.79998C4.13723 21.6 3.59998 21.0628 3.59998 20.4C3.59998 19.7373 4.13723 19.2 4.79998 19.2V4.80002ZM8.39998 6.00002H10.8V8.40002H8.39998V6.00002ZM10.8 10.8H8.39998V13.2H10.8V10.8ZM13.2 6.00002H15.6V8.40002H13.2V6.00002ZM15.6 10.8H13.2V13.2H15.6V10.8Z" fill="#687782"/>
</svg>
