<svg width="24" height="24" viewBox="0 0 24 24" fill="none" xmlns="http://www.w3.org/2000/svg">
<path d="M7.19999 3.60002C7.19999 2.93728 7.73725 2.40002 8.39999 2.40002H8.41199C9.07474 2.40002 9.61199 2.93728 9.61199 3.60002C9.61199 4.26277 9.07474 4.80002 8.41199 4.80002H8.39999C7.73725 4.80002 7.19999 4.26277 7.19999 3.60002Z" fill="#687782"/>
<path d="M9.59999 7.20002C9.59999 6.53728 9.06274 6.00002 8.39999 6.00002C7.73725 6.00002 7.19999 6.53728 7.19999 7.20002V8.40002C5.87451 8.40002 4.79999 9.47454 4.79999 10.8V12C3.47451 12 2.39999 13.0745 2.39999 14.4V15.22C2.84242 15.344 3.26998 15.5379 3.66563 15.8016C4.35255 16.2596 5.24744 16.2596 5.93435 15.8016C7.42743 14.8063 9.37256 14.8063 10.8656 15.8016C11.5525 16.2596 12.4474 16.2596 13.1344 15.8016C14.6274 14.8063 16.5726 14.8063 18.0656 15.8016C18.7525 16.2596 19.6474 16.2596 20.3344 15.8016C20.73 15.5379 21.1576 15.344 21.6 15.22V14.4C21.6 13.0745 20.5255 12 19.2 12V10.8C19.2 9.47454 18.1255 8.40002 16.8 8.40002V7.20002C16.8 6.53728 16.2627 6.00002 15.6 6.00002C14.9373 6.00002 14.4 6.53728 14.4 7.20002V8.40002H13.2V7.20002C13.2 6.53728 12.6627 6.00002 12 6.00002C11.3373 6.00002 10.8 6.53728 10.8 7.20002V8.40002H9.59999V7.20002Z" fill="#687782"/>
<path d="M21.6 17.8415C20.1159 18.7937 18.2056 18.7794 16.7344 17.7986C16.0474 17.3406 15.1525 17.3406 14.4656 17.7986C12.9726 18.7939 11.0274 18.7939 9.53435 17.7986C8.84744 17.3406 7.95255 17.3406 7.26563 17.7986C5.79435 18.7794 3.88409 18.7937 2.39999 17.8415V20.4C2.39999 21.0628 2.93725 21.6 3.59999 21.6H20.4C21.0627 21.6 21.6 21.0628 21.6 20.4V17.8415Z" fill="#687782"/>
<path d="M10.8 3.60002C10.8 2.93728 11.3373 2.40002 12 2.40002H12.012C12.6747 2.40002 13.212 2.93728 13.212 3.60002C13.212 4.26277 12.6747 4.80002 12.012 4.80002H12C11.3373 4.80002 10.8 4.26277 10.8 3.60002Z" fill="#687782"/>
<path d="M14.4 3.60002C14.4 2.93728 14.9373 2.40002 15.6 2.40002H15.612C16.2747 2.40002 16.812 2.93728 16.812 3.60002C16.812 4.26277 16.2747 4.80002 15.612 4.80002H15.6C14.9373 4.80002 14.4 4.26277 14.4 3.60002Z" fill="#687782"/>
</svg>
