<svg width="24" height="24" viewBox="0 0 24 24" fill="none" xmlns="http://www.w3.org/2000/svg">
<path fill-rule="evenodd" clip-rule="evenodd" d="M7.20002 2.40002C6.53728 2.40002 6.00002 2.93728 6.00002 3.60002V4.80002H4.80002C3.47454 4.80002 2.40002 5.87454 2.40002 7.20002V19.2C2.40002 20.5255 3.47454 21.6 4.80002 21.6H19.2C20.5255 21.6 21.6 20.5255 21.6 19.2V7.20002C21.6 5.87454 20.5255 4.80002 19.2 4.80002H18V3.60002C18 2.93728 17.4628 2.40002 16.8 2.40002C16.1373 2.40002 15.6 2.93728 15.6 3.60002V4.80002H8.40002V3.60002C8.40002 2.93728 7.86277 2.40002 7.20002 2.40002ZM7.20002 8.40002C6.53728 8.40002 6.00002 8.93728 6.00002 9.60002C6.00002 10.2628 6.53728 10.8 7.20002 10.8H16.8C17.4628 10.8 18 10.2628 18 9.60002C18 8.93728 17.4628 8.40002 16.8 8.40002H7.20002Z" fill="#687782"/>
</svg>
