<svg width="24" height="24" viewBox="0 0 24 24" fill="none" xmlns="http://www.w3.org/2000/svg">
<path d="M17.2971 8.40002L21.2486 4.44855C21.7172 3.97992 21.7172 3.22013 21.2486 2.7515C20.7799 2.28287 20.0201 2.28287 19.5515 2.7515L15.6 6.70297V4.80002C15.6 4.13728 15.0628 3.60002 14.4 3.60002C13.7373 3.60002 13.2 4.13728 13.2 4.80002V9.59919C13.2 9.60039 13.2 9.60242 13.2 9.60362C13.2005 9.76502 13.2328 9.91892 13.2911 10.0594C13.3483 10.1977 13.4325 10.3275 13.5437 10.4407C13.5489 10.446 13.5541 10.4512 13.5594 10.4563C13.6726 10.5675 13.8024 10.6517 13.9407 10.709C14.0822 10.7676 14.2373 10.8 14.4 10.8H19.2C19.8628 10.8 20.4 10.2628 20.4 9.60002C20.4 8.93728 19.8628 8.40002 19.2 8.40002H17.2971Z" fill="#687782"/>
<path d="M2.40002 3.60002C2.40002 2.93728 2.93728 2.40002 3.60002 2.40002H6.18347C6.77008 2.40002 7.27071 2.82412 7.36714 3.40275L8.25432 8.72579C8.34093 9.24543 8.07849 9.76079 7.6073 9.99639L5.74954 10.9253C7.08909 14.254 9.74604 16.911 13.0748 18.2505L14.0037 16.3927C14.2393 15.9216 14.7546 15.6591 15.2743 15.7457L20.5973 16.6329C21.1759 16.7293 21.6 17.23 21.6 17.8166V20.4C21.6 21.0628 21.0628 21.6 20.4 21.6H18C9.38438 21.6 2.40002 14.6157 2.40002 6.00002V3.60002Z" fill="#687782"/>
</svg>
