<svg width="24" height="24" viewBox="0 0 24 24" fill="none" xmlns="http://www.w3.org/2000/svg">
<path d="M2.39999 3.60002C2.39999 2.93728 2.93725 2.40002 3.59999 2.40002H6.18344C6.77005 2.40002 7.27068 2.82412 7.36711 3.40275L8.25429 8.72579C8.3409 9.24543 8.07846 9.76079 7.60727 9.99639L5.74951 10.9253C7.08906 14.254 9.74601 16.911 13.0747 18.2505L14.0036 16.3927C14.2392 15.9216 14.7546 15.6591 15.2742 15.7457L20.5973 16.6329C21.1759 16.7293 21.6 17.23 21.6 17.8166V20.4C21.6 21.0628 21.0627 21.6 20.4 21.6H18C9.38435 21.6 2.39999 14.6157 2.39999 6.00002V3.60002Z" fill="#687782"/>
<path d="M20.0485 3.9515C20.5172 4.42013 20.5172 5.17992 20.0485 5.64855L18.497 7.20002L20.0485 8.7515C20.5171 9.22013 20.5171 9.97992 20.0485 10.4486C19.5799 10.9172 18.8201 10.9172 18.3515 10.4486L16.8 8.89708L15.2485 10.4486C14.7799 10.9172 14.0201 10.9172 13.5515 10.4486C13.0828 9.97992 13.0828 9.22013 13.5515 8.7515L15.1029 7.20002L13.5515 5.64855C13.0828 5.17992 13.0828 4.42013 13.5515 3.9515C14.0201 3.48287 14.7799 3.48287 15.2485 3.9515L16.8 5.50297L18.3515 3.9515C18.8201 3.48287 19.5799 3.48287 20.0485 3.9515Z" fill="#687782"/>
</svg>
