<svg width="24" height="24" viewBox="0 0 24 24" fill="none" xmlns="http://www.w3.org/2000/svg">
<path d="M2.40002 3.60002C2.40002 2.93728 2.93728 2.40002 3.60002 2.40002H6.18347C6.77008 2.40002 7.27071 2.82412 7.36714 3.40275L8.25432 8.72579C8.34093 9.24543 8.07849 9.76079 7.6073 9.99639L5.74954 10.9253C7.08909 14.254 9.74604 16.911 13.0748 18.2505L14.0037 16.3927C14.2393 15.9216 14.7546 15.6591 15.2743 15.7457L20.5973 16.6329C21.1759 16.7293 21.6 17.23 21.6 17.8166V20.4C21.6 21.0628 21.0628 21.6 20.4 21.6H18C9.38438 21.6 2.40002 14.6157 2.40002 6.00002V3.60002Z" fill="#687782"/>
</svg>
