<svg width="24" height="24" viewBox="0 0 24 24" fill="none" xmlns="http://www.w3.org/2000/svg">
<path fill-rule="evenodd" clip-rule="evenodd" d="M4.79999 5.99998C3.47451 5.99998 2.39999 7.07449 2.39999 8.39998V18C2.39999 19.3255 3.47451 20.4 4.79999 20.4H19.2C20.5255 20.4 21.6 19.3255 21.6 18V8.39998C21.6 7.07449 20.5255 5.99998 19.2 5.99998H17.297C16.9788 5.99998 16.6736 5.87355 16.4485 5.6485L15.1029 4.30292C14.6528 3.85283 14.0424 3.59998 13.4059 3.59998H10.5941C9.95759 3.59998 9.34714 3.85283 8.89705 4.30292L7.55147 5.6485C7.32642 5.87355 7.0212 5.99998 6.70294 5.99998H4.79999ZM12 16.8C13.9882 16.8 15.6 15.1882 15.6 13.2C15.6 11.2118 13.9882 9.59998 12 9.59998C10.0118 9.59998 8.39999 11.2118 8.39999 13.2C8.39999 15.1882 10.0118 16.8 12 16.8Z" fill="#687782"/>
</svg>
