<svg width="24" height="24" viewBox="0 0 24 24" fill="none" xmlns="http://www.w3.org/2000/svg">
<path d="M4.80002 4.79999C3.47454 4.79999 2.40002 5.8745 2.40002 7.19999V8.39999H21.6V7.19999C21.6 5.8745 20.5255 4.79999 19.2 4.79999H4.80002Z" fill="#687782"/>
<path fill-rule="evenodd" clip-rule="evenodd" d="M21.6 10.8H2.40002V16.8C2.40002 18.1255 3.47454 19.2 4.80002 19.2H19.2C20.5255 19.2 21.6 18.1255 21.6 16.8V10.8ZM4.80002 15.6C4.80002 14.9372 5.33728 14.4 6.00002 14.4H7.20002C7.86277 14.4 8.40002 14.9372 8.40002 15.6C8.40002 16.2627 7.86277 16.8 7.20002 16.8H6.00002C5.33728 16.8 4.80002 16.2627 4.80002 15.6ZM10.8 14.4C10.1373 14.4 9.60002 14.9372 9.60002 15.6C9.60002 16.2627 10.1373 16.8 10.8 16.8H12C12.6628 16.8 13.2 16.2627 13.2 15.6C13.2 14.9372 12.6628 14.4 12 14.4H10.8Z" fill="#687782"/>
</svg>
