<svg width="24" height="24" viewBox="0 0 24 24" fill="none" xmlns="http://www.w3.org/2000/svg">
<path d="M3.6 1.19995C2.93726 1.19995 2.4 1.73721 2.4 2.39995C2.4 3.06269 2.93726 3.59995 3.6 3.59995H5.06307L5.42974 5.06664C5.43359 5.0836 5.4378 5.10042 5.44236 5.1171L7.07103 11.6318L5.99994 12.7029C4.48803 14.2148 5.55882 16.7999 7.697 16.7999H17.9999C18.6627 16.7999 19.1999 16.2627 19.1999 15.5999C19.1999 14.9372 18.6627 14.3999 17.9999 14.3999L7.697 14.3999L8.897 13.1999H16.8C17.2545 13.1999 17.67 12.9431 17.8733 12.5366L21.4733 5.33661C21.6593 4.96462 21.6394 4.52285 21.4208 4.16907C21.2021 3.81529 20.8159 3.59995 20.4 3.59995H7.53693L7.16417 2.10891C7.03062 1.57471 6.55064 1.19995 6 1.19995H3.6Z" fill="#687782"/>
<path d="M19.2 19.7999C19.2 20.7941 18.3941 21.5999 17.4 21.5999C16.4059 21.5999 15.6 20.7941 15.6 19.7999C15.6 18.8058 16.4059 17.9999 17.4 17.9999C18.3941 17.9999 19.2 18.8058 19.2 19.7999Z" fill="#687782"/>
<path d="M7.8 21.5999C8.79411 21.5999 9.6 20.7941 9.6 19.7999C9.6 18.8058 8.79411 17.9999 7.8 17.9999C6.80589 17.9999 6 18.8058 6 19.7999C6 20.7941 6.80589 21.5999 7.8 21.5999Z" fill="#687782"/>
</svg>
