<svg width="24" height="24" viewBox="0 0 24 24" fill="none" xmlns="http://www.w3.org/2000/svg">
<path fill-rule="evenodd" clip-rule="evenodd" d="M2 3C2 2.44772 2.44772 2 3 2H5C5.47668 2 5.8871 2.33646 5.98058 2.80388L6.2198 4H21C21.3466 4 21.6684 4.17945 21.8507 4.47427C22.0329 4.76909 22.0494 5.13723 21.8944 5.44721L17.8944 13.4472C17.725 13.786 17.3788 14 17 14H7.41421L5.41421 16L17 16C18.6569 16 20 17.3431 20 19C20 20.6569 18.6569 22 17 22C15.3431 22 14 20.6569 14 19C14 18.6494 14.0602 18.3128 14.1707 18H9.82929C9.93985 18.3128 10 18.6494 10 19C10 20.6569 8.65685 22 7 22C5.34315 22 4 20.6569 4 19C4 18.5239 4.11092 18.0737 4.30832 17.6738C3.3292 17.0233 3.04054 15.5452 4 14.5858L5.91446 12.6713L4.1802 4H3C2.44772 4 2 3.55228 2 3ZM7.8198 12H16.382L19.382 6H6.6198L7.8198 12ZM7 18C6.44772 18 6 18.4477 6 19C6 19.5523 6.44772 20 7 20C7.55228 20 8 19.5523 8 19C8 18.4477 7.55228 18 7 18ZM17 18C16.4477 18 16 18.4477 16 19C16 19.5523 16.4477 20 17 20C17.5523 20 18 19.5523 18 19C18 18.4477 17.5523 18 17 18Z" fill="#687782"/>
<rect x="13.9742" width="10.0258" height="10.0258" rx="5.01291" fill="white"/>
<path fill-rule="evenodd" clip-rule="evenodd" d="M18.9871 1.67078C19.3562 1.67078 19.6555 1.97002 19.6555 2.33916V4.34433L21.6606 4.34433C22.0298 4.34433 22.329 4.64357 22.329 5.01271C22.329 5.38185 22.0298 5.6811 21.6606 5.6811H19.6555V7.68626C19.6555 8.0554 19.3562 8.35465 18.9871 8.35465C18.6179 8.35465 18.3187 8.0554 18.3187 7.68626V5.6811H16.3135C15.9444 5.6811 15.6452 5.38185 15.6452 5.01271C15.6452 4.64357 15.9444 4.34433 16.3135 4.34433H18.3187V2.33916C18.3187 1.97002 18.6179 1.67078 18.9871 1.67078Z" fill="#687782"/>
</svg>
