<svg width="24" height="24" viewBox="0 0 24 24" fill="none" xmlns="http://www.w3.org/2000/svg">
<path fill-rule="evenodd" clip-rule="evenodd" d="M4.79998 2.40002C5.46272 2.40002 5.99998 2.93728 5.99998 3.60002V6.12153C7.52409 4.56589 9.6486 3.60002 12 3.60002C15.6593 3.60002 18.7691 5.93921 19.9217 9.20013C20.1425 9.82499 19.815 10.5106 19.1902 10.7314C18.5653 10.9523 17.8797 10.6248 17.6589 9.99992C16.8346 7.66792 14.6105 6.00002 12 6.00002C10.0381 6.00002 8.29442 6.94205 7.1992 8.40002H10.8C11.4627 8.40002 12 8.93728 12 9.60002C12 10.2628 11.4627 10.8 10.8 10.8H4.79998C4.13723 10.8 3.59998 10.2628 3.59998 9.60002V3.60002C3.59998 2.93728 4.13723 2.40002 4.79998 2.40002ZM4.80977 13.2686C5.43463 13.0478 6.12022 13.3753 6.34108 14.0001C7.16532 16.3321 9.38941 18 12 18C13.9619 18 15.7055 17.058 16.8008 15.6L13.2 15.6C12.5372 15.6 12 15.0628 12 14.4C12 13.7373 12.5372 13.2 13.2 13.2H19.2C19.5182 13.2 19.8235 13.3265 20.0485 13.5515C20.2735 13.7765 20.4 14.0818 20.4 14.4V20.4C20.4 21.0628 19.8627 21.6 19.2 21.6C18.5372 21.6 18 21.0628 18 20.4V17.8785C16.4759 19.4342 14.3514 20.4 12 20.4C8.34069 20.4 5.23083 18.0608 4.07826 14.7999C3.85741 14.1751 4.18491 13.4895 4.80977 13.2686Z" fill="#687782"/>
</svg>
