<svg width="24" height="24" viewBox="0 0 24 24" fill="none" xmlns="http://www.w3.org/2000/svg">
<path d="M2.4 13.2C2.4 12.5372 2.93726 12 3.6 12H6C6.66274 12 7.2 12.5372 7.2 13.2V19.2C7.2 19.8627 6.66274 20.4 6 20.4H3.6C2.93726 20.4 2.4 19.8627 2.4 19.2V13.2Z" fill="#687782"/>
<path d="M9.6 8.39998C9.6 7.73723 10.1373 7.19998 10.8 7.19998H13.2C13.8627 7.19998 14.4 7.73723 14.4 8.39998V19.2C14.4 19.8627 13.8627 20.4 13.2 20.4H10.8C10.1373 20.4 9.6 19.8627 9.6 19.2V8.39998Z" fill="#687782"/>
<path d="M16.8 4.79998C16.8 4.13723 17.3373 3.59998 18 3.59998H20.4C21.0627 3.59998 21.6 4.13723 21.6 4.79998V19.2C21.6 19.8627 21.0627 20.4 20.4 20.4H18C17.3373 20.4 16.8 19.8627 16.8 19.2V4.79998Z" fill="#687782"/>
</svg>
