<svg width="24" height="24" viewBox="0 0 24 24" fill="none" xmlns="http://www.w3.org/2000/svg">
<path fill-rule="evenodd" clip-rule="evenodd" d="M6.00001 3.59998C4.67452 3.59998 3.60001 4.67449 3.60001 5.99998V18C3.60001 19.3255 4.67452 20.4 6.00001 20.4H18C19.3255 20.4 20.4 19.3255 20.4 18V5.99998C20.4 4.67449 19.3255 3.59998 18 3.59998H6.00001ZM16.8 8.39998C16.8 7.73723 16.2627 7.19998 15.6 7.19998C14.9373 7.19998 14.4 7.73723 14.4 8.39998V15.6C14.4 16.2627 14.9373 16.8 15.6 16.8C16.2627 16.8 16.8 16.2627 16.8 15.6V8.39998ZM13.2 10.8C13.2 10.1372 12.6627 9.59998 12 9.59998C11.3373 9.59998 10.8 10.1372 10.8 10.8V15.6C10.8 16.2627 11.3373 16.8 12 16.8C12.6627 16.8 13.2 16.2627 13.2 15.6V10.8ZM9.60001 14.4C9.60001 13.7372 9.06275 13.2 8.40001 13.2C7.73726 13.2 7.20001 13.7372 7.20001 14.4V15.6C7.20001 16.2627 7.73726 16.8 8.40001 16.8C9.06275 16.8 9.60001 16.2627 9.60001 15.6V14.4Z" fill="#687782"/>
</svg>
