<svg width="24" height="24" viewBox="0 0 24 24" fill="none" xmlns="http://www.w3.org/2000/svg">
<path fill-rule="evenodd" clip-rule="evenodd" d="M3.60002 3.59998C2.93728 3.59998 2.40002 4.13723 2.40002 4.79998C2.40002 5.46272 2.93728 5.99998 3.60002 5.99998V15.6C3.60002 16.9255 4.67454 18 6.00002 18H9.10297L7.5515 19.5514C7.08287 20.0201 7.08287 20.7799 7.5515 21.2485C8.02012 21.7171 8.77992 21.7171 9.24855 21.2485L12 18.497L14.7515 21.2485C15.2201 21.7171 15.9799 21.7171 16.4486 21.2485C16.9172 20.7799 16.9172 20.0201 16.4486 19.5514L14.8971 18H18C19.3255 18 20.4 16.9255 20.4 15.6V5.99998C21.0628 5.99998 21.6 5.46272 21.6 4.79998C21.6 4.13723 21.0628 3.59998 20.4 3.59998H3.60002ZM17.6486 9.2485C18.1172 8.77987 18.1172 8.02008 17.6486 7.55145C17.1799 7.08282 16.4201 7.08282 15.9515 7.55145L12 11.5029L10.4486 9.95145C9.97992 9.48282 9.22012 9.48282 8.7515 9.95145L6.3515 12.3514C5.88287 12.8201 5.88287 13.5799 6.3515 14.0485C6.82013 14.5171 7.57992 14.5171 8.04855 14.0485L9.60002 12.497L11.1515 14.0485C11.6201 14.5171 12.3799 14.5171 12.8486 14.0485L17.6486 9.2485Z" fill="#687782"/>
</svg>
