<svg width="24" height="24" viewBox="0 0 24 24" fill="none" xmlns="http://www.w3.org/2000/svg">
<path fill-rule="evenodd" clip-rule="evenodd" d="M3.60002 3.59998C2.93728 3.59998 2.40002 4.13723 2.40002 4.79998C2.40002 5.46272 2.93728 5.99998 3.60002 5.99998V15.6C3.60002 16.9255 4.67454 18 6.00002 18H9.10297L7.5515 19.5514C7.08287 20.0201 7.08287 20.7799 7.5515 21.2485C8.02012 21.7171 8.77992 21.7171 9.24855 21.2485L12 18.497L14.7515 21.2485C15.2201 21.7171 15.9799 21.7171 16.4486 21.2485C16.9172 20.7799 16.9172 20.0201 16.4486 19.5514L14.8971 18H18C19.3255 18 20.4 16.9255 20.4 15.6V5.99998C21.0628 5.99998 21.6 5.46272 21.6 4.79998C21.6 4.13723 21.0628 3.59998 20.4 3.59998H3.60002ZM16.8 8.39998C16.8 7.73723 16.2628 7.19998 15.6 7.19998C14.9373 7.19998 14.4 7.73723 14.4 8.39998V13.2C14.4 13.8627 14.9373 14.4 15.6 14.4C16.2628 14.4 16.8 13.8627 16.8 13.2V8.39998ZM13.2 9.59998C13.2 8.93723 12.6628 8.39998 12 8.39998C11.3373 8.39998 10.8 8.93723 10.8 9.59998V13.2C10.8 13.8627 11.3373 14.4 12 14.4C12.6628 14.4 13.2 13.8627 13.2 13.2V9.59998ZM9.60002 10.8C9.60002 10.1372 9.06277 9.59998 8.40002 9.59998C7.73728 9.59998 7.20002 10.1372 7.20002 10.8V13.2C7.20002 13.8627 7.73728 14.4 8.40002 14.4C9.06277 14.4 9.60002 13.8627 9.60002 13.2V10.8Z" fill="#687782"/>
</svg>
