<svg width="24" height="24" viewBox="0 0 24 24" fill="none" xmlns="http://www.w3.org/2000/svg">
<path fill-rule="evenodd" clip-rule="evenodd" d="M5.15146 18.8485C4.68283 18.3799 4.68283 17.6201 5.15146 17.1514L11.1515 11.1514C11.6201 10.6828 12.3799 10.6828 12.8485 11.1514L18.8485 17.1514C19.3171 17.6201 19.3171 18.3799 18.8485 18.8485C18.3799 19.3171 17.6201 19.3171 17.1515 18.8485L12 13.697L6.84852 18.8485C6.37989 19.3171 5.62009 19.3171 5.15146 18.8485ZM5.15146 11.6485C4.68283 11.1799 4.68283 10.4201 5.15146 9.95145L11.1515 3.95145C11.6201 3.48282 12.3799 3.48282 12.8485 3.95145L18.8485 9.95145C19.3171 10.4201 19.3171 11.1799 18.8485 11.6485C18.3799 12.1171 17.6201 12.1171 17.1515 11.6485L12 6.49703L6.84852 11.6485C6.37989 12.1171 5.62009 12.1171 5.15146 11.6485Z" fill="#687782"/>
</svg>
