<svg width="24" height="24" viewBox="0 0 24 24" fill="none" xmlns="http://www.w3.org/2000/svg">
<path fill-rule="evenodd" clip-rule="evenodd" d="M12 3.59998C12.3182 3.59998 12.6234 3.7264 12.8485 3.95145L16.4485 7.55145C16.9171 8.02008 16.9171 8.77988 16.4485 9.2485C15.9798 9.71713 15.2201 9.71713 14.7514 9.2485L12 6.49703L9.24848 9.2485C8.77985 9.71713 8.02005 9.71713 7.55142 9.2485C7.08279 8.77987 7.08279 8.02008 7.55142 7.55145L11.1514 3.95145C11.3765 3.7264 11.6817 3.59998 12 3.59998ZM7.55142 14.7514C8.02005 14.2828 8.77985 14.2828 9.24848 14.7514L12 17.5029L14.7514 14.7514C15.2201 14.2828 15.9798 14.2828 16.4485 14.7514C16.9171 15.2201 16.9171 15.9799 16.4485 16.4485L12.8485 20.0485C12.3798 20.5171 11.6201 20.5171 11.1514 20.0485L7.55142 16.4485C7.08279 15.9799 7.08279 15.2201 7.55142 14.7514Z" fill="#687782"/>
</svg>
