<svg width="24" height="24" viewBox="0 0 24 24" fill="none" xmlns="http://www.w3.org/2000/svg">
<path fill-rule="evenodd" clip-rule="evenodd" d="M12.3515 18.8485C11.8828 18.3799 11.8828 17.6201 12.3515 17.1515L17.5029 12L12.3515 6.84852C11.8828 6.37989 11.8828 5.62009 12.3515 5.15146C12.8201 4.68283 13.5799 4.68283 14.0485 5.15146L20.0485 11.1515C20.5171 11.6201 20.5171 12.3799 20.0485 12.8485L14.0485 18.8485C13.5799 19.3171 12.8201 19.3171 12.3515 18.8485Z" fill="#687782"/>
<path fill-rule="evenodd" clip-rule="evenodd" d="M5.15146 18.8485C4.68283 18.3799 4.68283 17.6201 5.15146 17.1515L10.3029 12L5.15146 6.84852C4.68283 6.37989 4.68283 5.62009 5.15146 5.15146C5.62009 4.68283 6.37989 4.68283 6.84852 5.15146L12.8485 11.1515C13.3171 11.6201 13.3171 12.3799 12.8485 12.8485L6.84852 18.8485C6.37989 19.3171 5.62009 19.3171 5.15146 18.8485Z" fill="#687782"/>
</svg>
