<svg width="24" height="24" viewBox="0 0 24 24" fill="none" xmlns="http://www.w3.org/2000/svg">
<path fill-rule="evenodd" clip-rule="evenodd" d="M18.8485 5.15146C19.3171 5.62009 19.3171 6.37989 18.8485 6.84852L12.8485 12.8485C12.3799 13.3171 11.6201 13.3171 11.1515 12.8485L5.15146 6.84852C4.68283 6.37989 4.68283 5.62009 5.15146 5.15146C5.62009 4.68283 6.37989 4.68283 6.84852 5.15146L12 10.3029L17.1515 5.15146C17.6201 4.68283 18.3799 4.68283 18.8485 5.15146ZM18.8485 12.3515C19.3171 12.8201 19.3171 13.5799 18.8485 14.0485L12.8485 20.0485C12.3799 20.5171 11.6201 20.5171 11.1515 20.0485L5.15146 14.0485C4.68283 13.5799 4.68283 12.8201 5.15146 12.3515C5.62009 11.8828 6.37989 11.8828 6.84852 12.3515L12 17.5029L17.1515 12.3515C17.6201 11.8828 18.3799 11.8828 18.8485 12.3515Z" fill="#687782"/>
</svg>
