<svg width="24" height="24" viewBox="0 0 24 24" fill="none" xmlns="http://www.w3.org/2000/svg">
<path fill-rule="evenodd" clip-rule="evenodd" d="M18.8485 18.8485C18.3799 19.3171 17.6201 19.3171 17.1515 18.8485L11.1515 12.8485C10.6828 12.3799 10.6828 11.6201 11.1515 11.1515L17.1515 5.15146C17.6201 4.68283 18.3799 4.68283 18.8485 5.15146C19.3172 5.62009 19.3172 6.37989 18.8485 6.84852L13.6971 12L18.8485 17.1515C19.3172 17.6201 19.3172 18.3799 18.8485 18.8485ZM11.6485 18.8485C11.1799 19.3171 10.4201 19.3171 9.95148 18.8485L3.95148 12.8485C3.48285 12.3799 3.48285 11.6201 3.95148 11.1515L9.95148 5.15146C10.4201 4.68283 11.1799 4.68283 11.6485 5.15146C12.1172 5.62009 12.1172 6.37989 11.6485 6.84852L6.49706 12L11.6485 17.1515C12.1172 17.6201 12.1172 18.3799 11.6485 18.8485Z" fill="#687782"/>
</svg>
