<svg width="24" height="24" viewBox="0 0 24 24" fill="none" xmlns="http://www.w3.org/2000/svg">
<path d="M15.6 8.39995H8.40001V15.6H15.6V8.39995Z" fill="#687782"/>
<path fill-rule="evenodd" clip-rule="evenodd" d="M8.40001 2.39995C8.40001 1.73721 8.93727 1.19995 9.60001 1.19995C10.2628 1.19995 10.8 1.73721 10.8 2.39995V3.59995H13.2V2.39995C13.2 1.73721 13.7373 1.19995 14.4 1.19995C15.0628 1.19995 15.6 1.73721 15.6 2.39995V3.59995H18C19.3255 3.59995 20.4 4.67447 20.4 5.99995V8.39995H21.6C22.2628 8.39995 22.8 8.93721 22.8 9.59995C22.8 10.2627 22.2628 10.8 21.6 10.8H20.4V13.2H21.6C22.2628 13.2 22.8 13.7372 22.8 14.4C22.8 15.0627 22.2628 15.6 21.6 15.6H20.4V18C20.4 19.3254 19.3255 20.4 18 20.4H15.6V21.6C15.6 22.2627 15.0628 22.7999 14.4 22.7999C13.7373 22.7999 13.2 22.2627 13.2 21.6V20.4H10.8V21.6C10.8 22.2627 10.2628 22.7999 9.60001 22.7999C8.93727 22.7999 8.40001 22.2627 8.40001 21.6V20.4H6.00001C4.67453 20.4 3.60001 19.3254 3.60001 18V15.6H2.40001C1.73727 15.6 1.20001 15.0627 1.20001 14.4C1.20001 13.7372 1.73727 13.2 2.40001 13.2H3.60001V10.8H2.40001C1.73727 10.8 1.20001 10.2627 1.20001 9.59995C1.20001 8.93721 1.73727 8.39995 2.40001 8.39995H3.60001V5.99995C3.60001 4.67447 4.67453 3.59995 6.00001 3.59995H8.40001V2.39995ZM6.00001 5.99995H18V18H6.00001V5.99995Z" fill="#687782"/>
</svg>
