<svg width="24" height="24" viewBox="0 0 24 24" fill="none" xmlns="http://www.w3.org/2000/svg">
<path d="M8.00613 2.29377C7.8346 1.65361 7.1766 1.27371 6.53644 1.44524C5.89628 1.61677 5.51638 2.27477 5.68791 2.91493L5.99849 4.07404C6.17002 4.7142 6.82803 5.0941 7.46819 4.92257C8.10835 4.75104 8.48825 4.09304 8.31671 3.45288L8.00613 2.29377Z" fill="#687782"/>
<path d="M2.91496 5.68788C2.2748 5.51635 1.6168 5.89625 1.44527 6.53641C1.27374 7.17657 1.65364 7.83457 2.2938 8.0061L3.45291 8.31668C4.09307 8.48821 4.75107 8.10832 4.9226 7.46816C5.09413 6.828 4.71423 6.16999 4.07407 5.99846L2.91496 5.68788Z" fill="#687782"/>
<path d="M13.4911 5.00579C13.9597 4.53716 13.9597 3.77737 13.4911 3.30874C13.0225 2.84011 12.2627 2.84011 11.794 3.30874L10.9455 4.15727C10.4769 4.62589 10.4769 5.38569 10.9455 5.85432C11.4141 6.32295 12.1739 6.32295 12.6426 5.85432L13.4911 5.00579Z" fill="#687782"/>
<path d="M5.00582 13.4911L5.85435 12.6425C6.32298 12.1739 6.32298 11.4141 5.85435 10.9455C5.38572 10.4769 4.62592 10.4769 4.15729 10.9455L3.30877 11.794C2.84014 12.2626 2.84014 13.0224 3.30877 13.4911C3.7774 13.9597 4.53719 13.9597 5.00582 13.4911Z" fill="#687782"/>
<path d="M8.84573 7.28582C8.40003 7.10754 7.89097 7.21203 7.55153 7.55146C7.2121 7.8909 7.10761 8.39996 7.28589 8.84566L12.0859 20.8457C12.2614 21.2844 12.678 21.5793 13.1502 21.599C13.6223 21.6186 14.062 21.3593 14.2734 20.9366L15.9288 17.6258L19.5515 21.2485C20.0202 21.7171 20.78 21.7171 21.2486 21.2485C21.7172 20.7799 21.7172 20.0201 21.2486 19.5515L17.6259 15.9287L20.9367 14.2733C21.3594 14.062 21.6187 13.6223 21.599 13.1501C21.5794 12.678 21.2845 12.2613 20.8457 12.0858L8.84573 7.28582Z" fill="#687782"/>
</svg>
