<svg width="24" height="24" viewBox="0 0 24 24" fill="none" xmlns="http://www.w3.org/2000/svg">
<path d="M9.6 2.40002C8.93726 2.40002 8.4 2.93728 8.4 3.60002C8.4 4.26277 8.93726 4.80002 9.6 4.80002H12C12.6627 4.80002 13.2 4.26277 13.2 3.60002C13.2 2.93728 12.6627 2.40002 12 2.40002H9.6Z" fill="#687782"/>
<path d="M3.6 6.00002C3.6 4.67454 4.67452 3.60002 6 3.60002C6 5.58825 7.61177 7.20002 9.6 7.20002H12C13.9882 7.20002 15.6 5.58825 15.6 3.60002C16.9255 3.60002 18 4.67454 18 6.00002V13.2H12.4971L14.0485 11.6486C14.5172 11.1799 14.5172 10.4201 14.0485 9.9515C13.5799 9.48287 12.8201 9.48287 12.3515 9.9515L8.75147 13.5515C8.28284 14.0201 8.28284 14.7799 8.75147 15.2486L12.3515 18.8486C12.8201 19.3172 13.5799 19.3172 14.0485 18.8486C14.5172 18.3799 14.5172 17.6201 14.0485 17.1515L12.4971 15.6H18V19.2C18 20.5255 16.9255 21.6 15.6 21.6H6C4.67452 21.6 3.6 20.5255 3.6 19.2V6.00002Z" fill="#687782"/>
<path d="M18 13.2H20.4C21.0627 13.2 21.6 13.7373 21.6 14.4C21.6 15.0628 21.0627 15.6 20.4 15.6H18V13.2Z" fill="#687782"/>
</svg>
