<svg width="24" height="24" viewBox="0 0 24 24" fill="none" xmlns="http://www.w3.org/2000/svg">
<path d="M10.8 2.40002C10.1372 2.40002 9.59999 2.93728 9.59999 3.60002C9.59999 4.26277 10.1372 4.80002 10.8 4.80002H13.2C13.8627 4.80002 14.4 4.26277 14.4 3.60002C14.4 2.93728 13.8627 2.40002 13.2 2.40002H10.8Z" fill="#687782"/>
<path fill-rule="evenodd" clip-rule="evenodd" d="M4.79999 6.00002C4.79999 4.67454 5.8745 3.60002 7.19999 3.60002C7.19999 5.58825 8.81176 7.20002 10.8 7.20002H13.2C15.1882 7.20002 16.8 5.58825 16.8 3.60002C18.1255 3.60002 19.2 4.67454 19.2 6.00002V19.2C19.2 20.5255 18.1255 21.6 16.8 21.6H7.19999C5.8745 21.6 4.79999 20.5255 4.79999 19.2V6.00002ZM16.4485 12.8486C16.9171 12.3799 16.9171 11.6201 16.4485 11.1515C15.9799 10.6829 15.2201 10.6829 14.7515 11.1515L10.8 15.103L9.24852 13.5515C8.77989 13.0829 8.02009 13.0829 7.55146 13.5515C7.08283 14.0201 7.08283 14.7799 7.55146 15.2486L9.95146 17.6486C10.4201 18.1172 11.1799 18.1172 11.6485 17.6486L16.4485 12.8486Z" fill="#687782"/>
</svg>
