<svg width="24" height="24" viewBox="0 0 24 24" fill="none" xmlns="http://www.w3.org/2000/svg">
<path d="M9.59999 3.60002C9.59999 2.93728 10.1372 2.40002 10.8 2.40002H13.2C13.8627 2.40002 14.4 2.93728 14.4 3.60002C14.4 4.26277 13.8627 4.80002 13.2 4.80002H10.8C10.1372 4.80002 9.59999 4.26277 9.59999 3.60002Z" fill="#687782"/>
<path d="M7.19999 3.60002C5.8745 3.60002 4.79999 4.67454 4.79999 6.00002V19.2C4.79999 20.5255 5.8745 21.6 7.19999 21.6H16.8C18.1255 21.6 19.2 20.5255 19.2 19.2V6.00002C19.2 4.67454 18.1255 3.60002 16.8 3.60002C16.8 5.58825 15.1882 7.20002 13.2 7.20002H10.8C8.81176 7.20002 7.19999 5.58825 7.19999 3.60002Z" fill="#687782"/>
</svg>
