<svg width="24" height="24" viewBox="0 0 24 24" fill="none" xmlns="http://www.w3.org/2000/svg">
<path fill-rule="evenodd" clip-rule="evenodd" d="M12 21.6C17.3019 21.6 21.6 17.302 21.6 12C21.6 6.69809 17.3019 2.40002 12 2.40002C6.69806 2.40002 2.39999 6.69809 2.39999 12C2.39999 17.302 6.69806 21.6 12 21.6ZM13 7.20002C13 6.64774 12.5523 6.20002 12 6.20002C11.4477 6.20002 11 6.64774 11 7.20002V12C11 12.2652 11.1054 12.5196 11.2929 12.7071L14.687 16.1012C15.0775 16.4918 15.7107 16.4918 16.1012 16.1012C16.4917 15.7107 16.4917 15.0776 16.1012 14.687L13 11.5858V7.20002Z" fill="#687782"/>
</svg>
