<svg width="24" height="24" viewBox="0 0 24 24" fill="none" xmlns="http://www.w3.org/2000/svg">
<path fill-rule="evenodd" clip-rule="evenodd" d="M2.39999 11.4C2.39999 13.7196 4.2804 15.6 6.59999 15.6H10.8V18.703L9.24852 17.1515C8.77989 16.6829 8.02009 16.6829 7.55147 17.1515C7.08284 17.6201 7.08284 18.3799 7.55147 18.8485L11.1515 22.4485C11.6201 22.9172 12.3799 22.9172 12.8485 22.4485L16.4485 18.8485C16.9172 18.3799 16.9172 17.6201 16.4485 17.1515C15.9799 16.6829 15.2201 16.6829 14.7515 17.1515L13.2 18.703V15.6H16.2C19.1823 15.6 21.6 13.1823 21.6 10.2C21.6 7.21767 19.1823 4.80001 16.2 4.80001C15.9494 4.80001 15.7029 4.81708 15.4614 4.85011C14.9462 2.75446 13.0546 1.20001 10.8 1.20001C8.14903 1.20001 5.99999 3.34905 5.99999 6.00001C5.99999 6.42268 6.05463 6.8326 6.15721 7.22307C4.04575 7.4443 2.39999 9.22996 2.39999 11.4ZM13.2 15.6H10.8V9.60001C10.8 8.93727 11.3373 8.40001 12 8.40001C12.6627 8.40001 13.2 8.93727 13.2 9.60001V15.6Z" fill="#687782"/>
</svg>
