<svg width="24" height="24" viewBox="0 0 24 24" fill="none" xmlns="http://www.w3.org/2000/svg">
<path d="M6.59999 15.6C4.2804 15.6 2.39999 13.7196 2.39999 11.4C2.39999 9.22996 4.04575 7.4443 6.15721 7.22307C6.05463 6.8326 5.99999 6.42268 5.99999 6.00001C5.99999 3.34905 8.14903 1.20001 10.8 1.20001C13.0546 1.20001 14.9462 2.75446 15.4614 4.85011C15.7029 4.81708 15.9494 4.80001 16.2 4.80001C19.1823 4.80001 21.6 7.21767 21.6 10.2C21.6 13.1823 19.1823 15.6 16.2 15.6H13.2V11.2971L14.7515 12.8485C15.2201 13.3172 15.9799 13.3172 16.4485 12.8485C16.9172 12.3799 16.9172 11.6201 16.4485 11.1515L12.8485 7.55148C12.3799 7.08285 11.6201 7.08285 11.1515 7.55148L7.55147 11.1515C7.08284 11.6201 7.08284 12.3799 7.55147 12.8485C8.02009 13.3172 8.77989 13.3172 9.24852 12.8485L10.8 11.2971L10.8 15.6H6.59999Z" fill="#687782"/>
<path d="M10.8 15.6H13.2L13.2 21.6C13.2 22.2628 12.6627 22.8 12 22.8C11.3373 22.8 10.8 22.2628 10.8 21.6V15.6Z" fill="#687782"/>
</svg>
