<svg width="24" height="24" viewBox="0 0 24 24" fill="none" xmlns="http://www.w3.org/2000/svg">
<path fill-rule="evenodd" clip-rule="evenodd" d="M14.7795 3.66164C15.4082 3.87121 15.748 4.5508 15.5384 5.17953L10.7384 19.5795C10.5288 20.2083 9.84926 20.5481 9.22052 20.3385C8.59179 20.1289 8.252 19.4493 8.46158 18.8206L13.2616 4.42058C13.4712 3.79185 14.1507 3.45206 14.7795 3.66164ZM6.84853 7.55153C7.31715 8.02016 7.31715 8.77996 6.84853 9.24858L4.09705 12.0001L6.84853 14.7515C7.31715 15.2202 7.31715 15.98 6.84853 16.4486C6.3799 16.9172 5.6201 16.9172 5.15147 16.4486L1.55147 12.8486C1.08284 12.38 1.08284 11.6202 1.55147 11.1515L5.15147 7.55153C5.6201 7.0829 6.3799 7.0829 6.84853 7.55153ZM17.1515 7.55153C17.6201 7.0829 18.3799 7.0829 18.8485 7.55153L22.4485 11.1515C22.9172 11.6202 22.9172 12.38 22.4485 12.8486L18.8485 16.4486C18.3799 16.9172 17.6201 16.9172 17.1515 16.4486C16.6828 15.98 16.6828 15.2202 17.1515 14.7515L19.9029 12.0001L17.1515 9.24858C16.6828 8.77996 16.6828 8.02016 17.1515 7.55153Z" fill="#687782"/>
</svg>
