<svg width="24" height="24" viewBox="0 0 24 24" fill="none" xmlns="http://www.w3.org/2000/svg">
<path fill-rule="evenodd" clip-rule="evenodd" d="M4.79999 2.40002C3.47451 2.40002 2.39999 3.47454 2.39999 4.80002V18C2.39999 19.9882 4.01177 21.6 5.99999 21.6C7.98822 21.6 9.59999 19.9882 9.59999 18V4.80002C9.59999 3.47454 8.52548 2.40002 7.19999 2.40002H4.79999ZM5.99999 19.2C6.66274 19.2 7.19999 18.6628 7.19999 18C7.19999 17.3373 6.66274 16.8 5.99999 16.8C5.33725 16.8 4.79999 17.3373 4.79999 18C4.79999 18.6628 5.33725 19.2 5.99999 19.2Z" fill="#687782"/>
<path d="M12 17.0911L17.8794 11.2117C18.8166 10.2745 18.8166 8.75486 17.8794 7.8176L16.1823 6.12055C15.2451 5.18329 13.7255 5.18329 12.7882 6.12055L12 6.90876V17.0911Z" fill="#687782"/>
<path d="M19.2 21.6H10.8852L18.0852 14.4H19.2C20.5255 14.4 21.6 15.4745 21.6 16.8V19.2C21.6 20.5255 20.5255 21.6 19.2 21.6Z" fill="#687782"/>
</svg>
