<svg width="24" height="24" viewBox="0 0 24 24" fill="none" xmlns="http://www.w3.org/2000/svg">
<path d="M2.39999 4.79998C2.39999 4.13723 2.93725 3.59998 3.59999 3.59998H5.99999C6.66274 3.59998 7.19999 4.13723 7.19999 4.79998V19.2C7.19999 19.8627 6.66274 20.4 5.99999 20.4H3.59999C2.93725 20.4 2.39999 19.8627 2.39999 19.2V4.79998Z" fill="#687782"/>
<path d="M9.59999 4.79998C9.59999 4.13723 10.1373 3.59998 10.8 3.59998H13.2C13.8627 3.59998 14.4 4.13723 14.4 4.79998V19.2C14.4 19.8627 13.8627 20.4 13.2 20.4H10.8C10.1373 20.4 9.59999 19.8627 9.59999 19.2V4.79998Z" fill="#687782"/>
<path d="M18 3.59998C17.3373 3.59998 16.8 4.13723 16.8 4.79998V19.2C16.8 19.8627 17.3373 20.4 18 20.4H20.4C21.0627 20.4 21.6 19.8627 21.6 19.2V4.79998C21.6 4.13723 21.0627 3.59998 20.4 3.59998H18Z" fill="#687782"/>
</svg>
