<svg width="24" height="24" viewBox="0 0 24 24" fill="none" xmlns="http://www.w3.org/2000/svg">
<path d="M15.6 7.19998C15.6 9.1882 13.9882 10.8 12 10.8C10.0118 10.8 8.40001 9.1882 8.40001 7.19998C8.40001 5.21175 10.0118 3.59998 12 3.59998C13.9882 3.59998 15.6 5.21175 15.6 7.19998Z" fill="#687782"/>
<path d="M21.6 9.59998C21.6 10.9255 20.5255 12 19.2 12C17.8745 12 16.8 10.9255 16.8 9.59998C16.8 8.27449 17.8745 7.19998 19.2 7.19998C20.5255 7.19998 21.6 8.27449 21.6 9.59998Z" fill="#687782"/>
<path d="M16.8 18C16.8 15.349 14.651 13.2 12 13.2C9.34904 13.2 7.20001 15.349 7.20001 18V21.6H16.8V18Z" fill="#687782"/>
<path d="M7.20001 9.59998C7.20001 10.9255 6.1255 12 4.80001 12C3.47453 12 2.40001 10.9255 2.40001 9.59998C2.40001 8.27449 3.47453 7.19998 4.80001 7.19998C6.1255 7.19998 7.20001 8.27449 7.20001 9.59998Z" fill="#687782"/>
<path d="M19.2 21.6V18C19.2 16.735 18.8738 15.5462 18.3009 14.5132C18.5883 14.4393 18.8896 14.4 19.2 14.4C21.1882 14.4 22.8 16.0118 22.8 18V21.6H19.2Z" fill="#687782"/>
<path d="M5.69913 14.5132C5.12623 15.5462 4.80001 16.735 4.80001 18V21.6H1.20001V18C1.20001 16.0118 2.81179 14.4 4.80001 14.4C5.11046 14.4 5.41174 14.4393 5.69913 14.5132Z" fill="#687782"/>
</svg>
