<svg width="24" height="24" viewBox="0 0 24 24" fill="none" xmlns="http://www.w3.org/2000/svg">
<path fill-rule="evenodd" clip-rule="evenodd" d="M21.6 15.6V5.99998C21.6 4.67449 20.5255 3.59998 19.2 3.59998H4.80002C3.47454 3.59998 2.40002 4.67449 2.40002 5.99998V15.6C2.40002 16.9255 3.47454 18 4.80002 18H8.40002L12 21.6L15.6 18H19.2C20.5255 18 21.6 16.9255 21.6 15.6ZM6.00002 8.39998C6.00002 7.73723 6.53728 7.19998 7.20002 7.19998H16.8C17.4628 7.19998 18 7.73723 18 8.39998C18 9.06272 17.4628 9.59998 16.8 9.59998H7.20002C6.53728 9.59998 6.00002 9.06272 6.00002 8.39998ZM7.20002 12C6.53728 12 6.00002 12.5372 6.00002 13.2C6.00002 13.8627 6.53728 14.4 7.20002 14.4H10.8C11.4628 14.4 12 13.8627 12 13.2C12 12.5372 11.4628 12 10.8 12H7.20002Z" fill="#687782"/>
</svg>
