<svg width="24" height="24" viewBox="0 0 24 24" fill="none" xmlns="http://www.w3.org/2000/svg">
<path fill-rule="evenodd" clip-rule="evenodd" d="M3.59998 5.99998C3.59998 4.67449 4.67449 3.59998 5.99998 3.59998H18C19.3255 3.59998 20.4 4.67449 20.4 5.99998V15.6C20.4 16.9255 19.3255 18 18 18H15.3369L15.4836 18.5865L16.4485 19.5514C16.7917 19.8946 16.8944 20.4108 16.7087 20.8592C16.5229 21.3076 16.0854 21.6 15.6 21.6H8.40001C7.91466 21.6 7.47709 21.3076 7.29136 20.8592C7.10562 20.4108 7.20828 19.8946 7.55148 19.5514L8.51645 18.5865L8.66308 18H5.99998C4.67449 18 3.59998 16.9255 3.59998 15.6V5.99998ZM10.5255 14.4C10.5079 14.3996 10.4902 14.3996 10.4727 14.4H5.99998V5.99998H18V14.4H13.5273C13.5098 14.3996 13.4922 14.3996 13.4745 14.4H10.5255Z" fill="#687782"/>
</svg>
