<svg width="24" height="24" viewBox="0 0 24 24" fill="none" xmlns="http://www.w3.org/2000/svg">
<path fill-rule="evenodd" clip-rule="evenodd" d="M2.39999 5.99998C2.39999 4.67449 3.47451 3.59998 4.79999 3.59998H19.2C20.5255 3.59998 21.6 4.67449 21.6 5.99998V18C21.6 19.3255 20.5255 20.4 19.2 20.4H4.79999C3.47451 20.4 2.39999 19.3255 2.39999 18V5.99998ZM6.35147 7.55145C6.82009 7.08282 7.57989 7.08282 8.04852 7.55145L11.6485 11.1514C12.1172 11.6201 12.1172 12.3799 11.6485 12.8485L8.04852 16.4485C7.57989 16.9171 6.82009 16.9171 6.35147 16.4485C5.88284 15.9799 5.88284 15.2201 6.35147 14.7514L9.10294 12L6.35147 9.2485C5.88284 8.77988 5.88284 8.02008 6.35147 7.55145ZM13.2 14.4C12.5373 14.4 12 14.9372 12 15.6C12 16.2627 12.5373 16.8 13.2 16.8H16.8C17.4627 16.8 18 16.2627 18 15.6C18 14.9372 17.4627 14.4 16.8 14.4H13.2Z" fill="#687782"/>
</svg>
