<svg width="24" height="24" viewBox="0 0 24 24" fill="none" xmlns="http://www.w3.org/2000/svg">
<path d="M10.8 2.40002C9.47449 2.40002 8.39998 3.47454 8.39998 4.80002V14.4C8.39998 15.7255 9.47449 16.8 10.8 16.8H18C19.3255 16.8 20.4 15.7255 20.4 14.4V7.69708C20.4 7.06056 20.1471 6.45011 19.697 6.00002L16.8 3.10297C16.3499 2.65288 15.7394 2.40002 15.1029 2.40002H10.8Z" fill="#687782"/>
<path d="M3.59998 9.60002C3.59998 8.27454 4.67449 7.20002 5.99998 7.20002V19.2H15.6C15.6 20.5255 14.5255 21.6 13.2 21.6H5.99998C4.67449 21.6 3.59998 20.5255 3.59998 19.2V9.60002Z" fill="#687782"/>
</svg>
