<svg width="24" height="24" viewBox="0 0 24 24" fill="none" xmlns="http://www.w3.org/2000/svg">
<path d="M8.40002 3.59998C7.73728 3.59998 7.20002 4.13723 7.20002 4.79998C7.20002 5.46272 7.73728 5.99998 8.40002 5.99998H15.6C16.2628 5.99998 16.8 5.46272 16.8 4.79998C16.8 4.13723 16.2628 3.59998 15.6 3.59998H8.40002Z" fill="#687782"/>
<path d="M4.80002 8.39998C4.80002 7.73723 5.33728 7.19998 6.00002 7.19998H18C18.6628 7.19998 19.2 7.73723 19.2 8.39998C19.2 9.06272 18.6628 9.59998 18 9.59998H6.00002C5.33728 9.59998 4.80002 9.06272 4.80002 8.39998Z" fill="#687782"/>
<path d="M2.40002 13.2C2.40002 11.8745 3.47454 10.8 4.80002 10.8H19.2C20.5255 10.8 21.6 11.8745 21.6 13.2V18C21.6 19.3255 20.5255 20.4 19.2 20.4H4.80002C3.47454 20.4 2.40002 19.3255 2.40002 18V13.2Z" fill="#687782"/>
</svg>
