<svg width="24" height="24" viewBox="0 0 24 24" fill="none" xmlns="http://www.w3.org/2000/svg">
<path d="M12 2.40002C11.3373 2.40002 10.8 2.93728 10.8 3.60002V4.80002C10.8 5.46277 11.3373 6.00002 12 6.00002C12.6628 6.00002 13.2 5.46277 13.2 4.80002V3.60002C13.2 2.93728 12.6628 2.40002 12 2.40002Z" fill="#687782"/>
<path fill-rule="evenodd" clip-rule="evenodd" d="M4.80002 4.80002H8.40002C8.40002 6.78825 10.0118 8.40003 12 8.40003C13.9882 8.40003 15.6 6.78825 15.6 4.80002H19.2C20.5255 4.80002 21.6 5.87454 21.6 7.20003V18C21.6 19.3255 20.5255 20.4 19.2 20.4H4.80002C3.47454 20.4 2.40002 19.3255 2.40002 18V7.20003C2.40002 5.87454 3.47454 4.80002 4.80002 4.80002ZM7.80002 13.2C8.79414 13.2 9.60002 12.3941 9.60002 11.4C9.60002 10.4059 8.79414 9.60003 7.80002 9.60003C6.80591 9.60003 6.00002 10.4059 6.00002 11.4C6.00002 12.3941 6.80591 13.2 7.80002 13.2ZM10.7406 18C10.78 17.8062 10.8006 17.6055 10.8006 17.4C10.8006 15.7432 9.45746 14.4 7.80061 14.4C6.14376 14.4 4.80061 15.7432 4.80061 17.4C4.80061 17.6055 4.82127 17.8062 4.86062 18H10.7406ZM14.4 10.8C13.7373 10.8 13.2 11.3373 13.2 12C13.2 12.6628 13.7373 13.2 14.4 13.2H18C18.6628 13.2 19.2 12.6628 19.2 12C19.2 11.3373 18.6628 10.8 18 10.8H14.4ZM13.2 15.6C13.2 14.9373 13.7373 14.4 14.4 14.4H16.8C17.4628 14.4 18 14.9373 18 15.6C18 16.2628 17.4628 16.8 16.8 16.8H14.4C13.7373 16.8 13.2 16.2628 13.2 15.6Z" fill="#687782"/>
</svg>
