<svg width="24" height="24" viewBox="0 0 24 24" fill="none" xmlns="http://www.w3.org/2000/svg">
<path fill-rule="evenodd" clip-rule="evenodd" d="M5.15152 5.15146C5.62015 4.68283 6.37995 4.68283 6.84858 5.15146L12 10.3029L17.1515 5.15146C17.6202 4.68283 18.3799 4.68283 18.8486 5.15146C19.3172 5.62009 19.3172 6.37989 18.8486 6.84852L13.6971 12L18.8486 17.1515C19.3172 17.6201 19.3172 18.3799 18.8486 18.8485C18.3799 19.3171 17.6202 19.3171 17.1515 18.8485L12 13.697L6.84858 18.8485C6.37995 19.3171 5.62015 19.3171 5.15152 18.8485C4.68289 18.3799 4.68289 17.6201 5.15152 17.1515L10.303 12L5.15152 6.84852C4.68289 6.37989 4.68289 5.62009 5.15152 5.15146Z" fill="#687782"/>
</svg>
