<svg width="24" height="24" viewBox="0 0 24 24" fill="none" xmlns="http://www.w3.org/2000/svg">
<path d="M11.4046 1.35806C11.7735 1.14725 12.2264 1.14725 12.5954 1.35806L14.6954 2.55806C15.2708 2.88687 15.4707 3.6199 15.1419 4.19532C14.8131 4.77074 14.08 4.97065 13.5046 4.64184L12 3.78205L10.4954 4.64184C9.91994 4.97065 9.18691 4.77074 8.8581 4.19532C8.52929 3.6199 8.72921 2.88687 9.30463 2.55806L11.4046 1.35806Z" fill="#687782"/>
<path d="M6.74189 5.40458C7.0707 5.98 6.87078 6.71303 6.29536 7.04184L6.01867 7.19995L6.29536 7.35806C6.87078 7.68687 7.0707 8.4199 6.74189 8.99532C6.41307 9.57074 5.68005 9.77065 5.10463 9.44184L4.79999 9.26777V9.59995C4.79999 10.2627 4.26274 10.8 3.59999 10.8C2.93725 10.8 2.39999 10.2627 2.39999 9.59995V7.19995C2.39999 6.89997 2.51007 6.62569 2.69203 6.41532C2.73361 6.36719 2.77917 6.3222 2.82838 6.28089C2.88904 6.2299 2.95483 6.18481 3.02485 6.1465L5.10463 4.95806C5.68005 4.62925 6.41307 4.82916 6.74189 5.40458Z" fill="#687782"/>
<path d="M17.2581 5.40458C17.5869 4.82916 18.3199 4.62925 18.8954 4.95806L20.9751 6.1465C21.0452 6.18481 21.1109 6.2299 21.1716 6.28089C21.4335 6.50101 21.6 6.83104 21.6 7.19995V9.59995C21.6 10.2627 21.0627 10.8 20.4 10.8C19.7373 10.8 19.2 10.2627 19.2 9.59995V9.26777L18.8954 9.44184C18.3199 9.77065 17.5869 9.57074 17.2581 8.99532C16.9293 8.4199 17.1292 7.68687 17.7046 7.35806L17.9813 7.19995L17.7046 7.04184C17.1292 6.71303 16.9293 5.98 17.2581 5.40458Z" fill="#687782"/>
<path d="M8.8581 10.2046C9.18691 9.62916 9.91994 9.42925 10.4954 9.75806L12 10.6178L13.5046 9.75806C14.08 9.42925 14.8131 9.62916 15.1419 10.2046C15.4707 10.78 15.2708 11.513 14.6954 11.8418L13.2 12.6963V14.4C13.2 15.0627 12.6627 15.6 12 15.6C11.3373 15.6 10.8 15.0627 10.8 14.4V12.6963L9.30463 11.8418C8.72921 11.513 8.52929 10.78 8.8581 10.2046Z" fill="#687782"/>
<path d="M3.59999 13.2C4.26274 13.2 4.79999 13.7372 4.79999 14.4V16.1036L6.29536 16.9581C6.87078 17.2869 7.0707 18.0199 6.74189 18.5953C6.41307 19.1707 5.68005 19.3707 5.10463 19.0418L3.00463 17.8418C2.63074 17.6282 2.39999 17.2306 2.39999 16.8V14.4C2.39999 13.7372 2.93725 13.2 3.59999 13.2Z" fill="#687782"/>
<path d="M20.4 13.2C21.0627 13.2 21.6 13.7372 21.6 14.4V16.8C21.6 17.2306 21.3692 17.6282 20.9954 17.8418L18.8954 19.0418C18.3199 19.3707 17.5869 19.1707 17.2581 18.5953C16.9293 18.0199 17.1292 17.2869 17.7046 16.9581L19.2 16.1036V14.4C19.2 13.7372 19.7373 13.2 20.4 13.2Z" fill="#687782"/>
<path d="M8.8581 19.8046C9.18691 19.2292 9.91994 19.0292 10.4954 19.3581L10.8 19.5321V19.1999C10.8 18.5372 11.3373 18 12 18C12.6627 18 13.2 18.5372 13.2 19.1999V19.5321L13.5046 19.3581C14.08 19.0292 14.8131 19.2292 15.1419 19.8046C15.4707 20.38 15.2708 21.113 14.6954 21.4418L12.6136 22.6314C12.4341 22.7385 12.2242 22.7999 12 22.7999C11.7758 22.7999 11.5659 22.7385 11.3864 22.6314L9.30463 21.4418C8.72921 21.113 8.52929 20.38 8.8581 19.8046Z" fill="#687782"/>
</svg>
