<svg width="24" height="24" viewBox="0 0 24 24" fill="none" xmlns="http://www.w3.org/2000/svg">
<path fill-rule="evenodd" clip-rule="evenodd" d="M12 21.6C17.302 21.6 21.6 17.302 21.6 12C21.6 6.69809 17.302 2.40002 12 2.40002C6.69809 2.40002 2.40002 6.69809 2.40002 12C2.40002 17.302 6.69809 21.6 12 21.6ZM9.42905 6.58252C9.08807 6.01422 8.35096 5.82994 7.78266 6.17092C7.21437 6.5119 7.03009 7.24901 7.37107 7.81731L9.16063 10.7999H8.40006C7.73732 10.7999 7.20006 11.3372 7.20006 11.9999C7.20006 12.6627 7.73732 13.1999 8.40006 13.1999H10.6006L10.8001 13.5323V14.3999H8.40006C7.73732 14.3999 7.20006 14.9372 7.20006 15.5999C7.20006 16.2627 7.73732 16.7999 8.40006 16.7999H10.8001V17.9999C10.8001 18.6627 11.3373 19.1999 12.0001 19.1999C12.6628 19.1999 13.2001 18.6627 13.2001 17.9999V16.7999H15.6001C16.2628 16.7999 16.8001 16.2627 16.8001 15.5999C16.8001 14.9372 16.2628 14.3999 15.6001 14.3999H13.2001V13.5323L13.3995 13.1999H15.6001C16.2628 13.1999 16.8001 12.6627 16.8001 11.9999C16.8001 11.3372 16.2628 10.7999 15.6001 10.7999H14.8395L16.6291 7.81731C16.97 7.24901 16.7858 6.5119 16.2175 6.17092C15.6492 5.82994 14.912 6.01422 14.5711 6.58252L12.0406 10.7999H11.9595L9.42905 6.58252Z" fill="#687782"/>
</svg>
