<svg width="24" height="24" viewBox="0 0 24 24" fill="none" xmlns="http://www.w3.org/2000/svg">
<path d="M10.1201 8.90143C10.3058 8.77759 10.5353 8.6669 10.8 8.58123L10.8 10.6188C10.5353 10.5331 10.3058 10.4225 10.1201 10.2986C9.68315 10.0073 9.60002 9.73671 9.60002 9.60002C9.60002 9.46334 9.68315 9.19272 10.1201 8.90143Z" fill="#687782"/>
<path d="M13.2 15.4188L13.2 13.3812C13.4648 13.4669 13.6942 13.5776 13.88 13.7014C14.3169 13.9927 14.4 14.2633 14.4 14.4C14.4 14.5367 14.3169 14.8073 13.88 15.0986C13.6942 15.2225 13.4648 15.3331 13.2 15.4188Z" fill="#687782"/>
<path fill-rule="evenodd" clip-rule="evenodd" d="M12 21.6C17.302 21.6 21.6 17.302 21.6 12C21.6 6.69809 17.302 2.40002 12 2.40002C6.69809 2.40002 2.40002 6.69809 2.40002 12C2.40002 17.302 6.69809 21.6 12 21.6ZM13.2 6.00002C13.2 5.33728 12.6628 4.80002 12 4.80002C11.3373 4.80002 10.8 5.33728 10.8 6.00002V6.11042C10.0541 6.2505 9.3642 6.52091 8.7888 6.90451C7.92279 7.48185 7.20002 8.41122 7.20002 9.60002C7.20002 10.7888 7.92279 11.7182 8.7888 12.2955C9.3642 12.6791 10.0541 12.9496 10.8 13.0896L10.8 15.4191C10.3308 15.2668 9.98303 15.0383 9.78803 14.8136C9.35368 14.313 8.59578 14.2593 8.09521 14.6937C7.59464 15.128 7.54096 15.8859 7.9753 16.3865C8.65029 17.1644 9.67149 17.677 10.8 17.8892L10.8 18C10.8 18.6627 11.3373 19.2 12 19.2C12.6627 19.2 13.2 18.6628 13.2 18L13.2 17.8896C13.946 17.7496 14.6359 17.4791 15.2113 17.0955C16.0773 16.5182 16.8 15.5888 16.8 14.4C16.8 13.2112 16.0773 12.2818 15.2113 11.7045C14.6359 11.3209 13.9459 11.0505 13.2 10.9104L13.2 8.58092C13.6692 8.73327 14.017 8.96174 14.212 9.18648C14.6464 9.68705 15.4043 9.74073 15.9049 9.30639C16.4054 8.87204 16.4591 8.11414 16.0248 7.61357C15.3498 6.83566 14.3286 6.32301 13.2 6.11085V6.00002Z" fill="#687782"/>
</svg>
