<svg width="24" height="24" viewBox="0 0 24 24" fill="none" xmlns="http://www.w3.org/2000/svg">
<path fill-rule="evenodd" clip-rule="evenodd" d="M12 21.6C17.302 21.6 21.6 17.302 21.6 12C21.6 6.69809 17.302 2.40002 12 2.40002C6.69809 2.40002 2.40002 6.69809 2.40002 12C2.40002 17.302 6.69809 21.6 12 21.6ZM10.4834 8.37478C11.0495 7.43127 11.6354 7.20002 12 7.20002C12.3646 7.20002 12.9505 7.43127 13.5166 8.37478C13.8576 8.94307 14.5947 9.12735 15.163 8.78638C15.7313 8.4454 15.9156 7.70828 15.5746 7.13999C14.7348 5.74035 13.4781 4.80002 12 4.80002C10.522 4.80002 9.26523 5.74035 8.42545 7.13999C8.08361 7.70972 7.81709 8.33929 7.62118 9.00002H7.20002C6.53728 9.00002 6.00002 9.53728 6.00002 10.2C6.00002 10.8628 6.53728 11.4 7.20002 11.4H7.21607C7.20533 11.6004 7.20002 11.8007 7.20002 12C7.20002 12.1994 7.20533 12.3996 7.21607 12.6H7.20002C6.53728 12.6 6.00002 13.1373 6.00002 13.8C6.00002 14.4628 6.53728 15 7.20002 15H7.62118C7.81709 15.6608 8.08361 16.2903 8.42545 16.8601C9.26523 18.2597 10.522 19.2 12 19.2C13.4781 19.2 14.7348 18.2597 15.5746 16.8601C15.9156 16.2918 15.7313 15.5547 15.163 15.2137C14.5947 14.8727 13.8576 15.057 13.5166 15.6253C12.9505 16.5688 12.3646 16.8 12 16.8C11.6354 16.8 11.0495 16.5688 10.4834 15.6253C10.3671 15.4315 10.2613 15.2222 10.1666 15H12C12.6628 15 13.2 14.4628 13.2 13.8C13.2 13.1373 12.6628 12.6 12 12.6H9.62037C9.60688 12.402 9.60002 12.2017 9.60002 12C9.60002 11.7983 9.60688 11.598 9.62037 11.4H12C12.6628 11.4 13.2 10.8628 13.2 10.2C13.2 9.53728 12.6628 9.00002 12 9.00002H10.1666C10.2613 8.77787 10.3671 8.56858 10.4834 8.37478Z" fill="#687782"/>
</svg>
