<svg width="24" height="24" viewBox="0 0 24 24" fill="none" xmlns="http://www.w3.org/2000/svg">
<path d="M5.99998 3.59998C4.67449 3.59998 3.59998 4.67449 3.59998 5.99998V8.39998C3.59998 9.72546 4.67449 10.8 5.99998 10.8H8.39998C9.72546 10.8 10.8 9.72546 10.8 8.39998V5.99998C10.8 4.67449 9.72546 3.59998 8.39998 3.59998H5.99998Z" fill="#687782"/>
<path d="M5.99998 13.2C4.67449 13.2 3.59998 14.2745 3.59998 15.6V18C3.59998 19.3255 4.67449 20.4 5.99998 20.4H8.39998C9.72546 20.4 10.8 19.3255 10.8 18V15.6C10.8 14.2745 9.72546 13.2 8.39998 13.2H5.99998Z" fill="#687782"/>
<path d="M13.2 5.99998C13.2 4.67449 14.2745 3.59998 15.6 3.59998H18C19.3255 3.59998 20.4 4.67449 20.4 5.99998V8.39998C20.4 9.72546 19.3255 10.8 18 10.8H15.6C14.2745 10.8 13.2 9.72546 13.2 8.39998V5.99998Z" fill="#687782"/>
<path d="M13.2 15.6C13.2 14.2745 14.2745 13.2 15.6 13.2H18C19.3255 13.2 20.4 14.2745 20.4 15.6V18C20.4 19.3255 19.3255 20.4 18 20.4H15.6C14.2745 20.4 13.2 19.3255 13.2 18V15.6Z" fill="#687782"/>
</svg>
