<svg width="24" height="24" viewBox="0 0 24 24" fill="none" xmlns="http://www.w3.org/2000/svg">
<path d="M3.6 14.4V18C3.6 19.9882 7.36081 21.6 12 21.6C16.6392 21.6 20.4 19.9882 20.4 18V14.4C20.4 16.3882 16.6392 18 12 18C7.36081 18 3.6 16.3882 3.6 14.4Z" fill="#687782"/>
<path d="M3.6 8.40002V12C3.6 13.9882 7.36081 15.6 12 15.6C16.6392 15.6 20.4 13.9882 20.4 12V8.40002C20.4 10.3882 16.6392 12 12 12C7.36081 12 3.6 10.3882 3.6 8.40002Z" fill="#687782"/>
<path d="M20.4 6.00002C20.4 7.98825 16.6392 9.60002 12 9.60002C7.36081 9.60002 3.6 7.98825 3.6 6.00002C3.6 4.0118 7.36081 2.40002 12 2.40002C16.6392 2.40002 20.4 4.0118 20.4 6.00002Z" fill="#687782"/>
</svg>
