<svg width="24" height="24" viewBox="0 0 24 24" fill="none" xmlns="http://www.w3.org/2000/svg">
<path d="M13.2 7.19998C13.2 9.1882 11.5882 10.8 9.60002 10.8C7.6118 10.8 6.00002 9.1882 6.00002 7.19998C6.00002 5.21175 7.6118 3.59998 9.60002 3.59998C11.5882 3.59998 13.2 5.21175 13.2 7.19998Z" fill="#687782"/>
<path d="M16.8 20.4C16.8 16.4235 13.5765 13.2 9.60002 13.2C5.62357 13.2 2.40002 16.4235 2.40002 20.4H16.8Z" fill="#687782"/>
<path d="M15.6 9.59998C14.9373 9.59998 14.4 10.1372 14.4 10.8C14.4 11.4627 14.9373 12 15.6 12H20.4C21.0628 12 21.6 11.4627 21.6 10.8C21.6 10.1372 21.0628 9.59998 20.4 9.59998H15.6Z" fill="#687782"/>
</svg>
