<svg width="24" height="24" viewBox="0 0 24 24" fill="none" xmlns="http://www.w3.org/2000/svg">
<path fill-rule="evenodd" clip-rule="evenodd" d="M21.6 12C21.6 17.302 17.3019 21.6 12 21.6C6.69807 21.6 2.4 17.302 2.4 12C2.4 6.69809 6.69807 2.40002 12 2.40002C17.3019 2.40002 21.6 6.69809 21.6 12ZM16.1719 17.8689C14.9949 18.707 13.555 19.2 12 19.2C8.02355 19.2 4.8 15.9765 4.8 12C4.8 10.445 5.29297 9.0051 6.13116 7.8281L16.1719 17.8689ZM17.869 16.1718L7.82825 6.13107C9.00521 5.29295 10.445 4.80002 12 4.80002C15.9765 4.80002 19.2 8.02357 19.2 12C19.2 13.555 18.7071 14.9948 17.869 16.1718Z" fill="#687782"/>
</svg>
