<svg width="24" height="24" viewBox="0 0 24 24" fill="none" xmlns="http://www.w3.org/2000/svg">
<path fill-rule="evenodd" clip-rule="evenodd" d="M21.6 12C21.6 17.302 17.3019 21.6 12 21.6C6.69806 21.6 2.39999 17.302 2.39999 12C2.39999 6.69809 6.69806 2.40002 12 2.40002C17.3019 2.40002 21.6 6.69809 21.6 12ZM13.2 16.8C13.2 17.4628 12.6627 18 12 18C11.3373 18 10.8 17.4628 10.8 16.8C10.8 16.1373 11.3373 15.6 12 15.6C12.6627 15.6 13.2 16.1373 13.2 16.8ZM12 6.00002C11.3373 6.00002 10.8 6.53728 10.8 7.20002V12C10.8 12.6628 11.3373 13.2 12 13.2C12.6627 13.2 13.2 12.6628 13.2 12V7.20002C13.2 6.53728 12.6627 6.00002 12 6.00002Z" fill="#687782"/>
</svg>
