<svg width="24" height="24" viewBox="0 0 24 24" fill="none" xmlns="http://www.w3.org/2000/svg">
<path d="M21.6733 11C21.6733 11.9941 20.8674 12.8 19.8733 12.8C18.8792 12.8 18.0733 11.9941 18.0733 11V3.8C18.0733 2.80589 18.8792 2 19.8733 2C20.8674 2 21.6733 2.80589 21.6733 3.8V11Z" fill="#687782"/>
<path d="M16.8733 11.2V4.68328C16.8733 3.77423 16.3597 2.9432 15.5466 2.53666L15.4868 2.50675C14.8203 2.1735 14.0853 2 13.3402 2H6.84081C5.69678 2 4.71178 2.8075 4.48742 3.92932L3.04742 11.1293C2.7504 12.6144 3.8863 14 5.40081 14H9.67329V18.8C9.67329 20.1255 10.7478 21.2 12.0733 21.2C12.736 21.2 13.2733 20.6627 13.2733 20V19.2C13.2733 18.1614 13.6101 17.1509 14.2333 16.32L15.9133 14.08C16.5364 13.2491 16.8733 12.2386 16.8733 11.2Z" fill="#687782"/>
</svg>
