<svg width="24" height="24" viewBox="0 0 24 24" fill="none" xmlns="http://www.w3.org/2000/svg">
<path fill-rule="evenodd" clip-rule="evenodd" d="M5.99998 2.40002C4.67449 2.40002 3.59998 3.47454 3.59998 4.80002V21.6L7.79997 19.2L12 21.6L16.2 19.2L20.4 21.6V4.80002C20.4 3.47454 19.3255 2.40002 18 2.40002H5.99998ZM8.99997 6.00002C8.00586 6.00002 7.19998 6.80591 7.19998 7.80002C7.19998 8.79414 8.00586 9.60002 8.99997 9.60002C9.99409 9.60002 10.8 8.79414 10.8 7.80002C10.8 6.80591 9.99409 6.00002 8.99997 6.00002ZM16.4485 6.3515C15.9799 5.88287 15.2201 5.88287 14.7514 6.3515L7.55145 13.5515C7.08282 14.0201 7.08282 14.7799 7.55145 15.2486C8.02008 15.7172 8.77987 15.7172 9.2485 15.2486L16.4485 8.04855C16.9171 7.57992 16.9171 6.82013 16.4485 6.3515ZM15 12C14.0059 12 13.2 12.8059 13.2 13.8C13.2 14.7941 14.0059 15.6 15 15.6C15.9941 15.6 16.8 14.7941 16.8 13.8C16.8 12.8059 15.9941 12 15 12Z" fill="#687782"/>
</svg>
