<svg width="24" height="24" viewBox="0 0 24 24" fill="none" xmlns="http://www.w3.org/2000/svg">
<path d="M4.80001 4.80002C4.80001 3.47454 5.87452 2.40002 7.20001 2.40002H12.703C13.3395 2.40002 13.9499 2.65288 14.4 3.10297L18.4971 7.20002C18.9472 7.65011 19.2 8.26056 19.2 8.89708V19.2C19.2 20.5255 18.1255 21.6 16.8 21.6H14.9667C16.1068 20.3262 16.8 18.6441 16.8 16.8C16.8 12.8236 13.5765 9.60002 9.60001 9.60002C7.75596 9.60002 6.07382 10.2933 4.80001 11.4334V4.80002Z" fill="#687782"/>
<path fill-rule="evenodd" clip-rule="evenodd" d="M9.60001 12C6.94904 12 4.80001 14.1491 4.80001 16.8C4.80001 17.6897 5.04276 18.5237 5.46477 19.2382L3.95148 20.7515C3.48285 21.2201 3.48285 21.9799 3.95148 22.4486C4.42011 22.9172 5.17991 22.9172 5.64853 22.4486L7.16182 20.9353C7.87635 21.3573 8.71034 21.6 9.60001 21.6C12.251 21.6 14.4 19.451 14.4 16.8C14.4 14.1491 12.251 12 9.60001 12ZM7.20001 16.8C7.20001 15.4745 8.27452 14.4 9.60001 14.4C10.9255 14.4 12 15.4745 12 16.8C12 18.1255 10.9255 19.2 9.60001 19.2C8.93693 19.2 8.33858 18.9327 7.90295 18.4971C7.46732 18.0615 7.20001 17.4631 7.20001 16.8Z" fill="#687782"/>
</svg>
