<svg width="24" height="24" viewBox="0 0 24 24" fill="none" xmlns="http://www.w3.org/2000/svg">
<path fill-rule="evenodd" clip-rule="evenodd" d="M7.19999 2.39999C5.8745 2.39999 4.79999 3.47451 4.79999 4.79999V19.2C4.79999 20.5255 5.8745 21.6 7.19999 21.6H16.8C18.1255 21.6 19.2 20.5255 19.2 19.2V8.89705C19.2 8.26053 18.9471 7.65008 18.497 7.19999L14.4 3.10294C13.9499 2.65285 13.3395 2.39999 12.7029 2.39999H7.19999ZM13.2 9.59999C13.2 8.93725 12.6627 8.39999 12 8.39999C11.3372 8.39999 10.8 8.93725 10.8 9.59999V13.9029L9.24852 12.3515C8.77989 11.8828 8.02009 11.8828 7.55146 12.3515C7.08283 12.8201 7.08283 13.5799 7.55146 14.0485L11.1515 17.6485C11.6201 18.1172 12.3799 18.1172 12.8485 17.6485L16.4485 14.0485C16.9171 13.5799 16.9171 12.8201 16.4485 12.3515C15.9799 11.8828 15.2201 11.8828 14.7515 12.3515L13.2 13.9029V9.59999Z" fill="#687782"/>
</svg>
