<svg width="24" height="24" viewBox="0 0 24 24" fill="none" xmlns="http://www.w3.org/2000/svg">
<path fill-rule="evenodd" clip-rule="evenodd" d="M7.19999 2.39999C5.8745 2.39999 4.79999 3.47451 4.79999 4.79999V19.2C4.79999 20.5255 5.8745 21.6 7.19999 21.6H16.8C18.1255 21.6 19.2 20.5255 19.2 19.2V8.89705C19.2 8.26053 18.9471 7.65008 18.497 7.19999L14.4 3.10294C13.9499 2.65285 13.3395 2.39999 12.7029 2.39999H7.19999ZM8.39999 12C7.73725 12 7.19999 12.5373 7.19999 13.2C7.19999 13.8627 7.73725 14.4 8.39999 14.4H15.6C16.2627 14.4 16.8 13.8627 16.8 13.2C16.8 12.5373 16.2627 12 15.6 12H8.39999Z" fill="#687782"/>
</svg>
