<svg width="24" height="24" viewBox="0 0 24 24" fill="none" xmlns="http://www.w3.org/2000/svg">
<path d="M10.12 8.9014C10.3057 8.77756 10.5352 8.66687 10.7999 8.5812L10.7999 10.6188C10.5352 10.5331 10.3057 10.4224 10.12 10.2986C9.68303 10.0073 9.5999 9.73668 9.5999 9.59999C9.5999 9.46331 9.68303 9.19269 10.12 8.9014Z" fill="#687782"/>
<path d="M13.1999 15.4188L13.1999 13.3812C13.4646 13.4669 13.6941 13.5776 13.8799 13.7014C14.3168 13.9927 14.3999 14.2633 14.3999 14.4C14.3999 14.5367 14.3168 14.8073 13.8799 15.0986C13.6941 15.2224 13.4647 15.3331 13.1999 15.4188Z" fill="#687782"/>
<path fill-rule="evenodd" clip-rule="evenodd" d="M11.9999 21.6C17.3018 21.6 21.5999 17.3019 21.5999 12C21.5999 6.69806 17.3018 2.39999 11.9999 2.39999C6.69797 2.39999 2.3999 6.69806 2.3999 12C2.3999 17.3019 6.69797 21.6 11.9999 21.6ZM13.1999 5.99999C13.1999 5.33725 12.6626 4.79999 11.9999 4.79999C11.3372 4.79999 10.7999 5.33725 10.7999 5.99999V6.11039C10.054 6.25047 9.36407 6.52088 8.78868 6.90448C7.92267 7.48182 7.1999 8.41119 7.1999 9.59999C7.1999 10.7888 7.92267 11.7182 8.78868 12.2955C9.36408 12.6791 10.054 12.9495 10.7999 13.0896L10.7999 15.4191C10.3307 15.2667 9.98291 15.0383 9.7879 14.8135C9.35356 14.313 8.59566 14.2593 8.09509 14.6936C7.59452 15.128 7.54083 15.8859 7.97518 16.3864C8.65017 17.1643 9.67137 17.677 10.7999 17.8892L10.7999 18C10.7999 18.6627 11.3371 19.2 11.9999 19.2C12.6626 19.2 13.1999 18.6628 13.1999 18L13.1999 17.8896C13.9458 17.7495 14.6357 17.4791 15.2112 17.0955C16.0772 16.5182 16.7999 15.5888 16.7999 14.4C16.7999 13.2112 16.0771 12.2818 15.2111 11.7045C14.6357 11.3209 13.9458 11.0505 13.1999 10.9104L13.1999 8.58089C13.6691 8.73324 14.0169 8.96171 14.2119 9.18645C14.6463 9.68702 15.4042 9.7407 15.9047 9.30636C16.4053 8.87201 16.459 8.11411 16.0246 7.61354C15.3497 6.83563 14.3284 6.32298 13.1999 6.11082V5.99999Z" fill="#687782"/>
</svg>
