<svg width="24" height="24" viewBox="0 0 24 24" fill="none" xmlns="http://www.w3.org/2000/svg">
<path d="M7.19999 12C7.19999 13.3255 6.12548 14.4 4.79999 14.4C3.47451 14.4 2.39999 13.3255 2.39999 12C2.39999 10.6745 3.47451 9.59998 4.79999 9.59998C6.12548 9.59998 7.19999 10.6745 7.19999 12Z" fill="#687782"/>
<path d="M14.4 12C14.4 13.3255 13.3255 14.4 12 14.4C10.6745 14.4 9.59999 13.3255 9.59999 12C9.59999 10.6745 10.6745 9.59998 12 9.59998C13.3255 9.59998 14.4 10.6745 14.4 12Z" fill="#687782"/>
<path d="M19.2 14.4C20.5255 14.4 21.6 13.3255 21.6 12C21.6 10.6745 20.5255 9.59998 19.2 9.59998C17.8745 9.59998 16.8 10.6745 16.8 12C16.8 13.3255 17.8745 14.4 19.2 14.4Z" fill="#687782"/>
</svg>
