<svg width="24" height="24" viewBox="0 0 24 24" fill="none" xmlns="http://www.w3.org/2000/svg">
<path fill-rule="evenodd" clip-rule="evenodd" d="M3.59998 20.4C3.59998 19.7373 4.13723 19.2 4.79998 19.2H19.2C19.8627 19.2 20.4 19.7373 20.4 20.4C20.4 21.0628 19.8627 21.6 19.2 21.6H4.79998C4.13723 21.6 3.59998 21.0628 3.59998 20.4ZM7.55145 11.1515C8.02008 10.6829 8.77987 10.6829 9.2485 11.1515L10.8 12.703L10.8 3.60002C10.8 2.93728 11.3372 2.40002 12 2.40002C12.6627 2.40002 13.2 2.93728 13.2 3.60002L13.2 12.703L14.7514 11.1515C15.2201 10.6829 15.9799 10.6829 16.4485 11.1515C16.9171 11.6201 16.9171 12.3799 16.4485 12.8486L12.8485 16.4486C12.6235 16.6736 12.3182 16.8 12 16.8C11.6817 16.8 11.3765 16.6736 11.1514 16.4486L7.55145 12.8486C7.08282 12.3799 7.08282 11.6201 7.55145 11.1515Z" fill="#687782"/>
</svg>
