<svg width="24" height="24" viewBox="0 0 24 24" fill="none" xmlns="http://www.w3.org/2000/svg">
<path d="M9.24855 12.3514C8.77992 11.8828 8.02012 11.8828 7.5515 12.3514C7.08287 12.8201 7.08287 13.5799 7.5515 14.0485L11.1515 17.6485C11.6201 18.1171 12.3799 18.1171 12.8486 17.6485L16.4486 14.0485C16.9172 13.5799 16.9172 12.8201 16.4486 12.3514C15.9799 11.8828 15.2201 11.8828 14.7515 12.3514L13.2 13.9029L13.2 7.19998H19.2C20.5255 7.19998 21.6 8.27449 21.6 9.59998V18C21.6 19.3255 20.5255 20.4 19.2 20.4H4.80002C3.47454 20.4 2.40002 19.3255 2.40002 18V9.59998C2.40002 8.27449 3.47454 7.19998 4.80002 7.19998H10.8V13.9029L9.24855 12.3514Z" fill="#687782"/>
<path d="M10.8 4.79998C10.8 4.13723 11.3373 3.59998 12 3.59998C12.6628 3.59998 13.2 4.13723 13.2 4.79998L13.2 7.19998H10.8L10.8 4.79998Z" fill="#687782"/>
</svg>
