<svg width="24" height="24" viewBox="0 0 24 24" fill="none" xmlns="http://www.w3.org/2000/svg">
<path d="M11.6486 8.7515C11.1799 8.28287 10.4201 8.28287 9.9515 8.7515C9.48287 9.22013 9.48287 9.97992 9.9515 10.4486L13.5515 14.0486C14.0201 14.5172 14.7799 14.5172 15.2486 14.0486L18.8486 10.4486C19.3172 9.97992 19.3172 9.22012 18.8486 8.7515C18.3799 8.28287 17.6201 8.28287 17.1515 8.7515L15.6 10.303L15.6 6.00002H19.2C20.5255 6.00002 21.6 7.07454 21.6 8.40002V14.4C21.6 15.7255 20.5255 16.8 19.2 16.8H9.60002C8.27454 16.8 7.20002 15.7255 7.20002 14.4V8.40002C7.20002 7.07454 8.27454 6.00002 9.60002 6.00002H13.2L13.2 10.303L11.6486 8.7515Z" fill="#687782"/>
<path d="M13.2 3.60002C13.2 2.93728 13.7373 2.40002 14.4 2.40002C15.0628 2.40002 15.6 2.93728 15.6 3.60002L15.6 6.00002H13.2L13.2 3.60002Z" fill="#687782"/>
<path d="M4.80002 10.8C3.47454 10.8 2.40002 11.8745 2.40002 13.2V19.2C2.40002 20.5255 3.47454 21.6 4.80002 21.6H14.4C15.7255 21.6 16.8 20.5255 16.8 19.2H4.80002V10.8Z" fill="#687782"/>
</svg>
