<svg width="24" height="24" viewBox="0 0 24 24" fill="none" xmlns="http://www.w3.org/2000/svg">
<path fill-rule="evenodd" clip-rule="evenodd" d="M4.80002 4.80005C3.47454 4.80005 2.40002 5.87457 2.40002 7.20005V16.8C2.40002 18.1255 3.47454 19.2 4.80002 19.2H19.2C20.5255 19.2 21.6 18.1255 21.6 16.8V9.60005C21.6 8.27457 20.5255 7.20005 19.2 7.20005H13.2L10.8 4.80005H4.80002ZM13.2 10.8C13.2 10.1373 12.6628 9.60005 12 9.60005C11.3373 9.60005 10.8 10.1373 10.8 10.8V12.703L10.4486 12.3515C9.97992 11.8829 9.22012 11.8829 8.7515 12.3515C8.28287 12.8201 8.28287 13.5799 8.7515 14.0486L11.1515 16.4486C11.6201 16.9172 12.3799 16.9172 12.8486 16.4486L15.2486 14.0486C15.7172 13.5799 15.7172 12.8201 15.2486 12.3515C14.7799 11.8829 14.0201 11.8829 13.5515 12.3515L13.2 12.703V10.8Z" fill="#687782"/>
</svg>
