<svg width="24" height="24" viewBox="0 0 24 24" fill="none" xmlns="http://www.w3.org/2000/svg">
<path fill-rule="evenodd" clip-rule="evenodd" d="M3.60001 3.59997C4.26275 3.59997 4.80001 4.13723 4.80001 4.79997L4.80001 19.2C4.80001 19.8627 4.26275 20.4 3.60001 20.4C2.93726 20.4 2.40001 19.8627 2.40001 19.2L2.40001 4.79997C2.40001 4.13723 2.93727 3.59997 3.60001 3.59997ZM12.8485 7.55145C13.3172 8.02008 13.3172 8.77987 12.8485 9.2485L11.2971 10.8L20.4 10.8C21.0627 10.8 21.6 11.3372 21.6 12C21.6 12.6627 21.0627 13.2 20.4 13.2L11.2971 13.2L12.8485 14.7514C13.3172 15.2201 13.3172 15.9799 12.8485 16.4485C12.3799 16.9171 11.6201 16.9171 11.1515 16.4485L7.55148 12.8485C7.32644 12.6235 7.20001 12.3182 7.20001 12C7.20001 11.6817 7.32644 11.3765 7.55148 11.1514L11.1515 7.55145C11.6201 7.08282 12.3799 7.08282 12.8485 7.55145Z" fill="#687782"/>
</svg>
