<svg width="24" height="24" viewBox="0 0 24 24" fill="none" xmlns="http://www.w3.org/2000/svg">
<path fill-rule="evenodd" clip-rule="evenodd" d="M11.9999 21.6C17.3018 21.6 21.5999 17.3019 21.5999 12C21.5999 6.69806 17.3018 2.39999 11.9999 2.39999C6.69797 2.39999 2.3999 6.69806 2.3999 12C2.3999 17.3019 6.69797 21.6 11.9999 21.6ZM10.4833 8.37475C11.0494 7.43124 11.6353 7.19999 11.9999 7.19999C12.3645 7.19999 12.9504 7.43124 13.5165 8.37475C13.8575 8.94304 14.5946 9.12732 15.1629 8.78634C15.7312 8.44537 15.9155 7.70825 15.5745 7.13996C14.7347 5.74032 13.478 4.79999 11.9999 4.79999C10.5219 4.79999 9.26511 5.74032 8.42533 7.13996C8.08349 7.70969 7.81697 8.33926 7.62106 8.99999H7.1999C6.53716 8.99999 5.9999 9.53725 5.9999 10.2C5.9999 10.8627 6.53716 11.4 7.1999 11.4H7.21595C7.20521 11.6004 7.1999 11.8006 7.1999 12C7.1999 12.1993 7.20521 12.3996 7.21595 12.6H7.1999C6.53716 12.6 5.9999 13.1373 5.9999 13.8C5.9999 14.4627 6.53716 15 7.1999 15H7.62106C7.81697 15.6607 8.08349 16.2903 8.42533 16.86C9.26511 18.2597 10.5219 19.2 11.9999 19.2C13.478 19.2 14.7347 18.2597 15.5745 16.86C15.9155 16.2917 15.7312 15.5546 15.1629 15.2136C14.5946 14.8727 13.8575 15.0569 13.5165 15.6252C12.9504 16.5687 12.3645 16.8 11.9999 16.8C11.6353 16.8 11.0494 16.5687 10.4833 15.6252C10.367 15.4314 10.2612 15.2221 10.1665 15H11.9999C12.6626 15 13.1999 14.4627 13.1999 13.8C13.1999 13.1373 12.6626 12.6 11.9999 12.6H9.62024C9.60676 12.402 9.5999 12.2017 9.5999 12C9.5999 11.7983 9.60676 11.598 9.62024 11.4H11.9999C12.6626 11.4 13.1999 10.8627 13.1999 10.2C13.1999 9.53725 12.6626 8.99999 11.9999 8.99999H10.1665C10.2612 8.77784 10.367 8.56855 10.4833 8.37475Z" fill="#687782"/>
</svg>
