<svg width="24" height="24" viewBox="0 0 24 24" fill="none" xmlns="http://www.w3.org/2000/svg">
<path d="M3.59999 3.59998C2.93725 3.59998 2.39999 4.13723 2.39999 4.79998V19.2C2.39999 19.8627 2.93725 20.4 3.59999 20.4C4.26274 20.4 4.79999 19.8627 4.79999 19.2V4.79998C4.79999 4.13723 4.26274 3.59998 3.59999 3.59998Z" fill="#687782"/>
<path d="M15.9515 14.7514C15.4828 15.2201 15.4828 15.9799 15.9515 16.4485C16.4201 16.9171 17.1799 16.9171 17.6485 16.4485L21.2485 12.8485C21.4736 12.6235 21.6 12.3182 21.6 12C21.6 11.6817 21.4736 11.3765 21.2485 11.1514L17.6485 7.55145C17.1799 7.08282 16.4201 7.08282 15.9515 7.55145C15.4828 8.02008 15.4828 8.77987 15.9515 9.2485L17.5029 10.8L8.39999 10.8C7.73725 10.8 7.19999 11.3372 7.19999 12C7.19999 12.6627 7.73725 13.2 8.39999 13.2H17.5029L15.9515 14.7514Z" fill="#687782"/>
</svg>
