<svg width="24" height="24" viewBox="0 0 24 24" fill="none" xmlns="http://www.w3.org/2000/svg">
<path fill-rule="evenodd" clip-rule="evenodd" d="M3.59998 4.79998C3.59998 4.13723 4.13723 3.59998 4.79998 3.59998H9.59998C10.2627 3.59998 10.8 4.13723 10.8 4.79998C10.8 5.46272 10.2627 5.99998 9.59998 5.99998H7.69703L10.4485 8.75145C10.9171 9.22008 10.9171 9.97988 10.4485 10.4485C9.97988 10.9171 9.22008 10.9171 8.75145 10.4485L5.99998 7.69703V9.59998C5.99998 10.2627 5.46272 10.8 4.79998 10.8C4.13723 10.8 3.59998 10.2627 3.59998 9.59998V4.79998ZM14.4 5.99998C13.7372 5.99998 13.2 5.46272 13.2 4.79998C13.2 4.13723 13.7372 3.59998 14.4 3.59998H19.2C19.8627 3.59998 20.4 4.13723 20.4 4.79998V9.59998C20.4 10.2627 19.8627 10.8 19.2 10.8C18.5372 10.8 18 10.2627 18 9.59998V7.69703L15.2485 10.4485C14.7799 10.9171 14.0201 10.9171 13.5514 10.4485C13.0828 9.97988 13.0828 9.22008 13.5514 8.75145L16.3029 5.99998H14.4ZM3.59998 14.4C3.59998 13.7372 4.13723 13.2 4.79998 13.2C5.46272 13.2 5.99998 13.7372 5.99998 14.4V16.3029L8.75145 13.5514C9.22008 13.0828 9.97988 13.0828 10.4485 13.5514C10.9171 14.0201 10.9171 14.7799 10.4485 15.2485L7.69703 18H9.59998C10.2627 18 10.8 18.5372 10.8 19.2C10.8 19.8627 10.2627 20.4 9.59998 20.4H4.79998C4.13723 20.4 3.59998 19.8627 3.59998 19.2V14.4ZM19.2 13.2C19.8627 13.2 20.4 13.7372 20.4 14.4V19.2C20.4 19.8627 19.8627 20.4 19.2 20.4H14.4C13.7372 20.4 13.2 19.8627 13.2 19.2C13.2 18.5372 13.7372 18 14.4 18H16.3029L13.5514 15.2485C13.0828 14.7799 13.0828 14.0201 13.5514 13.5514C14.0201 13.0828 14.7799 13.0828 15.2485 13.5514L18 16.3029V14.4C18 13.7372 18.5372 13.2 19.2 13.2Z" fill="#687782"/>
</svg>
