<svg width="24" height="24" viewBox="0 0 24 24" fill="none" xmlns="http://www.w3.org/2000/svg">
<path fill-rule="evenodd" clip-rule="evenodd" d="M12 21.6C17.302 21.6 21.6 17.302 21.6 12C21.6 6.69809 17.302 2.40002 12 2.40002C6.69809 2.40002 2.40002 6.69809 2.40002 12C2.40002 17.302 6.69809 21.6 12 21.6ZM8.40002 10.8C9.06277 10.8 9.60002 10.2628 9.60002 9.60002C9.60002 8.93728 9.06277 8.40002 8.40002 8.40002C7.73728 8.40002 7.20002 8.93728 7.20002 9.60002C7.20002 10.2628 7.73728 10.8 8.40002 10.8ZM16.8 9.60002C16.8 10.2628 16.2628 10.8 15.6 10.8C14.9373 10.8 14.4 10.2628 14.4 9.60002C14.4 8.93728 14.9373 8.40002 15.6 8.40002C16.2628 8.40002 16.8 8.93728 16.8 9.60002ZM7.75738 16.6542C8.22601 17.1228 8.98581 17.1228 9.45444 16.6542C10.8603 15.2483 13.1397 15.2483 14.5456 16.6542C15.0142 17.1228 15.774 17.1228 16.2427 16.6542C16.7113 16.1855 16.7113 15.4257 16.2427 14.9571C13.8995 12.614 10.1005 12.614 7.75738 14.9571C7.28875 15.4257 7.28875 16.1855 7.75738 16.6542Z" fill="#687782"/>
</svg>
