<svg width="24" height="24" viewBox="0 0 24 24" fill="none" xmlns="http://www.w3.org/2000/svg">
<path fill-rule="evenodd" clip-rule="evenodd" d="M12 21.6C17.302 21.6 21.6 17.302 21.6 12C21.6 6.69809 17.302 2.40002 12 2.40002C6.69809 2.40002 2.40002 6.69809 2.40002 12C2.40002 17.302 6.69809 21.6 12 21.6ZM8.40002 10.8C9.06277 10.8 9.60002 10.2628 9.60002 9.60002C9.60002 8.93728 9.06277 8.40002 8.40002 8.40002C7.73728 8.40002 7.20002 8.93728 7.20002 9.60002C7.20002 10.2628 7.73728 10.8 8.40002 10.8ZM16.8 9.60002C16.8 10.2628 16.2628 10.8 15.6 10.8C14.9373 10.8 14.4 10.2628 14.4 9.60002C14.4 8.93728 14.9373 8.40002 15.6 8.40002C16.2628 8.40002 16.8 8.93728 16.8 9.60002ZM16.2427 16.2426C16.7113 15.7739 16.7113 15.0141 16.2427 14.5455C15.774 14.0769 15.0142 14.0769 14.5456 14.5455C13.1397 15.9514 10.8603 15.9514 9.45444 14.5455C8.98581 14.0769 8.22601 14.0769 7.75738 14.5455C7.28875 15.0141 7.28875 15.7739 7.75738 16.2426C10.1005 18.5857 13.8995 18.5857 16.2427 16.2426Z" fill="#687782"/>
</svg>
