<svg width="24" height="24" viewBox="0 0 24 24" fill="none" xmlns="http://www.w3.org/2000/svg">
<path d="M5.46562 6.20154C5.09739 5.95606 4.62394 5.93317 4.23375 6.14199C3.84356 6.35082 3.59998 6.75745 3.59998 7.2V16.8C3.59998 17.2426 3.84356 17.6492 4.23375 17.858C4.62394 18.0668 5.09739 18.0439 5.46562 17.7985L12 13.4422V16.8C12 17.2426 12.2436 17.6492 12.6337 17.858C13.0239 18.0668 13.4974 18.0439 13.8656 17.7985L21.0656 12.9985C21.3995 12.7759 21.6 12.4012 21.6 12C21.6 11.5988 21.3995 11.2241 21.0656 11.0015L13.8656 6.20154C13.4974 5.95606 13.0239 5.93317 12.6337 6.14199C12.2436 6.35082 12 6.75745 12 7.2V10.5578L5.46562 6.20154Z" fill="#687782"/>
</svg>
