<svg width="24" height="24" viewBox="0 0 24 24" fill="none" xmlns="http://www.w3.org/2000/svg">
<path fill-rule="evenodd" clip-rule="evenodd" d="M4.79999 4.80002C4.79999 3.47454 5.8745 2.40002 7.19999 2.40002H12.7029C13.3395 2.40002 13.9499 2.65288 14.4 3.10297L18.497 7.20002C18.9471 7.65011 19.2 8.26056 19.2 8.89708V19.2C19.2 20.5255 18.1255 21.6 16.8 21.6H7.19999C5.8745 21.6 4.79999 20.5255 4.79999 19.2V4.80002ZM7.19999 12C7.19999 11.3373 7.73725 10.8 8.39999 10.8H15.6C16.2627 10.8 16.8 11.3373 16.8 12C16.8 12.6628 16.2627 13.2 15.6 13.2H8.39999C7.73725 13.2 7.19999 12.6628 7.19999 12ZM8.39999 15.6C7.73725 15.6 7.19999 16.1373 7.19999 16.8C7.19999 17.4628 7.73725 18 8.39999 18H15.6C16.2627 18 16.8 17.4628 16.8 16.8C16.8 16.1373 16.2627 15.6 15.6 15.6H8.39999Z" fill="#687782"/>
</svg>
