<svg width="24" height="24" viewBox="0 0 24 24" fill="none" xmlns="http://www.w3.org/2000/svg">
<path fill-rule="evenodd" clip-rule="evenodd" d="M7.94975 3.18552C9.20209 2.67859 10.57 2.40002 12 2.40002C17.9647 2.40002 22.8 7.23535 22.8 13.2C22.8 13.8628 22.2628 14.4 21.6 14.4C20.9373 14.4 20.4 13.8628 20.4 13.2C20.4 8.56083 16.6392 4.80002 12 4.80002C10.8839 4.80002 9.82137 5.01708 8.85027 5.41017C8.23595 5.65884 7.53636 5.36242 7.28769 4.7481C7.03902 4.13378 7.33543 3.43419 7.94975 3.18552ZM5.59409 5.95036C6.09098 6.38892 6.13826 7.14724 5.6997 7.64413C4.39209 9.12563 3.60001 11.0689 3.60001 13.2C3.60001 13.8628 3.06275 14.4 2.40001 14.4C1.73727 14.4 1.20001 13.8628 1.20001 13.2C1.20001 10.4618 2.22058 7.9591 3.90033 6.05597C4.33888 5.55908 5.09721 5.5118 5.59409 5.95036Z" fill="#687782"/>
<path fill-rule="evenodd" clip-rule="evenodd" d="M6.00001 13.2C6.00001 9.88632 8.6863 7.20002 12 7.20002C15.3137 7.20002 18 9.88632 18 13.2C18 13.8628 17.4628 14.4 16.8 14.4C16.1373 14.4 15.6 13.8628 15.6 13.2C15.6 11.2118 13.9882 9.60002 12 9.60002C10.0118 9.60002 8.40001 11.2118 8.40001 13.2C8.40001 15.2126 7.98643 17.1317 7.23849 18.8745C6.97712 19.4836 6.27153 19.7654 5.6625 19.504C5.05347 19.2427 4.77164 18.5371 5.03301 17.9281C5.65498 16.4787 6.00001 14.8812 6.00001 13.2ZM16.7054 15.6148C17.36 15.7187 17.8064 16.3335 17.7026 16.988C17.5446 17.984 17.3253 18.9598 17.0487 19.9113C16.8637 20.5477 16.1978 20.9137 15.5614 20.7287C14.925 20.5436 14.5591 19.8778 14.7441 19.2414C14.9928 18.3858 15.1901 17.5082 15.3322 16.612C15.436 15.9575 16.0508 15.511 16.7054 15.6148Z" fill="#687782"/>
<path fill-rule="evenodd" clip-rule="evenodd" d="M12 12C12.6628 12 13.2 12.5373 13.2 13.2C13.2 15.8836 12.6488 18.4415 11.6522 20.7643C11.3909 21.3733 10.6853 21.6552 10.0763 21.3939C9.4672 21.1326 9.1853 20.427 9.44661 19.818C10.3173 17.7887 10.8 15.5523 10.8 13.2C10.8 12.5373 11.3373 12 12 12Z" fill="#687782"/>
</svg>
