<svg width="24" height="24" viewBox="0 0 24 24" fill="none" xmlns="http://www.w3.org/2000/svg">
<path fill-rule="evenodd" clip-rule="evenodd" d="M14.1081 2.44023C14.4408 2.52858 14.7195 2.75551 14.8734 3.06337C15.4537 4.22392 15.8868 4.92829 16.3225 5.49938C16.7635 6.07746 17.23 6.55069 17.9397 7.26036C19.5797 8.90033 20.4 11.0522 20.4 13.2001C20.4 15.348 19.5797 17.4998 17.9397 19.1398C14.6593 22.4202 9.34071 22.4202 6.06031 19.1398C4.42034 17.4998 3.60001 15.348 3.60001 13.2001C3.6 11.0522 4.42034 8.90033 6.06031 7.26036C6.40351 6.91716 6.91965 6.81449 7.36806 7.00023C7.81647 7.18597 8.10884 7.62353 8.10884 8.10889C8.10884 9.45266 8.19275 10.4766 8.58578 11.2933C8.8019 11.7423 9.13903 12.1814 9.72006 12.5732C9.85883 11.3003 10.113 9.7494 10.4565 8.27735C10.7269 7.11837 11.0633 5.9613 11.4636 4.99642C11.6638 4.51381 11.8903 4.05427 12.1474 3.65751C12.3977 3.27132 12.7194 2.87832 13.1345 2.60157C13.4209 2.41064 13.7755 2.35189 14.1081 2.44023ZM14.5456 18.1456C13.1397 19.5515 10.8603 19.5515 9.45442 18.1456C8.75148 17.4427 8.40001 16.5214 8.40001 15.6C8.40001 15.6 9.45442 16.2 11.4001 16.2C11.4001 15 12.0001 11.4 12.9001 10.8C13.5001 12 13.8426 12.3515 14.5456 13.0544C15.2485 13.7574 15.6 14.6787 15.6 15.6C15.6 16.5214 15.2485 17.4427 14.5456 18.1456Z" fill="#687782"/>
</svg>
