<svg width="24" height="24" viewBox="0 0 24 24" fill="none" xmlns="http://www.w3.org/2000/svg">
<path fill-rule="evenodd" clip-rule="evenodd" d="M3.59998 7.19998C3.59998 5.21175 5.21175 3.59998 7.19998 3.59998H19.2C19.6545 3.59998 20.07 3.85678 20.2733 4.26332C20.4766 4.66986 20.4327 5.15635 20.16 5.51998L17.1 9.59998L20.16 13.68C20.4327 14.0436 20.4766 14.5301 20.2733 14.9366C20.07 15.3432 19.6545 15.6 19.2 15.6H7.19998C6.53723 15.6 5.99998 16.1372 5.99998 16.8V20.4C5.99998 21.0627 5.46272 21.6 4.79998 21.6C4.13723 21.6 3.59998 21.0627 3.59998 20.4V7.19998Z" fill="#687782"/>
</svg>
