<svg width="24" height="24" viewBox="0 0 24 24" fill="none" xmlns="http://www.w3.org/2000/svg">
<path fill-rule="evenodd" clip-rule="evenodd" d="M13.5608 1.25555C14.0603 1.41302 14.4 1.87627 14.4 2.40004V8.40004L19.2 8.40004C19.6475 8.40004 20.0577 8.64899 20.2644 9.04587C20.471 9.44275 20.4397 9.92163 20.1831 10.2882L11.7831 22.2882C11.4827 22.7173 10.9388 22.902 10.4392 22.7445C9.93971 22.5871 9.60001 22.1238 9.60001 21.6L9.60001 15.6H4.80001C4.35256 15.6 3.94227 15.3511 3.73564 14.9542C3.529 14.5573 3.56034 14.0784 3.81693 13.7119L12.2169 1.71188C12.5173 1.2828 13.0612 1.09809 13.5608 1.25555Z" fill="#687782"/>
</svg>
