<svg width="24" height="24" viewBox="0 0 24 24" fill="none" xmlns="http://www.w3.org/2000/svg">
<path fill-rule="evenodd" clip-rule="evenodd" d="M4.80002 4.80005C3.47454 4.80005 2.40002 5.87457 2.40002 7.20005V16.8C2.40002 18.1255 3.47454 19.2 4.80002 19.2H19.2C20.5255 19.2 21.6 18.1255 21.6 16.8V9.60005C21.6 8.27457 20.5255 7.20005 19.2 7.20005H13.2L10.8 4.80005H4.80002ZM9.60002 12C8.93728 12 8.40002 12.5373 8.40002 13.2C8.40002 13.8628 8.93728 14.4 9.60002 14.4H14.4C15.0628 14.4 15.6 13.8628 15.6 13.2C15.6 12.5373 15.0628 12 14.4 12H9.60002Z" fill="#687782"/>
</svg>
