<svg width="24" height="24" viewBox="0 0 24 24" fill="none" xmlns="http://www.w3.org/2000/svg">
<path fill-rule="evenodd" clip-rule="evenodd" d="M2.40002 7.20005C2.40002 5.87457 3.47454 4.80005 4.80002 4.80005H9.60002L12 7.20005H16.8C18.1255 7.20005 19.2 8.27457 19.2 9.60005V10.8H9.60002C7.6118 10.8 6.00002 12.4118 6.00002 14.4V16.2C6.00002 17.1942 5.19414 18 4.20002 18C3.20591 18 2.40002 17.1941 2.40002 16.2V7.20005Z" fill="#687782"/>
<path d="M7.20002 14.4C7.20002 13.0746 8.27454 12 9.60002 12H19.2C20.5255 12 21.6 13.0746 21.6 14.4V16.8C21.6 18.1255 20.5255 19.2 19.2 19.2H2.40002H4.80002C6.12551 19.2 7.20002 18.1255 7.20002 16.8V14.4Z" fill="#687782"/>
</svg>
