<svg width="24" height="24" viewBox="0 0 24 24" fill="none" xmlns="http://www.w3.org/2000/svg">
<path fill-rule="evenodd" clip-rule="evenodd" d="M5.99999 6.00002C5.99999 4.0118 7.61177 2.40002 9.59999 2.40002C10.522 2.40002 11.3631 2.74665 12 3.3167C12.6369 2.74665 13.478 2.40002 14.4 2.40002C16.3882 2.40002 18 4.0118 18 6.00002C18 6.42079 17.9278 6.82469 17.7951 7.20002H19.2C20.5255 7.20002 21.6 8.27454 21.6 9.60002C21.6 10.9255 20.5255 12 19.2 12H13.2V10.8C13.2 10.1373 12.6627 9.60002 12 9.60002C11.3373 9.60002 10.8 10.1373 10.8 10.8V12H4.79999C3.47451 12 2.39999 10.9255 2.39999 9.60002C2.39999 8.27454 3.47451 7.20002 4.79999 7.20002H6.20484C6.07218 6.82469 5.99999 6.42079 5.99999 6.00002ZM10.8 7.20002V6.00002C10.8 5.33728 10.2627 4.80002 9.59999 4.80002C8.93725 4.80002 8.39999 5.33728 8.39999 6.00002C8.39999 6.66277 8.93725 7.20002 9.59999 7.20002H10.8ZM14.4 7.20002C15.0627 7.20002 15.6 6.66277 15.6 6.00002C15.6 5.33728 15.0627 4.80002 14.4 4.80002C13.7373 4.80002 13.2 5.33728 13.2 6.00002V7.20002H14.4Z" fill="#687782"/>
<path d="M10.8 13.2H3.59999V19.2C3.59999 20.5255 4.67451 21.6 5.99999 21.6H10.8V13.2Z" fill="#687782"/>
<path d="M13.2 21.6H18C19.3255 21.6 20.4 20.5255 20.4 19.2V13.2H13.2V21.6Z" fill="#687782"/>
</svg>
