<svg width="24" height="24" viewBox="0 0 24 24" fill="none" xmlns="http://www.w3.org/2000/svg">
<path d="M3.6 4.79998C3.6 4.13723 4.13726 3.59998 4.8 3.59998H19.2C19.8627 3.59998 20.4 4.13723 20.4 4.79998V7.19998C20.4 7.86272 19.8627 8.39998 19.2 8.39998H4.8C4.13726 8.39998 3.6 7.86272 3.6 7.19998V4.79998Z" fill="#687782"/>
<path d="M3.6 12C3.6 11.3372 4.13726 10.8 4.8 10.8H12C12.6627 10.8 13.2 11.3372 13.2 12V19.2C13.2 19.8627 12.6627 20.4 12 20.4H4.8C4.13726 20.4 3.6 19.8627 3.6 19.2V12Z" fill="#687782"/>
<path d="M16.8 10.8C16.1373 10.8 15.6 11.3372 15.6 12V19.2C15.6 19.8627 16.1373 20.4 16.8 20.4H19.2C19.8627 20.4 20.4 19.8627 20.4 19.2V12C20.4 11.3372 19.8627 10.8 19.2 10.8H16.8Z" fill="#687782"/>
</svg>
