<svg width="24" height="24" viewBox="0 0 24 24" fill="none" xmlns="http://www.w3.org/2000/svg">
<path d="M10.8 3.60002C10.8 2.93728 11.3372 2.40002 12 2.40002C12.6627 2.40002 13.2 2.93728 13.2 3.60002V10.2C13.2 10.5314 13.4686 10.8 13.8 10.8C14.1313 10.8 14.4 10.5314 14.4 10.2V4.80002C14.4 4.13728 14.9372 3.60002 15.6 3.60002C16.2627 3.60002 16.8 4.13728 16.8 4.80002V10.2C16.8 10.5314 17.0686 10.8 17.4 10.8C17.7313 10.8 18 10.5314 18 10.2V7.20002C18 6.53728 18.5372 6.00002 19.2 6.00002C19.8627 6.00002 20.4 6.53728 20.4 7.20002V13.2C20.4 17.8392 16.6392 21.6 12 21.6C7.36078 21.6 3.59998 17.8392 3.59998 13.2V10.8C3.59998 10.1373 4.13723 9.60002 4.79998 9.60002C5.46272 9.60002 5.99998 10.1373 5.99998 10.8V13.8C5.99998 14.1314 6.2686 14.4 6.59998 14.4C6.93135 14.4 7.19998 14.1314 7.19998 13.8V4.80002C7.19998 4.13728 7.73723 3.60002 8.39998 3.60002C9.06272 3.60002 9.59998 4.13728 9.59998 4.80002V10.2C9.59998 10.5314 9.86861 10.8 10.2 10.8C10.5313 10.8 10.8 10.5314 10.8 10.2V3.60002Z" fill="#687782"/>
</svg>
