<svg width="24" height="24" viewBox="0 0 24 24" fill="none" xmlns="http://www.w3.org/2000/svg">
<path fill-rule="evenodd" clip-rule="evenodd" d="M11.091 3.63584C11.734 3.79658 12.1249 4.4481 11.9642 5.09106L11.4369 7.20002H14.9631L15.6358 4.50897C15.7966 3.86602 16.4481 3.47511 17.091 3.63584C17.734 3.79658 18.1249 4.4481 17.9642 5.09106L17.4369 7.20002H20.4C21.0627 7.20002 21.6 7.73727 21.6 8.40002C21.6 9.06276 21.0627 9.60002 20.4 9.60002H16.8369L15.6369 14.4H18C18.6627 14.4 19.2 14.9373 19.2 15.6C19.2 16.2628 18.6627 16.8 18 16.8H15.0369L14.3642 19.4911C14.2034 20.134 13.5519 20.5249 12.909 20.3642C12.266 20.2035 11.8751 19.5519 12.0358 18.909L12.5631 16.8H9.03693L8.36416 19.4911C8.20343 20.134 7.5519 20.5249 6.90895 20.3642C6.266 20.2035 5.87508 19.5519 6.03582 18.909L6.56306 16.8H3.59999C2.93725 16.8 2.39999 16.2628 2.39999 15.6C2.39999 14.9373 2.93725 14.4 3.59999 14.4H7.16306L8.36306 9.60002H5.99999C5.33725 9.60002 4.79999 9.06276 4.79999 8.40002C4.79999 7.73727 5.33725 7.20002 5.99999 7.20002H8.96306L9.63582 4.50897C9.79656 3.86602 10.4481 3.47511 11.091 3.63584ZM10.8369 9.60002L9.63693 14.4H13.1631L14.3631 9.60002H10.8369Z" fill="#687782"/>
</svg>
