<svg width="24" height="24" viewBox="0 0 24 24" fill="none" xmlns="http://www.w3.org/2000/svg">
<path fill-rule="evenodd" clip-rule="evenodd" d="M21.6 12C21.6 17.302 17.302 21.6 12 21.6C6.69809 21.6 2.40002 17.302 2.40002 12C2.40002 6.69809 6.69809 2.40002 12 2.40002C17.302 2.40002 21.6 6.69809 21.6 12ZM12 8.40002C11.5574 8.40002 11.1691 8.63908 10.9598 9.0009C10.628 9.57457 9.89392 9.7706 9.32025 9.43875C8.74657 9.1069 8.55054 8.37283 8.88239 7.79915C9.50304 6.72624 10.666 6.00002 12 6.00002C13.9883 6.00002 15.6 7.6118 15.6 9.60002C15.6 11.1675 14.5983 12.501 13.2 12.9952V13.2C13.2 13.8628 12.6628 14.4 12 14.4C11.3373 14.4 10.8 13.8628 10.8 13.2V12C10.8 11.3373 11.3373 10.8 12 10.8C12.6628 10.8 13.2 10.2628 13.2 9.60002C13.2 8.93728 12.6628 8.40002 12 8.40002ZM12 18C12.6628 18 13.2 17.4628 13.2 16.8C13.2 16.1373 12.6628 15.6 12 15.6C11.3373 15.6 10.8 16.1373 10.8 16.8C10.8 17.4628 11.3373 18 12 18Z" fill="#687782"/>
</svg>
