<svg width="24" height="24" viewBox="0 0 24 24" fill="none" xmlns="http://www.w3.org/2000/svg">
<path fill-rule="evenodd" clip-rule="evenodd" d="M4.44853 2.7515C3.9799 2.28287 3.2201 2.28287 2.75147 2.7515C2.28284 3.22013 2.28284 3.97992 2.75147 4.44855L19.5515 21.2486C20.0201 21.7172 20.7799 21.7172 21.2485 21.2486C21.7172 20.7799 21.7172 20.0201 21.2485 19.5515L19.4807 17.7837C21.3258 16.3109 22.7268 14.3053 23.4509 12C21.9218 7.13148 17.3734 3.60002 12.0003 3.60002C10.052 3.60002 8.21213 4.06433 6.58535 4.88831L4.44853 2.7515ZM9.56175 7.86472L11.3784 9.68138C11.5768 9.62832 11.7852 9.60002 12.0003 9.60002C13.3258 9.60002 14.4003 10.6745 14.4003 12C14.4003 12.2151 14.372 12.4236 14.3189 12.6219L16.1356 14.4386C16.5579 13.7239 16.8003 12.8903 16.8003 12C16.8003 9.34906 14.6513 7.20002 12.0003 7.20002C11.1101 7.20002 10.2764 7.44238 9.56175 7.86472Z" fill="#687782"/>
<path d="M14.9449 20.0361L11.6996 16.7908C9.28816 16.6417 7.35864 14.7122 7.20957 12.3007L2.80191 7.89308C1.80076 9.0867 1.02764 10.478 0.54961 12.0001C2.07874 16.8686 6.62708 20.4 12.0002 20.4C13.0162 20.4 14.0027 20.2738 14.9449 20.0361Z" fill="#687782"/>
</svg>
