<svg width="24" height="24" viewBox="0 0 24 24" fill="none" xmlns="http://www.w3.org/2000/svg">
<path d="M12.8486 2.7515C12.3799 2.28287 11.6201 2.28287 11.1515 2.7515L2.7515 11.1515C2.28287 11.6201 2.28287 12.3799 2.7515 12.8486C3.22013 13.3172 3.97992 13.3172 4.44855 12.8486L4.80002 12.4971V20.4C4.80002 21.0628 5.33728 21.6 6.00002 21.6H8.40002C9.06277 21.6 9.60002 21.0628 9.60002 20.4V18C9.60002 17.3373 10.1373 16.8 10.8 16.8H13.2C13.8628 16.8 14.4 17.3373 14.4 18V20.4C14.4 21.0628 14.9373 21.6 15.6 21.6H18C18.6628 21.6 19.2 21.0628 19.2 20.4V12.4971L19.5515 12.8486C20.0201 13.3172 20.7799 13.3172 21.2486 12.8486C21.7172 12.3799 21.7172 11.6201 21.2486 11.1515L12.8486 2.7515Z" fill="#687782"/>
</svg>
