<svg width="24" height="24" viewBox="0 0 24 24" fill="none" xmlns="http://www.w3.org/2000/svg">
<path fill-rule="evenodd" clip-rule="evenodd" d="M21.6 9.60002C21.6 13.5765 18.3764 16.8 14.4 16.8C13.6726 16.8 12.9704 16.6922 12.3085 16.4915L9.59999 19.2H7.19999V21.6H2.39999V16.8L7.50848 11.6915C7.30786 11.0296 7.19999 10.3274 7.19999 9.60002C7.19999 5.62357 10.4235 2.40002 14.4 2.40002C18.3764 2.40002 21.6 5.62357 21.6 9.60002ZM14.4 4.80002C13.7373 4.80002 13.2 5.33728 13.2 6.00002C13.2 6.66277 13.7373 7.20002 14.4 7.20002C15.7255 7.20002 16.8 8.27454 16.8 9.60002C16.8 10.2628 17.3373 10.8 18 10.8C18.6627 10.8 19.2 10.2628 19.2 9.60002C19.2 6.94906 17.051 4.80002 14.4 4.80002Z" fill="#687782"/>
</svg>
