<svg width="24" height="24" viewBox="0 0 24 24" fill="none" xmlns="http://www.w3.org/2000/svg">
<path fill-rule="evenodd" clip-rule="evenodd" d="M21.6 12C21.6 17.302 17.302 21.6 12 21.6C6.69809 21.6 2.40002 17.302 2.40002 12C2.40002 6.69809 6.69809 2.40002 12 2.40002C17.302 2.40002 21.6 6.69809 21.6 12ZM19.2 12C19.2 13.1912 18.9108 14.3147 18.3987 15.3044L16.5692 13.4749C16.7191 13.0102 16.8 12.5146 16.8 12C16.8 11.6057 16.7525 11.2224 16.6628 10.8557L18.5381 8.98034C18.963 9.89869 19.2 10.9217 19.2 12ZM13.0015 16.6954L14.8988 18.5927C14.0119 18.9832 13.0313 19.2 12 19.2C10.9217 19.2 9.89869 18.963 8.98034 18.5381L10.8557 16.6628C11.2224 16.7525 11.6057 16.8 12 16.8C12.3435 16.8 12.6785 16.764 13.0015 16.6954ZM7.38971 13.3405C7.26622 12.9151 7.20002 12.4653 7.20002 12C7.20002 11.6017 7.24854 11.2147 7.33998 10.8447L7.24539 10.9393L5.40736 9.10125C5.01684 9.98814 4.80002 10.9688 4.80002 12C4.80002 13.1447 5.06712 14.2269 5.54239 15.1878L7.38971 13.3405ZM8.69569 5.60135C9.68531 5.08927 10.8089 4.80002 12 4.80002C13.1447 4.80002 14.2269 5.06712 15.1878 5.54239L13.3405 7.38971C12.9151 7.26622 12.4653 7.20002 12 7.20002C11.4855 7.20002 10.9899 7.28098 10.5252 7.43086L8.69569 5.60135ZM14.4 12C14.4 13.3255 13.3255 14.4 12 14.4C10.6745 14.4 9.60002 13.3255 9.60002 12C9.60002 10.6745 10.6745 9.60002 12 9.60002C13.3255 9.60002 14.4 10.6745 14.4 12Z" fill="#687782"/>
</svg>
