<svg width="24" height="24" viewBox="0 0 24 24" fill="none" xmlns="http://www.w3.org/2000/svg">
<path d="M13.2 3.60002C13.2 2.93728 12.6628 2.40002 12 2.40002C11.3373 2.40002 10.8 2.93728 10.8 3.60002V4.80002C10.8 5.46277 11.3373 6.00002 12 6.00002C12.6628 6.00002 13.2 5.46277 13.2 4.80002V3.60002Z" fill="#687782"/>
<path d="M18.7882 6.90879C19.2568 6.44016 19.2568 5.68036 18.7882 5.21174C18.3196 4.74311 17.5598 4.74311 17.0911 5.21174L16.2426 6.06026C15.774 6.52889 15.774 7.28869 16.2426 7.75732C16.7112 8.22595 17.471 8.22595 17.9397 7.75732L18.7882 6.90879Z" fill="#687782"/>
<path d="M21.6 12C21.6 12.6628 21.0628 13.2 20.4 13.2H19.2C18.5373 13.2 18 12.6628 18 12C18 11.3373 18.5373 10.8 19.2 10.8H20.4C21.0628 10.8 21.6 11.3373 21.6 12Z" fill="#687782"/>
<path d="M6.06025 7.75734C6.52888 8.22597 7.28868 8.22597 7.75731 7.75734C8.22594 7.28871 8.22594 6.52891 7.75731 6.06029L6.90878 5.21176C6.44015 4.74313 5.68035 4.74313 5.21172 5.21176C4.74309 5.68039 4.74309 6.44018 5.21172 6.90881L6.06025 7.75734Z" fill="#687782"/>
<path d="M6.00002 12C6.00002 12.6628 5.46277 13.2 4.80002 13.2H3.60002C2.93728 13.2 2.40002 12.6628 2.40002 12C2.40002 11.3373 2.93728 10.8 3.60002 10.8H4.80002C5.46277 10.8 6.00002 11.3373 6.00002 12Z" fill="#687782"/>
<path d="M9.60002 19.2V18H14.4V19.2C14.4 20.5255 13.3255 21.6 12 21.6C10.6745 21.6 9.60002 20.5255 9.60002 19.2Z" fill="#687782"/>
<path d="M14.4011 16.8C14.4186 16.3916 14.6491 16.0245 14.9722 15.7694C16.0855 14.8903 16.8 13.5286 16.8 12C16.8 9.34906 14.651 7.20002 12 7.20002C9.34906 7.20002 7.20002 9.34906 7.20002 12C7.20002 13.5286 7.91456 14.8903 9.02785 15.7694C9.35091 16.0245 9.58144 16.3916 9.59895 16.8H14.4011Z" fill="#687782"/>
</svg>
