<svg width="24" height="24" viewBox="0 0 24 24" fill="none" xmlns="http://www.w3.org/2000/svg">
<path d="M3 12.2C3 11.2059 3.80589 10.4 4.8 10.4C5.79411 10.4 6.6 11.2059 6.6 12.2V19.4C6.6 20.3941 5.79411 21.2 4.8 21.2C3.80589 21.2 3 20.3941 3 19.4V12.2Z" fill="#687782"/>
<path d="M7.8 12V18.5167C7.8 19.4258 8.31361 20.2568 9.12669 20.6633L9.1865 20.6933C9.85301 21.0265 10.5879 21.2 11.3331 21.2H17.8325C18.9765 21.2 19.9615 20.3925 20.1859 19.2707L21.6259 12.0707C21.9229 10.5856 20.787 9.2 19.2725 9.2H15V4.4C15 3.07452 13.9255 2 12.6 2C11.9373 2 11.4 2.53726 11.4 3.2V4C11.4 5.03858 11.0631 6.04914 10.44 6.88L8.76 9.12C8.13685 9.95086 7.8 10.9614 7.8 12Z" fill="#687782"/>
</svg>
