<svg width="24" height="24" viewBox="0 0 24 24" fill="none" xmlns="http://www.w3.org/2000/svg">
<path fill-rule="evenodd" clip-rule="evenodd" d="M5.99998 10.8V8.40002C5.99998 5.08632 8.68627 2.40002 12 2.40002C15.3137 2.40002 18 5.08632 18 8.40002V10.8C19.3255 10.8 20.4 11.8745 20.4 13.2V19.2C20.4 20.5255 19.3255 21.6 18 21.6H5.99998C4.67449 21.6 3.59998 20.5255 3.59998 19.2V13.2C3.59998 11.8745 4.67449 10.8 5.99998 10.8ZM15.6 8.40002V10.8H8.39998V8.40002C8.39998 6.4118 10.0118 4.80002 12 4.80002C13.9882 4.80002 15.6 6.4118 15.6 8.40002Z" fill="#687782"/>
</svg>
