<svg width="24" height="24" viewBox="0 0 24 24" fill="none" xmlns="http://www.w3.org/2000/svg">
<path d="M6.00002 9.60002C6.00002 8.93728 6.53728 8.40002 7.20002 8.40002H8.40002V7.20002C8.40002 6.53728 8.93728 6.00002 9.60002 6.00002C10.2628 6.00002 10.8 6.53728 10.8 7.20002V8.40002H12C12.6628 8.40002 13.2 8.93728 13.2 9.60002C13.2 10.2628 12.6628 10.8 12 10.8H10.8V12C10.8 12.6628 10.2628 13.2 9.60002 13.2C8.93728 13.2 8.40002 12.6628 8.40002 12V10.8H7.20002C6.53728 10.8 6.00002 10.2628 6.00002 9.60002Z" fill="#687782"/>
<path fill-rule="evenodd" clip-rule="evenodd" d="M2.40002 9.60002C2.40002 5.62357 5.62357 2.40002 9.60002 2.40002C13.5765 2.40002 16.8 5.62357 16.8 9.60002C16.8 11.155 16.3071 12.5949 15.4689 13.7719L21.2486 19.5515C21.7172 20.0201 21.7172 20.7799 21.2486 21.2486C20.7799 21.7172 20.0201 21.7172 19.5515 21.2486L13.7719 15.4689C12.5949 16.3071 11.155 16.8 9.60002 16.8C5.62357 16.8 2.40002 13.5765 2.40002 9.60002ZM9.60002 4.80002C6.94906 4.80002 4.80002 6.94906 4.80002 9.60002C4.80002 12.251 6.94906 14.4 9.60002 14.4C12.251 14.4 14.4 12.251 14.4 9.60002C14.4 6.94906 12.251 4.80002 9.60002 4.80002Z" fill="#687782"/>
</svg>
