<svg width="24" height="24" viewBox="0 0 24 24" fill="none" xmlns="http://www.w3.org/2000/svg">
<path fill-rule="evenodd" clip-rule="evenodd" d="M3.52803 7.69488C2.82631 8.13345 2.40002 8.90258 2.40002 9.73008V19.1999C2.40002 20.5254 3.47454 21.5999 4.80002 21.5999H19.2C20.5255 21.5999 21.6 20.5254 21.6 19.1999V9.73008C21.6 8.90258 21.1737 8.13346 20.472 7.69488L13.272 3.19488C12.4938 2.70848 11.5063 2.70848 10.728 3.19488L3.52803 7.69488ZM6.66566 10.6015C6.11423 10.2339 5.36919 10.3829 5.00156 10.9344C4.63394 11.4858 4.78295 12.2308 5.33438 12.5985L11.3344 16.5985C11.7375 16.8672 12.2626 16.8672 12.6657 16.5985L18.6657 12.5985C19.2171 12.2308 19.3661 11.4858 18.9985 10.9344C18.6309 10.3829 17.8858 10.2339 17.3344 10.6015L12 14.1578L6.66566 10.6015Z" fill="#687782"/>
</svg>
