<svg width="24" height="24" viewBox="0 0 24 24" fill="none" xmlns="http://www.w3.org/2000/svg">
<path fill-rule="evenodd" clip-rule="evenodd" d="M14.4 1.90295L9.60002 6.70295V22.0971L14.4 17.2971V1.90295Z" fill="#687782"/>
<path fill-rule="evenodd" clip-rule="evenodd" d="M4.44855 3.95148C4.10535 3.60828 3.58921 3.50562 3.1408 3.69136C2.6924 3.87709 2.40002 4.31466 2.40002 4.80001V16.8C2.40002 17.1183 2.52645 17.4235 2.7515 17.6485L7.20002 22.0971V6.70295L4.44855 3.95148Z" fill="#687782"/>
<path fill-rule="evenodd" clip-rule="evenodd" d="M21.2486 6.35148L16.8 1.90295V17.2971L19.5515 20.0485C19.8947 20.3917 20.4108 20.4944 20.8592 20.3087C21.3077 20.1229 21.6 19.6854 21.6 19.2V7.20001C21.6 6.88175 21.4736 6.57653 21.2486 6.35148Z" fill="#687782"/>
</svg>
