<svg width="24" height="24" viewBox="0 0 24 24" fill="none" xmlns="http://www.w3.org/2000/svg">
<path d="M21.6 3.60003C21.6 3.18413 21.3847 2.79789 21.0309 2.57924C20.6771 2.3606 20.2353 2.34072 19.8633 2.52671L10.5167 7.20003H5.99999C4.01177 7.20003 2.39999 8.8118 2.39999 10.8C2.39999 12.7882 4.01177 14.4 5.99999 14.4H6.33509L8.46158 20.7795C8.62492 21.2695 9.08349 21.6 9.6 21.6H10.8C11.4627 21.6 12 21.0628 12 20.4V15.1417L19.8633 19.0733C20.2353 19.2593 20.6771 19.2395 21.0309 19.0208C21.3847 18.8022 21.6 18.4159 21.6 18V3.60003Z" fill="#687782"/>
</svg>
