<svg width="24" height="24" viewBox="0 0 24 24" fill="none" xmlns="http://www.w3.org/2000/svg">
<path d="M8.40001 4.79995C8.40001 2.81173 10.0118 1.19995 12 1.19995C13.9882 1.19995 15.6 2.81173 15.6 4.79995V9.59995C15.6 11.5882 13.9882 13.2 12 13.2C10.0118 13.2 8.40001 11.5882 8.40001 9.59995V4.79995Z" fill="#687782"/>
<path d="M13.2 17.9149C17.2708 17.3326 20.4 13.8317 20.4 9.59995C20.4 8.93721 19.8627 8.39995 19.2 8.39995C18.5373 8.39995 18 8.93721 18 9.59995C18 12.9137 15.3137 15.6 12 15.6C8.6863 15.6 6.00001 12.9137 6.00001 9.59995C6.00001 8.93721 5.46275 8.39995 4.80001 8.39995C4.13726 8.39995 3.60001 8.93721 3.60001 9.59995C3.60001 13.8317 6.72925 17.3326 10.8 17.9149V20.4H7.20001C6.53726 20.4 6.00001 20.9372 6.00001 21.5999C6.00001 22.2627 6.53726 22.7999 7.20001 22.7999H16.8C17.4627 22.7999 18 22.2627 18 21.5999C18 20.9372 17.4627 20.4 16.8 20.4H13.2V17.9149Z" fill="#687782"/>
</svg>
