<svg width="24" height="24" viewBox="0 0 24 24" fill="none" xmlns="http://www.w3.org/2000/svg">
<path d="M12 7.20002C10.6745 7.20002 9.59998 6.12551 9.59998 4.80002C9.59998 3.47454 10.6745 2.40002 12 2.40002C13.3255 2.40002 14.4 3.47454 14.4 4.80002C14.4 6.12551 13.3255 7.20002 12 7.20002Z" fill="#687782"/>
<path d="M12 14.4C10.6745 14.4 9.59998 13.3255 9.59998 12C9.59998 10.6745 10.6745 9.60002 12 9.60002C13.3255 9.60002 14.4 10.6745 14.4 12C14.4 13.3255 13.3255 14.4 12 14.4Z" fill="#687782"/>
<path d="M12 21.6C10.6745 21.6 9.59998 20.5255 9.59998 19.2C9.59998 17.8745 10.6745 16.8 12 16.8C13.3255 16.8 14.4 17.8745 14.4 19.2C14.4 20.5255 13.3255 21.6 12 21.6Z" fill="#687782"/>
</svg>
