<svg width="24" height="24" viewBox="0 0 24 24" fill="none" xmlns="http://www.w3.org/2000/svg">
<path fill-rule="evenodd" clip-rule="evenodd" d="M4.79999 3.59998C3.47451 3.59998 2.39999 4.67449 2.39999 5.99998V18C2.39999 19.3255 3.47451 20.4 4.79999 20.4H19.2C20.5255 20.4 21.6 19.3255 21.6 18V5.99998C21.6 4.67449 20.5255 3.59998 19.2 3.59998H4.79999ZM8.39999 5.99998L15.6 5.99998V10.8H8.39999V5.99998ZM18 15.6V18H19.2V15.6H18ZM15.6 13.2H8.39999V18H15.6V13.2ZM18 13.2H19.2V10.8H18V13.2ZM19.2 8.39998V5.99998H18V8.39998H19.2ZM5.99999 5.99998V8.39998H4.79999V5.99998H5.99999ZM5.99999 10.8H4.79999V13.2H5.99999V10.8ZM4.79999 15.6H5.99999V18H4.79999V15.6Z" fill="#687782"/>
</svg>
