<svg width="24" height="24" viewBox="0 0 24 24" fill="none" xmlns="http://www.w3.org/2000/svg">
<path d="M21.6 3.60003C21.6 3.24052 21.4388 2.89995 21.1608 2.67202C20.8828 2.4441 20.5172 2.35283 20.1647 2.42334L8.16465 4.82334C7.60375 4.93552 7.19999 5.42802 7.19999 6.00003V16.9366C6.82466 16.8481 6.42076 16.8 5.99999 16.8C4.01177 16.8 2.39999 17.8745 2.39999 19.2C2.39999 20.5255 4.01177 21.6 5.99999 21.6C7.98821 21.6 9.59998 20.5255 9.59999 19.2V9.38379L19.2 7.46379V14.5366C18.8247 14.4481 18.4208 14.4 18 14.4C16.0118 14.4 14.4 15.4745 14.4 16.8C14.4 18.1255 16.0118 19.2 18 19.2C19.9882 19.2 21.6 18.1255 21.6 16.8V3.60003Z" fill="#687782"/>
</svg>
