<svg width="24" height="24" viewBox="0 0 24 24" fill="none" xmlns="http://www.w3.org/2000/svg">
<path d="M5.99998 3.59998C5.33723 3.59998 4.79998 4.13723 4.79998 4.79998C4.79998 5.46272 5.33723 5.99998 5.99998 5.99998C12.6274 5.99998 18 11.3726 18 18C18 18.6627 18.5372 19.2 19.2 19.2C19.8627 19.2 20.4 18.6627 20.4 18C20.4 10.0471 13.9529 3.59998 5.99998 3.59998Z" fill="#687782"/>
<path d="M4.79998 10.8C4.79998 10.1372 5.33723 9.59998 5.99998 9.59998C10.6392 9.59998 14.4 13.3608 14.4 18C14.4 18.6627 13.8627 19.2 13.2 19.2C12.5372 19.2 12 18.6627 12 18C12 14.6863 9.31368 12 5.99998 12C5.33723 12 4.79998 11.4627 4.79998 10.8Z" fill="#687782"/>
<path d="M3.59998 18C3.59998 16.6745 4.67449 15.6 5.99998 15.6C7.32546 15.6 8.39998 16.6745 8.39998 18C8.39998 19.3255 7.32546 20.4 5.99998 20.4C4.67449 20.4 3.59998 19.3255 3.59998 18Z" fill="#687782"/>
</svg>
