<svg width="24" height="24" viewBox="0 0 24 24" fill="none" xmlns="http://www.w3.org/2000/svg">
<path fill-rule="evenodd" clip-rule="evenodd" d="M2.40002 5.99998C2.40002 4.67449 3.47454 3.59998 4.80002 3.59998H14.4C15.7255 3.59998 16.8 4.67449 16.8 5.99998V18C16.8 19.3255 17.8745 20.4 19.2 20.4H4.80002C3.47454 20.4 2.40002 19.3255 2.40002 18V5.99998ZM6.00002 7.19998H13.2V12H6.00002V7.19998ZM13.2 14.4H6.00002V16.8H13.2V14.4Z" fill="#687782"/>
<path d="M18 8.39998H19.2C20.5255 8.39998 21.6 9.47449 21.6 10.8V17.4C21.6 18.3941 20.7941 19.2 19.8 19.2C18.8059 19.2 18 18.3941 18 17.4V8.39998Z" fill="#687782"/>
</svg>
