<svg width="24" height="24" viewBox="0 0 24 24" fill="none" xmlns="http://www.w3.org/2000/svg">
<path d="M18.4816 4.51833C18.4816 4.51167 18.4816 4.50667 18.4816 4.5V2.83333C18.4816 2.61232 18.384 2.40036 18.2104 2.24408C18.0367 2.0878 17.8012 2 17.5556 2C17.3101 2 17.0746 2.0878 16.9009 2.24408C16.7273 2.40036 16.6297 2.61232 16.6297 2.83333V3.75C16.325 3.69431 16.0148 3.66639 15.7038 3.66667H14.7779V2.83333C14.7779 2.61232 14.6803 2.40036 14.5067 2.24408C14.333 2.0878 14.0975 2 13.8519 2C13.6064 2 13.3709 2.0878 13.1972 2.24408C13.0236 2.40036 12.926 2.61232 12.926 2.83333V3.66667H11.0742V2.83333C11.0742 2.61232 10.9766 2.40036 10.803 2.24408C10.6293 2.0878 10.3938 2 10.1482 2C9.90266 2 9.66715 2.0878 9.4935 2.24408C9.31986 2.40036 9.22231 2.61232 9.22231 2.83333V3.66667H8.29638C7.98541 3.66639 7.6752 3.69431 7.37045 3.75V2.83333C7.37045 2.61232 7.2729 2.40036 7.09926 2.24408C6.92561 2.0878 6.6901 2 6.44453 2C6.19896 2 5.96344 2.0878 5.7898 2.24408C5.61615 2.40036 5.5186 2.61232 5.5186 2.83333V4.5V4.51833C4.94525 4.90364 4.47943 5.40378 4.15801 5.97915C3.83659 6.55453 3.6684 7.18934 3.66675 7.83333V17.8333C3.66822 18.938 4.15645 19.997 5.02436 20.7782C5.89227 21.5593 7.06898 21.9987 8.29638 22H15.7038C16.9312 21.9987 18.1079 21.5593 18.9758 20.7782C19.8437 19.997 20.3319 18.938 20.3334 17.8333V7.83333C20.3318 7.18934 20.1636 6.55453 19.8422 5.97915C19.5207 5.40378 19.0549 4.90364 18.4816 4.51833ZM12.0001 16.1667H8.29638C8.05081 16.1667 7.8153 16.0789 7.64165 15.9226C7.46801 15.7663 7.37045 15.5543 7.37045 15.3333C7.37045 15.1123 7.46801 14.9004 7.64165 14.7441C7.8153 14.5878 8.05081 14.5 8.29638 14.5H12.0001C12.2457 14.5 12.4812 14.5878 12.6548 14.7441C12.8285 14.9004 12.926 15.1123 12.926 15.3333C12.926 15.5543 12.8285 15.7663 12.6548 15.9226C12.4812 16.0789 12.2457 16.1667 12.0001 16.1667ZM15.7038 12.8333H8.29638C8.05081 12.8333 7.8153 12.7455 7.64165 12.5893C7.46801 12.433 7.37045 12.221 7.37045 12C7.37045 11.779 7.46801 11.567 7.64165 11.4107C7.8153 11.2545 8.05081 11.1667 8.29638 11.1667H15.7038C15.9494 11.1667 16.1849 11.2545 16.3585 11.4107C16.5322 11.567 16.6297 11.779 16.6297 12C16.6297 12.221 16.5322 12.433 16.3585 12.5893C16.1849 12.7455 15.9494 12.8333 15.7038 12.8333ZM15.7038 9.5H8.29638C8.05081 9.5 7.8153 9.4122 7.64165 9.25592C7.46801 9.09964 7.37045 8.88768 7.37045 8.66667C7.37045 8.44565 7.46801 8.23369 7.64165 8.07741C7.8153 7.92113 8.05081 7.83333 8.29638 7.83333H15.7038C15.9494 7.83333 16.1849 7.92113 16.3585 8.07741C16.5322 8.23369 16.6297 8.44565 16.6297 8.66667C16.6297 8.88768 16.5322 9.09964 16.3585 9.25592C16.1849 9.4122 15.9494 9.5 15.7038 9.5Z" fill="#687782"/>
</svg>
