<svg width="24" height="24" viewBox="0 0 24 24" fill="none" xmlns="http://www.w3.org/2000/svg">
<path fill-rule="evenodd" clip-rule="evenodd" d="M21.2486 11.1515C21.7172 11.6201 21.7172 12.3799 21.2486 12.8486L12.8486 21.2486C12.3799 21.7172 11.6201 21.7172 11.1515 21.2486L2.7515 12.8486C2.51714 12.6142 2.39999 12.307 2.40002 11.9999V6.00002C2.40002 4.0118 4.0118 2.40002 6.00002 2.40002H12.0004C12.3074 2.40011 12.6143 2.51727 12.8486 2.7515L21.2486 11.1515ZM6.00002 7.20002C6.66277 7.20002 7.20002 6.66277 7.20002 6.00002C7.20002 5.33728 6.66277 4.80002 6.00002 4.80002C5.33728 4.80002 4.80002 5.33728 4.80002 6.00002C4.80002 6.66277 5.33728 7.20002 6.00002 7.20002Z" fill="#687782"/>
</svg>
