<svg width="24" height="24" viewBox="0 0 24 24" fill="none" xmlns="http://www.w3.org/2000/svg">
<path d="M4.44855 2.7515C3.97992 2.28287 3.22013 2.28287 2.7515 2.7515C2.28287 3.22013 2.28287 3.97992 2.7515 4.44855L11.0571 12.7542C11.1159 12.8288 11.1834 12.8962 11.258 12.955L19.5515 21.2486C20.0201 21.7172 20.7799 21.7172 21.2486 21.2486C21.7172 20.7799 21.7172 20.0201 21.2486 19.5515L20.4388 18.7417C23.8351 14.5013 23.5678 8.29414 19.6369 4.36326C19.1683 3.89463 18.4085 3.89463 17.9399 4.36326C17.4712 4.83189 17.4712 5.59169 17.9399 6.06032C20.9322 9.05266 21.195 13.7409 18.7282 17.0311L17.0064 15.3093C18.5499 12.9797 18.2954 9.80996 16.2428 7.75738C15.7742 7.28875 15.0144 7.28875 14.5458 7.75738C14.0771 8.22601 14.0771 8.9858 14.5458 9.45443C15.6541 10.5628 15.8887 12.2142 15.2494 13.5523L12.8597 11.1626C12.8524 11.1552 12.845 11.1478 12.8375 11.1405L4.44855 2.7515Z" fill="#687782"/>
<path d="M3.88521 9.82383C4.05617 9.18351 3.67569 8.52585 3.03537 8.35489C2.39506 8.18393 1.7374 8.56442 1.56644 9.20473C0.605424 12.8041 1.53581 16.8089 4.3634 19.6365C4.83203 20.1051 5.59183 20.1051 6.06046 19.6365C6.52909 19.1679 6.52909 18.4081 6.06046 17.9394C3.86312 15.7421 3.1361 12.6296 3.88521 9.82383Z" fill="#687782"/>
<path d="M8.88093 13.7994C8.54924 13.2257 7.81522 13.0294 7.24145 13.3611C6.66769 13.6928 6.47145 14.4268 6.80314 15.0006C7.06042 15.4457 7.37891 15.8638 7.75752 16.2424C8.22615 16.711 8.98595 16.711 9.45458 16.2424C9.92321 15.7737 9.92321 15.014 9.45458 14.5453C9.22527 14.316 9.03441 14.0649 8.88093 13.7994Z" fill="#687782"/>
</svg>
