<svg width="24" height="24" viewBox="0 0 24 24" fill="none" xmlns="http://www.w3.org/2000/svg">
<path fill-rule="evenodd" clip-rule="evenodd" d="M6.06044 4.36295C6.52907 4.83158 6.52907 5.59137 6.06044 6.06C2.78003 9.34041 2.78003 14.659 6.06044 17.9394C6.52907 18.408 6.52907 19.1678 6.06044 19.6364C5.59181 20.1051 4.83201 20.1051 4.36338 19.6364C0.145719 15.4188 0.145719 8.58061 4.36338 4.36295C4.83201 3.89432 5.59181 3.89432 6.06044 4.36295ZM17.9398 4.36323C18.4085 3.8946 19.1683 3.8946 19.6369 4.36323C23.8546 8.58089 23.8546 15.4191 19.6369 19.6367C19.1683 20.1054 18.4085 20.1054 17.9398 19.6367C17.4712 19.1681 17.4712 18.4083 17.9398 17.9397C21.2203 14.6593 21.2203 9.34068 17.9398 6.06028C17.4712 5.59165 17.4712 4.83185 17.9398 4.36323ZM9.45456 7.75706C9.92319 8.22569 9.92319 8.98549 9.45456 9.45411C8.04867 10.86 8.04867 13.1394 9.45456 14.5453C9.92319 15.0139 9.92319 15.7737 9.45456 16.2423C8.98593 16.711 8.22613 16.711 7.7575 16.2423C5.41435 13.8992 5.41436 10.1002 7.7575 7.75706C8.22613 7.28843 8.98593 7.28843 9.45456 7.75706ZM14.5457 7.75734C15.0144 7.28871 15.7742 7.28871 16.2428 7.75734C18.5859 10.1005 18.5859 13.8995 16.2428 16.2426C15.7742 16.7112 15.0144 16.7112 14.5457 16.2426C14.0771 15.774 14.0771 15.0142 14.5457 14.5456C15.9516 13.1397 15.9516 10.8603 14.5457 9.45439C14.0771 8.98576 14.0771 8.22597 14.5457 7.75734ZM12.0001 10.8C12.6629 10.8 13.2001 11.3372 13.2001 12V12.012C13.2001 12.6747 12.6629 13.212 12.0001 13.212C11.3374 13.212 10.8001 12.6747 10.8001 12.012V12C10.8001 11.3372 11.3374 10.8 12.0001 10.8Z" fill="#687782"/>
</svg>
