<svg width="24" height="24" viewBox="0 0 24 24" fill="none" xmlns="http://www.w3.org/2000/svg">
<path d="M3.59999 3.59998C2.93725 3.59998 2.39999 4.13723 2.39999 4.79998C2.39999 5.46272 2.93725 5.99998 3.59999 5.99998H16.8C17.4627 5.99998 18 5.46272 18 4.79998C18 4.13723 17.4627 3.59998 16.8 3.59998H3.59999Z" fill="#687782"/>
<path d="M3.59999 8.39998C2.93725 8.39998 2.39999 8.93723 2.39999 9.59998C2.39999 10.2627 2.93725 10.8 3.59999 10.8H12C12.6627 10.8 13.2 10.2627 13.2 9.59998C13.2 8.93723 12.6627 8.39998 12 8.39998H3.59999Z" fill="#687782"/>
<path d="M3.59999 13.2C2.93725 13.2 2.39999 13.7372 2.39999 14.4C2.39999 15.0627 2.93725 15.6 3.59999 15.6H8.39999C9.06274 15.6 9.59999 15.0627 9.59999 14.4C9.59999 13.7372 9.06274 13.2 8.39999 13.2H3.59999Z" fill="#687782"/>
<path d="M18 9.59998C18 8.93723 17.4627 8.39998 16.8 8.39998C16.1373 8.39998 15.6 8.93723 15.6 9.59998L15.6 16.3029L14.0485 14.7514C13.5799 14.2828 12.8201 14.2828 12.3515 14.7514C11.8828 15.2201 11.8828 15.9799 12.3515 16.4485L15.9515 20.0485C16.1765 20.2735 16.4817 20.4 16.8 20.4C17.1183 20.4 17.4235 20.2735 17.6485 20.0485L21.2485 16.4485C21.7171 15.9799 21.7171 15.2201 21.2485 14.7514C20.7799 14.2828 20.0201 14.2828 19.5515 14.7514L18 16.3029L18 9.59998Z" fill="#687782"/>
</svg>
