<svg width="24" height="24" viewBox="0 0 24 24" fill="none" xmlns="http://www.w3.org/2000/svg">
<path d="M3.59999 3.59998C2.93725 3.59998 2.39999 4.13723 2.39999 4.79998C2.39999 5.46272 2.93725 5.99998 3.59999 5.99998H16.8C17.4627 5.99998 18 5.46272 18 4.79998C18 4.13723 17.4627 3.59998 16.8 3.59998H3.59999Z" fill="#687782"/>
<path d="M3.59999 8.39998C2.93725 8.39998 2.39999 8.93723 2.39999 9.59998C2.39999 10.2627 2.93725 10.8 3.59999 10.8H9.59999C10.2627 10.8 10.8 10.2627 10.8 9.59998C10.8 8.93723 10.2627 8.39998 9.59999 8.39998H3.59999Z" fill="#687782"/>
<path d="M3.59999 13.2C2.93725 13.2 2.39999 13.7372 2.39999 14.4C2.39999 15.0627 2.93725 15.6 3.59999 15.6H8.39999C9.06274 15.6 9.59999 15.0627 9.59999 14.4C9.59999 13.7372 9.06274 13.2 8.39999 13.2H3.59999Z" fill="#687782"/>
<path d="M15.6 19.2C15.6 19.8627 16.1372 20.4 16.8 20.4C17.4627 20.4 18 19.8627 18 19.2L18 12.497L19.5515 14.0485C20.0201 14.5171 20.7799 14.5171 21.2485 14.0485C21.7171 13.5799 21.7171 12.8201 21.2485 12.3514L17.6485 8.75145C17.4235 8.5264 17.1183 8.39998 16.8 8.39998C16.4817 8.39998 16.1765 8.5264 15.9515 8.75145L12.3515 12.3514C11.8828 12.8201 11.8828 13.5799 12.3515 14.0485C12.8201 14.5171 13.5799 14.5171 14.0485 14.0485L15.6 12.497L15.6 19.2Z" fill="#687782"/>
</svg>
