<svg width="24" height="24" viewBox="0 0 24 24" fill="none" xmlns="http://www.w3.org/2000/svg">
<path d="M13.0733 3.06337C12.8701 2.65683 12.4546 2.40002 12 2.40002C11.5455 2.40002 11.13 2.65683 10.9267 3.06337L2.52672 19.8634C2.3139 20.289 2.37271 20.8002 2.67663 21.1664C2.98054 21.5326 3.47213 21.6846 3.9297 21.5539L9.92969 19.8396C10.4449 19.6924 10.8 19.2215 10.8 18.6857V13.2C10.8 12.5373 11.3373 12 12 12C12.6628 12 13.2 12.5373 13.2 13.2V18.6857C13.2 19.2215 13.5552 19.6924 14.0704 19.8396L20.0704 21.5539C20.5279 21.6846 21.0195 21.5326 21.3234 21.1664C21.6274 20.8002 21.6862 20.289 21.4734 19.8634L13.0733 3.06337Z" fill="#687782"/>
</svg>
