<svg width="24" height="24" viewBox="0 0 24 24" fill="none" xmlns="http://www.w3.org/2000/svg">
<path fill-rule="evenodd" clip-rule="evenodd" d="M21.6 12C21.6 17.302 17.302 21.6 12 21.6C6.69809 21.6 2.40002 17.302 2.40002 12C2.40002 6.69809 6.69809 2.40002 12 2.40002C17.302 2.40002 21.6 6.69809 21.6 12ZM8.40002 9.60002C8.40002 8.93728 8.93728 8.40002 9.60002 8.40002C10.2628 8.40002 10.8 8.93728 10.8 9.60002V14.4C10.8 15.0628 10.2628 15.6 9.60002 15.6C8.93728 15.6 8.40002 15.0628 8.40002 14.4V9.60002ZM14.4 8.40002C13.7373 8.40002 13.2 8.93728 13.2 9.60002V14.4C13.2 15.0628 13.7373 15.6 14.4 15.6C15.0628 15.6 15.6 15.0628 15.6 14.4V9.60002C15.6 8.93728 15.0628 8.40002 14.4 8.40002Z" fill="#687782"/>
</svg>
