<svg width="24" height="24" viewBox="0 0 24 24" fill="none" xmlns="http://www.w3.org/2000/svg">
<path d="M21.3899 7.60843L16.4388 2.65577C16.0885 2.29303 15.6219 2.06515 15.1206 2.01198C14.6193 1.95881 14.1153 2.08374 13.6968 2.36492C13.4501 2.54054 13.2446 2.76792 13.0947 3.0312C12.9447 3.29448 12.854 3.58732 12.8288 3.8893C12.8036 4.19127 12.8445 4.49512 12.9487 4.77965C13.0529 5.06417 13.2178 5.32253 13.432 5.5367L13.925 6.02921C14.0506 6.15568 14.1211 6.32675 14.1211 6.50506C14.1211 6.68337 14.0506 6.85444 13.925 6.98091L12.1764 8.73097C12.0229 8.88388 11.8325 8.99442 11.6237 9.05181C11.4149 9.10921 11.1948 9.1115 10.9848 9.05848L10.302 8.88348C9.5146 8.67777 8.69658 8.61595 7.88725 8.70097C7.35537 8.75633 6.85039 8.96273 6.43185 9.29584C6.0133 9.62894 5.69864 10.0749 5.52495 10.581C5.33471 11.1042 5.29766 11.6709 5.41817 12.2145C5.53868 12.7581 5.81174 13.2559 6.20524 13.6495L7.65909 15.1562L2.25421 20.5672C2.17468 20.6441 2.11124 20.736 2.0676 20.8377C2.02396 20.9394 2.00099 21.0487 2.00003 21.1594C1.99907 21.2701 2.02014 21.3798 2.06201 21.4822C2.10387 21.5846 2.1657 21.6777 2.24388 21.7559C2.32207 21.8342 2.41504 21.896 2.51737 21.9379C2.6197 21.9798 2.72935 22.0009 2.83991 22C2.95047 21.999 3.05974 21.976 3.16132 21.9323C3.26291 21.8887 3.3548 21.8252 3.43161 21.7456L8.81651 16.3562L9.85735 17.4346C10.563 18.1838 11.5362 18.6231 12.5644 18.6563C12.8968 18.6567 13.2268 18.6003 13.5403 18.4896C14.0186 18.3244 14.4389 18.0239 14.7501 17.6246C15.0614 17.2252 15.2502 16.7441 15.2939 16.2396C15.3781 15.437 15.3178 14.6257 15.1157 13.8445L14.9392 12.9895C14.8897 12.7809 14.8943 12.5632 14.9526 12.3569C15.0109 12.1507 15.1209 11.9628 15.2722 11.8111L17.0117 10.0727C17.147 9.94846 17.322 9.8764 17.5055 9.86935C17.586 9.86918 17.6658 9.88509 17.7402 9.91614C17.8145 9.94719 17.8819 9.99276 17.9385 10.0502L18.3598 10.4719C18.7083 10.8443 19.178 11.0802 19.6847 11.1373C20.1913 11.1944 20.7017 11.069 21.1243 10.7835C21.3711 10.608 21.5766 10.3807 21.7266 10.1174C21.8766 9.85417 21.9674 9.56135 21.9927 9.25937C22.018 8.95738 21.9772 8.65352 21.8731 8.36896C21.7689 8.08439 21.6041 7.82599 21.3899 7.61177V7.60843Z" fill="#687782"/>
</svg>
