<svg width="24" height="24" viewBox="0 0 24 24" fill="none" xmlns="http://www.w3.org/2000/svg">
<path fill-rule="evenodd" clip-rule="evenodd" d="M5.99999 4.80002V8.40002H4.79999C3.47451 8.40002 2.39999 9.47454 2.39999 10.8V14.4C2.39999 15.7255 3.47451 16.8 4.79999 16.8H5.99999V19.2C5.99999 20.5255 7.07451 21.6 8.39999 21.6H15.6C16.9255 21.6 18 20.5255 18 19.2V16.8H19.2C20.5255 16.8 21.6 15.7255 21.6 14.4V10.8C21.6 9.47454 20.5255 8.40002 19.2 8.40002H18V4.80002C18 3.47454 16.9255 2.40002 15.6 2.40002H8.39999C7.07451 2.40002 5.99999 3.47454 5.99999 4.80002ZM15.6 4.80002H8.39999V8.40002H15.6V4.80002ZM15.6 14.4H8.39999V19.2H15.6V14.4Z" fill="#687782"/>
</svg>
