<svg width="24" height="24" viewBox="0 0 24 24" fill="none" xmlns="http://www.w3.org/2000/svg">
<path d="M12 4.20002C12 3.20591 12.8059 2.40002 13.8 2.40002C14.7941 2.40002 15.6 3.20591 15.6 4.20002V4.80002C15.6 5.46277 16.1373 6.00002 16.8 6.00002H20.4C21.0628 6.00002 21.6 6.53728 21.6 7.20002V10.8C21.6 11.4628 21.0628 12 20.4 12H19.8C18.8059 12 18 12.8059 18 13.8C18 14.7941 18.8059 15.6 19.8 15.6H20.4C21.0628 15.6 21.6 16.1373 21.6 16.8V20.4C21.6 21.0628 21.0628 21.6 20.4 21.6H16.8C16.1373 21.6 15.6 21.0628 15.6 20.4V19.8C15.6 18.8059 14.7941 18 13.8 18C12.8059 18 12 18.8059 12 19.8V20.4C12 21.0628 11.4628 21.6 10.8 21.6H7.20002C6.53728 21.6 6.00002 21.0628 6.00002 20.4V16.8C6.00002 16.1373 5.46277 15.6 4.80002 15.6H4.20002C3.20591 15.6 2.40002 14.7941 2.40002 13.8C2.40002 12.8059 3.20591 12 4.20002 12H4.80002C5.46277 12 6.00002 11.4628 6.00002 10.8V7.20002C6.00002 6.53728 6.53728 6.00002 7.20002 6.00002H10.8C11.4628 6.00002 12 5.46277 12 4.80002V4.20002Z" fill="#687782"/>
</svg>
