<svg width="24" height="24" viewBox="0 0 24 24" fill="none" xmlns="http://www.w3.org/2000/svg">
<path fill-rule="evenodd" clip-rule="evenodd" d="M3.6 4.79998C3.6 4.13723 4.13726 3.59998 4.8 3.59998H8.4C9.06274 3.59998 9.6 4.13723 9.6 4.79998V8.39998C9.6 9.06272 9.06274 9.59998 8.4 9.59998H4.8C4.13726 9.59998 3.6 9.06272 3.6 8.39998V4.79998ZM6 7.19998V5.99998H7.2V7.19998H6Z" fill="#687782"/>
<path fill-rule="evenodd" clip-rule="evenodd" d="M3.6 15.6C3.6 14.9372 4.13726 14.4 4.8 14.4H8.4C9.06274 14.4 9.6 14.9372 9.6 15.6V19.2C9.6 19.8627 9.06274 20.4 8.4 20.4H4.8C4.13726 20.4 3.6 19.8627 3.6 19.2V15.6ZM6 18V16.8H7.2V18H6Z" fill="#687782"/>
<path fill-rule="evenodd" clip-rule="evenodd" d="M15.6 3.59998C14.9373 3.59998 14.4 4.13723 14.4 4.79998V8.39998C14.4 9.06272 14.9373 9.59998 15.6 9.59998H19.2C19.8627 9.59998 20.4 9.06272 20.4 8.39998V4.79998C20.4 4.13723 19.8627 3.59998 19.2 3.59998H15.6ZM16.8 5.99998V7.19998H18V5.99998H16.8Z" fill="#687782"/>
<path d="M13.2 4.79998C13.2 4.13723 12.6627 3.59998 12 3.59998C11.3373 3.59998 10.8 4.13723 10.8 4.79998V5.99998C10.8 6.66272 11.3373 7.19998 12 7.19998C12.6627 7.19998 13.2 6.66272 13.2 5.99998V4.79998Z" fill="#687782"/>
<path d="M12 8.39998C12.6627 8.39998 13.2 8.93723 13.2 9.59998V10.8H15.6C16.2627 10.8 16.8 11.3372 16.8 12C16.8 12.6627 16.2627 13.2 15.6 13.2H12C11.3373 13.2 10.8 12.6627 10.8 12V9.59998C10.8 8.93723 11.3373 8.39998 12 8.39998Z" fill="#687782"/>
<path d="M19.2 10.8C18.5373 10.8 18 11.3372 18 12C18 12.6627 18.5373 13.2 19.2 13.2C19.8627 13.2 20.4 12.6627 20.4 12C20.4 11.3372 19.8627 10.8 19.2 10.8Z" fill="#687782"/>
<path d="M10.8 15.6C10.8 14.9372 11.3373 14.4 12 14.4H13.2C13.8627 14.4 14.4 14.9372 14.4 15.6C14.4 16.2627 13.8627 16.8 13.2 16.8V19.2C13.2 19.8627 12.6627 20.4 12 20.4C11.3373 20.4 10.8 19.8627 10.8 19.2V15.6Z" fill="#687782"/>
<path d="M8.4 13.2C9.06274 13.2 9.6 12.6627 9.6 12C9.6 11.3372 9.06274 10.8 8.4 10.8H4.8C4.13726 10.8 3.6 11.3372 3.6 12C3.6 12.6627 4.13726 13.2 4.8 13.2H8.4Z" fill="#687782"/>
<path d="M20.4 15.6C20.4 16.2627 19.8627 16.8 19.2 16.8H16.8C16.1373 16.8 15.6 16.2627 15.6 15.6C15.6 14.9372 16.1373 14.4 16.8 14.4H19.2C19.8627 14.4 20.4 14.9372 20.4 15.6Z" fill="#687782"/>
<path d="M19.2 20.4C19.8627 20.4 20.4 19.8627 20.4 19.2C20.4 18.5372 19.8627 18 19.2 18H15.6C14.9373 18 14.4 18.5372 14.4 19.2C14.4 19.8627 14.9373 20.4 15.6 20.4H19.2Z" fill="#687782"/>
</svg>
