<svg width="24" height="24" viewBox="0 0 24 24" fill="none" xmlns="http://www.w3.org/2000/svg">
<path d="M2.4 7.20005C2.4 5.87457 3.47452 4.80005 4.8 4.80005H12C13.3255 4.80005 14.4 5.87457 14.4 7.20005V16.8C14.4 18.1255 13.3255 19.2 12 19.2H4.8C3.47452 19.2 2.4 18.1255 2.4 16.8V7.20005Z" fill="#687782"/>
<path d="M17.4633 8.52674C17.0568 8.73001 16.8 9.14552 16.8 9.60005V14.4001C16.8 14.8546 17.0568 15.2701 17.4633 15.4734L19.8633 16.6734C20.2353 16.8594 20.6771 16.8395 21.0309 16.6208C21.3847 16.4022 21.6 16.0159 21.6 15.6V8.40005C21.6 7.98416 21.3847 7.59792 21.0309 7.37927C20.6771 7.16062 20.2353 7.14074 19.8633 7.32674L17.4633 8.52674Z" fill="#687782"/>
</svg>
