<svg width="24" height="24" viewBox="0 0 24 24" fill="none" xmlns="http://www.w3.org/2000/svg">
<path fill-rule="evenodd" clip-rule="evenodd" d="M9.24855 3.95145C9.71718 4.42008 9.71718 5.17987 9.24855 5.6485L6.49708 8.39998H13.2C17.8392 8.39998 21.6 12.1608 21.6 16.8V19.2C21.6 19.8627 21.0628 20.4 20.4 20.4C19.7373 20.4 19.2 19.8627 19.2 19.2V16.8C19.2 13.4863 16.5137 10.8 13.2 10.8H6.49708L9.24855 13.5514C9.71718 14.0201 9.71718 14.7799 9.24855 15.2485C8.77992 15.7171 8.02013 15.7171 7.5515 15.2485L2.7515 10.4485C2.28287 9.97988 2.28287 9.22008 2.7515 8.75145L7.5515 3.95145C8.02013 3.48282 8.77992 3.48282 9.24855 3.95145Z" fill="#687782"/>
</svg>
