<svg width="24" height="24" viewBox="0 0 24 24" fill="none" xmlns="http://www.w3.org/2000/svg">
<path fill-rule="evenodd" clip-rule="evenodd" d="M5.99998 2.40002C4.67449 2.40002 3.59998 3.47454 3.59998 4.80002V21.6L7.79998 19.2L12 21.6L16.2 19.2L20.4 21.6V4.80002C20.4 3.47454 19.3255 2.40002 18 2.40002H5.99998ZM11.6485 6.84855C12.1171 6.37992 12.1171 5.62013 11.6485 5.1515C11.1799 4.68287 10.4201 4.68287 9.95145 5.1515L6.35145 8.7515C5.88282 9.22012 5.88282 9.97992 6.35145 10.4486L9.95145 14.0486C10.4201 14.5172 11.1799 14.5172 11.6485 14.0486C12.1171 13.5799 12.1171 12.8201 11.6485 12.3515L10.097 10.8H12C13.9882 10.8 15.6 12.4118 15.6 14.4V15.6C15.6 16.2628 16.1372 16.8 16.8 16.8C17.4627 16.8 18 16.2628 18 15.6V14.4C18 11.0863 15.3137 8.40002 12 8.40002H10.097L11.6485 6.84855Z" fill="#687782"/>
</svg>
