<svg width="24" height="24" viewBox="0 0 24 24" fill="none" xmlns="http://www.w3.org/2000/svg">
<path d="M10.1343 17.7985C10.5025 18.0439 10.9759 18.0668 11.3661 17.858C11.7563 17.6492 11.9999 17.2426 11.9999 16.8L11.9999 13.4422L18.5343 17.7985C18.9025 18.0439 19.3759 18.0668 19.7661 17.858C20.1563 17.6492 20.3999 17.2426 20.3999 16.8V7.2C20.3999 6.75745 20.1563 6.35081 19.7661 6.14199C19.3759 5.93317 18.9025 5.95606 18.5343 6.20154L11.9999 10.5578V7.2C11.9999 6.75745 11.7563 6.35082 11.3661 6.14199C10.9759 5.93317 10.5025 5.95606 10.1343 6.20154L2.93426 11.0015C2.60042 11.2241 2.3999 11.5988 2.3999 12C2.3999 12.4012 2.60042 12.7759 2.93426 12.9985L10.1343 17.7985Z" fill="#687782"/>
</svg>
