<svg width="24" height="24" viewBox="0 0 24 24" fill="none" xmlns="http://www.w3.org/2000/svg">
<path fill-rule="evenodd" clip-rule="evenodd" d="M6.59999 2.40002C4.2804 2.40002 2.39999 4.28043 2.39999 6.60002C2.39999 8.91962 4.2804 10.8 6.59999 10.8C7.3233 10.8 8.00391 10.6172 8.59811 10.2952L10.303 12.0001L8.59817 13.7049C8.00395 13.3829 7.32333 13.2 6.59999 13.2C4.2804 13.2 2.39999 15.0804 2.39999 17.4C2.39999 19.7196 4.2804 21.6 6.59999 21.6C8.91959 21.6 10.8 19.7196 10.8 17.4C10.8 16.6767 10.6172 15.9962 10.2952 15.402L20.0486 5.64855C20.5172 5.17992 20.5172 4.42013 20.0486 3.9515C19.58 3.48287 18.8202 3.48287 18.3516 3.9515L12 10.303L10.2952 8.59814C10.6172 8.00394 10.8 7.32333 10.8 6.60002C10.8 4.28043 8.91959 2.40002 6.59999 2.40002ZM4.79999 6.60002C4.79999 5.60591 5.60588 4.80002 6.59999 4.80002C7.59411 4.80002 8.39999 5.60591 8.39999 6.60002C8.39999 7.59414 7.59411 8.40002 6.59999 8.40002C5.60588 8.40002 4.79999 7.59414 4.79999 6.60002ZM4.79999 17.4C4.79999 16.4059 5.60588 15.6 6.59999 15.6C7.59411 15.6 8.39999 16.4059 8.39999 17.4C8.39999 18.3941 7.59411 19.2 6.59999 19.2C5.60588 19.2 4.79999 18.3941 4.79999 17.4Z" fill="#687782"/>
<path d="M15.3941 13.6971C14.9255 13.2285 14.1657 13.2285 13.697 13.6971C13.2284 14.1657 13.2284 14.9255 13.697 15.3941L18.3515 20.0486C18.8201 20.5172 19.5799 20.5172 20.0485 20.0486C20.5172 19.5799 20.5172 18.8201 20.0485 18.3515L15.3941 13.6971Z" fill="#687782"/>
</svg>
