<svg width="24" height="24" viewBox="0 0 24 24" fill="none" xmlns="http://www.w3.org/2000/svg">
<path fill-rule="evenodd" clip-rule="evenodd" d="M9.63013 5.37762C8.36945 5.37762 7.1604 5.87843 6.26896 6.76987C5.37752 7.66131 4.87671 8.87036 4.87671 10.131C4.87671 11.3917 5.37752 12.6008 6.26896 13.4922C7.1604 14.3837 8.36945 14.8845 9.63013 14.8845C10.8908 14.8845 12.0999 14.3837 12.9913 13.4922C13.8828 12.6008 14.3836 11.3917 14.3836 10.131C14.3836 8.87036 13.8828 7.66131 12.9913 6.76987C12.0999 5.87843 10.8908 5.37762 9.63013 5.37762ZM2.5 10.131C2.49986 9.00888 2.76458 7.90254 3.27263 6.90198C3.78069 5.90141 4.51774 5.0349 5.42383 4.3729C6.32991 3.7109 7.37946 3.27211 8.48711 3.09222C9.59476 2.91232 10.7292 2.99641 11.7982 3.33763C12.8673 3.67885 13.8407 4.26758 14.6393 5.05593C15.4378 5.84428 16.0391 6.80999 16.3941 7.87451C16.7491 8.93904 16.8478 10.0723 16.6822 11.1822C16.5166 12.2921 16.0914 13.3472 15.4412 14.2618L21.1655 19.9861C21.382 20.2102 21.5018 20.5104 21.499 20.822C21.4963 21.1336 21.3714 21.4316 21.151 21.6519C20.9307 21.8723 20.6326 21.9972 20.3211 22C20.0095 22.0027 19.7093 21.8829 19.4852 21.6664L13.762 15.9433C12.6953 16.7018 11.4404 17.152 10.1348 17.2447C8.82919 17.3373 7.52327 17.0688 6.36014 16.4685C5.19701 15.8682 4.22155 14.9594 3.54067 13.8415C2.85979 12.7237 2.49975 11.4399 2.5 10.131Z" fill="#687782"/>
</svg>
