<svg width="24" height="24" viewBox="0 0 24 24" fill="none" xmlns="http://www.w3.org/2000/svg">
<path d="M10.8 10.8C10.8 9.47454 11.8745 8.40002 13.2 8.40002C14.5255 8.40002 15.6 9.47454 15.6 10.8C15.6 12.1255 14.5255 13.2 13.2 13.2C12.5369 13.2 11.9386 12.9327 11.5029 12.4971C11.0673 12.0615 10.8 11.4631 10.8 10.8Z" fill="#687782"/>
<path fill-rule="evenodd" clip-rule="evenodd" d="M12 21.6C17.3019 21.6 21.6 17.302 21.6 12C21.6 6.69809 17.3019 2.40002 12 2.40002C6.69806 2.40002 2.39999 6.69809 2.39999 12C2.39999 17.302 6.69806 21.6 12 21.6ZM13.2 6.00002C10.549 6.00002 8.39999 8.14906 8.39999 10.8C8.39999 11.6897 8.64275 12.5237 9.06475 13.2382L6.35147 15.9515C5.88284 16.4201 5.88284 17.1799 6.35147 17.6486C6.82009 18.1172 7.57989 18.1172 8.04852 17.6486L10.7618 14.9353C11.4763 15.3573 12.3103 15.6 13.2 15.6C15.851 15.6 18 13.451 18 10.8C18 8.14906 15.851 6.00002 13.2 6.00002Z" fill="#687782"/>
</svg>
