<svg width="24" height="24" viewBox="0 0 24 24" fill="none" xmlns="http://www.w3.org/2000/svg">
<path fill-rule="evenodd" clip-rule="evenodd" d="M2.59932 5.99871C6.20924 5.94974 9.49833 4.57242 12 2.33337C14.5017 4.57242 17.7907 5.94974 21.4007 5.99871C21.5318 6.77964 21.6 7.58188 21.6 8.40006C21.6 14.6699 17.5929 20.0038 12 21.9806C6.40707 20.0038 2.39999 14.6699 2.39999 8.40006C2.39999 7.58188 2.46823 6.77964 2.59932 5.99871ZM16.4485 10.4486C16.9172 9.97992 16.9172 9.22013 16.4485 8.7515C15.9799 8.28287 15.2201 8.28287 14.7515 8.7515L10.8 12.703L9.24852 11.1515C8.77989 10.6829 8.02009 10.6829 7.55147 11.1515C7.08284 11.6201 7.08284 12.3799 7.55147 12.8486L9.95147 15.2486C10.4201 15.7172 11.1799 15.7172 11.6485 15.2486L16.4485 10.4486Z" fill="#687782"/>
</svg>
