<svg width="24" height="24" viewBox="0 0 24 24" fill="none" xmlns="http://www.w3.org/2000/svg">
<path fill-rule="evenodd" clip-rule="evenodd" d="M2.4 5.99998C2.4 4.67449 3.47452 3.59998 4.8 3.59998H19.2C20.5255 3.59998 21.6 4.67449 21.6 5.99998V8.39998C21.6 9.72546 20.5255 10.8 19.2 10.8H4.8C3.47452 10.8 2.4 9.72546 2.4 8.39998V5.99998ZM19.2 7.19998C19.2 7.86272 18.6627 8.39998 18 8.39998C17.3373 8.39998 16.8 7.86272 16.8 7.19998C16.8 6.53723 17.3373 5.99998 18 5.99998C18.6627 5.99998 19.2 6.53723 19.2 7.19998Z" fill="#687782"/>
<path fill-rule="evenodd" clip-rule="evenodd" d="M2.4 15.6C2.4 14.2745 3.47452 13.2 4.8 13.2H19.2C20.5255 13.2 21.6 14.2745 21.6 15.6V18C21.6 19.3255 20.5255 20.4 19.2 20.4H4.8C3.47452 20.4 2.4 19.3255 2.4 18V15.6ZM19.2 16.8C19.2 17.4627 18.6627 18 18 18C17.3373 18 16.8 17.4627 16.8 16.8C16.8 16.1372 17.3373 15.6 18 15.6C18.6627 15.6 19.2 16.1372 19.2 16.8Z" fill="#687782"/>
</svg>
