<svg width="24" height="24" viewBox="0 0 24 24" fill="none" xmlns="http://www.w3.org/2000/svg">
<path fill-rule="evenodd" clip-rule="evenodd" d="M13.7871 3.80515C13.3322 1.93165 10.6678 1.93165 10.2129 3.80515C9.91912 5.01542 8.53254 5.58976 7.469 4.94173C5.82262 3.93857 3.93855 5.82264 4.94171 7.46902C5.58973 8.53256 5.01539 9.91915 3.80513 10.213C1.93162 10.6678 1.93163 13.3323 3.80513 13.7871C5.01539 14.0809 5.58974 15.4675 4.94171 16.531C3.93855 18.1774 5.82262 20.0615 7.469 19.0583C8.53254 18.4103 9.91912 18.9846 10.2129 20.1949C10.6678 22.0684 13.3322 22.0684 13.7871 20.1949C14.0809 18.9846 15.4675 18.4103 16.531 19.0583C18.1774 20.0615 20.0615 18.1774 19.0583 16.531C18.4103 15.4675 18.9846 14.0809 20.1949 13.7871C22.0684 13.3323 22.0684 10.6678 20.1949 10.213C18.9846 9.91915 18.4103 8.53256 19.0583 7.46902C20.0615 5.82264 18.1774 3.93857 16.531 4.94173C15.4675 5.58976 14.0809 5.01542 13.7871 3.80515ZM12 15.6C13.9882 15.6 15.6 13.9882 15.6 12C15.6 10.0118 13.9882 8.40002 12 8.40002C10.0118 8.40002 8.4 10.0118 8.4 12C8.4 13.9882 10.0118 15.6 12 15.6Z" fill="#687782"/>
</svg>
