<svg width="24" height="24" viewBox="0 0 24 24" fill="none" xmlns="http://www.w3.org/2000/svg">
<path d="M18 9.60002C19.9882 9.60002 21.6 7.98825 21.6 6.00002C21.6 4.0118 19.9882 2.40002 18 2.40002C16.0118 2.40002 14.4 4.0118 14.4 6.00002C14.4 6.15061 14.4092 6.29903 14.4272 6.44475L8.49911 9.4088C7.85164 8.7842 6.97069 8.40002 6 8.40002C4.01178 8.40002 2.4 10.0118 2.4 12C2.4 13.9882 4.01178 15.6 6 15.6C6.97071 15.6 7.85168 15.2158 8.49916 14.5912L14.4272 17.5552C14.4092 17.701 14.4 17.8494 14.4 18C14.4 19.9882 16.0118 21.6 18 21.6C19.9882 21.6 21.6 19.9882 21.6 18C21.6 16.0118 19.9882 14.4 18 14.4C17.0293 14.4 16.1484 14.7842 15.5009 15.4088L9.5728 12.4448C9.59076 12.299 9.6 12.1506 9.6 12C9.6 11.8494 9.59075 11.701 9.5728 11.5552L15.5008 8.59121C16.1483 9.21583 17.0293 9.60002 18 9.60002Z" fill="#687782"/>
</svg>
