<svg width="24" height="24" viewBox="0 0 24 24" fill="none" xmlns="http://www.w3.org/2000/svg">
<path fill-rule="evenodd" clip-rule="evenodd" d="M12 2.40002C9.34904 2.40002 7.20001 4.54906 7.20001 7.20002V8.40002H6.00001C5.38855 8.40002 4.87488 8.85979 4.80735 9.46751L3.60735 20.2675C3.56966 20.6067 3.67822 20.946 3.90586 21.2003C4.1335 21.4547 4.45868 21.6 4.80001 21.6H19.2C19.5413 21.6 19.8665 21.4547 20.0942 21.2003C20.3218 20.946 20.4304 20.6067 20.3927 20.2675L19.1927 9.46751C19.1251 8.85979 18.6115 8.40002 18 8.40002H16.8V7.20002C16.8 4.54906 14.651 2.40002 12 2.40002ZM14.4 8.40002V7.20002C14.4 5.87454 13.3255 4.80002 12 4.80002C10.6745 4.80002 9.60001 5.87454 9.60001 7.20002V8.40002H14.4ZM7.20001 12C7.20001 11.3373 7.73726 10.8 8.40001 10.8C9.06275 10.8 9.60001 11.3373 9.60001 12C9.60001 12.6628 9.06275 13.2 8.40001 13.2C7.73726 13.2 7.20001 12.6628 7.20001 12ZM15.6 10.8C14.9373 10.8 14.4 11.3373 14.4 12C14.4 12.6628 14.9373 13.2 15.6 13.2C16.2627 13.2 16.8 12.6628 16.8 12C16.8 11.3373 16.2627 10.8 15.6 10.8Z" fill="#687782"/>
</svg>
