<svg width="24" height="24" viewBox="0 0 24 24" fill="none" xmlns="http://www.w3.org/2000/svg">
<path d="M12 14.4C13.3255 14.4 14.4 13.3255 14.4 12C14.4 10.6745 13.3255 9.59998 12 9.59998C10.6745 9.59998 9.60001 10.6745 9.60001 12C9.60001 13.3255 10.6745 14.4 12 14.4Z" fill="#687782"/>
<path fill-rule="evenodd" clip-rule="evenodd" d="M0.549316 12C2.07842 7.13147 6.62678 3.59998 12 3.59998C17.3731 3.59998 21.9215 7.13143 23.4506 11.9999C21.9215 16.8685 17.3731 20.4 11.9999 20.4C6.62679 20.4 2.07845 16.8685 0.549316 12ZM16.8 12C16.8 14.6509 14.651 16.8 12 16.8C9.34904 16.8 7.20001 14.6509 7.20001 12C7.20001 9.34901 9.34904 7.19998 12 7.19998C14.651 7.19998 16.8 9.34901 16.8 12Z" fill="#687782"/>
</svg>
