<svg width="24" height="24" viewBox="0 0 24 24" fill="none" xmlns="http://www.w3.org/2000/svg">
<path fill-rule="evenodd" clip-rule="evenodd" d="M11.2592 3.69139C11.7076 3.87712 12 4.31469 12 4.80004V19.2C12 19.6854 11.7076 20.123 11.2592 20.3087C10.8108 20.4944 10.2947 20.3918 9.95148 20.0486L5.50296 15.6H2.40001C1.73727 15.6 1.20001 15.0628 1.20001 14.4V9.60004C1.20001 8.9373 1.73727 8.40004 2.40001 8.40004H5.50295L9.95148 3.95151C10.2947 3.60832 10.8108 3.50565 11.2592 3.69139Z" fill="#687782"/>
<path fill-rule="evenodd" clip-rule="evenodd" d="M14.7515 8.75148C15.2201 8.28285 15.9799 8.28285 16.4485 8.75148L18 10.3029L19.5515 8.75148C20.0201 8.28285 20.7799 8.28285 21.2485 8.75148C21.7172 9.22011 21.7172 9.97991 21.2485 10.4485L19.6971 12L21.2485 13.5515C21.7172 14.0201 21.7172 14.7799 21.2485 15.2485C20.7799 15.7172 20.0201 15.7172 19.5515 15.2485L18 13.6971L16.4485 15.2485C15.9799 15.7172 15.2201 15.7172 14.7515 15.2485C14.2829 14.7799 14.2829 14.0201 14.7515 13.5515L16.303 12L14.7515 10.4485C14.2829 9.97991 14.2829 9.22011 14.7515 8.75148Z" fill="#687782"/>
</svg>
