<svg width="24" height="24" viewBox="0 0 24 24" fill="none" xmlns="http://www.w3.org/2000/svg">
<path fill-rule="evenodd" clip-rule="evenodd" d="M11.2592 3.69137C11.7076 3.87711 12 4.31467 12 4.80003V19.2C12 19.6854 11.7076 20.1229 11.2592 20.3087C10.8108 20.4944 10.2947 20.3918 9.95148 20.0486L5.50296 15.6H2.40001C1.73727 15.6 1.20001 15.0628 1.20001 14.4V9.60003C1.20001 8.93729 1.73727 8.40003 2.40001 8.40003H5.50296L9.95148 3.9515C10.2947 3.6083 10.8108 3.50564 11.2592 3.69137Z" fill="#687782"/>
<path fill-rule="evenodd" clip-rule="evenodd" d="M17.5882 3.51465C18.0569 3.04602 18.8167 3.04602 19.2853 3.51465C21.4555 5.68491 22.8 8.68655 22.8 11.9999C22.8 15.3133 21.4555 18.315 19.2853 20.4852C18.8167 20.9538 18.0569 20.9538 17.5882 20.4852C17.1196 20.0166 17.1196 19.2568 17.5882 18.7882C19.3268 17.0496 20.4 14.6512 20.4 11.9999C20.4 9.34863 19.3268 6.95028 17.5882 5.21171C17.1196 4.74308 17.1196 3.98328 17.5882 3.51465ZM14.1941 6.90876C14.6627 6.44013 15.4225 6.44013 15.8912 6.90876C16.5222 7.53982 17.0372 8.28824 17.4004 9.11949C17.7864 10.0031 18 10.9782 18 11.9999C18 13.9878 17.1928 15.7895 15.8912 17.0911C15.4225 17.5597 14.6627 17.5597 14.1941 17.0911C13.7255 16.6225 13.7255 15.8627 14.1941 15.394C15.0641 14.5241 15.6 13.3257 15.6 11.9999C15.6 11.3151 15.4573 10.6667 15.2011 10.0804C14.9596 9.52749 14.6162 9.02792 14.1941 8.60582C13.7255 8.13719 13.7255 7.37739 14.1941 6.90876Z" fill="#687782"/>
</svg>
