<svg width="24" height="24" viewBox="0 0 24 24" fill="none" xmlns="http://www.w3.org/2000/svg">
<path fill-rule="evenodd" clip-rule="evenodd" d="M6.00002 2.40002C6.66277 2.40002 7.20002 2.93728 7.20002 3.60002V4.80002H8.40002C9.06277 4.80002 9.60002 5.33728 9.60002 6.00002C9.60002 6.66277 9.06277 7.20002 8.40002 7.20002H7.20002V8.40002C7.20002 9.06277 6.66277 9.60002 6.00002 9.60002C5.33728 9.60002 4.80002 9.06277 4.80002 8.40002V7.20002H3.60002C2.93728 7.20002 2.40002 6.66277 2.40002 6.00002C2.40002 5.33728 2.93728 4.80002 3.60002 4.80002H4.80002V3.60002C4.80002 2.93728 5.33728 2.40002 6.00002 2.40002ZM6.00002 14.4C6.66277 14.4 7.20002 14.9373 7.20002 15.6V16.8H8.40002C9.06277 16.8 9.60002 17.3373 9.60002 18C9.60002 18.6628 9.06277 19.2 8.40002 19.2H7.20002V20.4C7.20002 21.0628 6.66277 21.6 6.00002 21.6C5.33728 21.6 4.80002 21.0628 4.80002 20.4V19.2H3.60002C2.93728 19.2 2.40002 18.6628 2.40002 18C2.40002 17.3373 2.93728 16.8 3.60002 16.8H4.80002V15.6C4.80002 14.9373 5.33728 14.4 6.00002 14.4Z" fill="#687782"/>
<path fill-rule="evenodd" clip-rule="evenodd" d="M14.4 2.40002C14.9444 2.40002 15.4207 2.7666 15.56 3.29295L16.9751 8.63874L20.9996 10.9606C21.3711 11.1749 21.6 11.5712 21.6 12C21.6 12.4289 21.3711 12.8251 20.9996 13.0394L16.9751 15.3613L15.56 20.7071C15.4207 21.2334 14.9444 21.6 14.4 21.6C13.8555 21.6 13.3792 21.2334 13.2399 20.7071L11.8249 15.3613L7.80035 13.0394C7.42889 12.8251 7.20002 12.4289 7.20002 12C7.20002 11.5712 7.42889 11.1749 7.80035 10.9606L11.8249 8.63874L13.2399 3.29295C13.3792 2.7666 13.8555 2.40002 14.4 2.40002Z" fill="#687782"/>
</svg>
