<svg width="24" height="24" viewBox="0 0 24 24" fill="none" xmlns="http://www.w3.org/2000/svg">
<path fill-rule="evenodd" clip-rule="evenodd" d="M22 5.46912C22 4.65775 21.3604 4 20.5714 4H19.3065C18.5175 4 17.8779 4.65775 17.8779 5.46912V18.5309C17.8779 19.3423 18.5175 20 19.3065 20H20.5714C21.3604 20 22 19.3423 22 18.5309V5.46912ZM16.7046 10.4703C16.7046 9.65896 16.065 9.00121 15.276 9.00121H14.0111C13.2221 9.00121 12.5825 9.65896 12.5825 10.4703V18.5252C12.5825 19.3366 13.2221 19.9943 14.0111 19.9943H15.276C16.065 19.9943 16.7046 19.3366 16.7046 18.5252V10.4703ZM11.4089 15.4376C11.4089 14.6262 10.7693 13.9685 9.9803 13.9685H8.72042C7.93144 13.9685 7.29184 14.6262 7.29184 15.4376V18.4856C7.29184 19.297 7.93144 19.9547 8.72042 19.9547H9.9803C10.7693 19.9547 11.4089 19.297 11.4089 18.4856V15.4376ZM6.11703 17.941C6.11703 17.1296 5.47744 16.4719 4.68845 16.4719H3.42858C2.6396 16.4719 2 17.1296 2 17.941V18.4856C2 19.297 2.6396 19.9547 3.42858 19.9547H4.68845C5.47744 19.9547 6.11703 19.297 6.11703 18.4856V17.941Z" fill="#687782"/>
</svg>
