<svg width="24" height="24" viewBox="0 0 24 24" fill="none" xmlns="http://www.w3.org/2000/svg">
<path fill-rule="evenodd" clip-rule="evenodd" d="M3.59998 4.79998C3.59998 4.13723 4.13723 3.59998 4.79998 3.59998H19.2C19.8627 3.59998 20.4 4.13723 20.4 4.79998C20.4 5.46272 19.8627 5.99998 19.2 5.99998H4.79998C4.13723 5.99998 3.59998 5.46272 3.59998 4.79998ZM3.59998 9.59998C3.59998 8.93723 4.13723 8.39998 4.79998 8.39998H19.2C19.8627 8.39998 20.4 8.93723 20.4 9.59998C20.4 10.2627 19.8627 10.8 19.2 10.8H4.79998C4.13723 10.8 3.59998 10.2627 3.59998 9.59998ZM3.59998 14.4C3.59998 13.7372 4.13723 13.2 4.79998 13.2H19.2C19.8627 13.2 20.4 13.7372 20.4 14.4C20.4 15.0627 19.8627 15.6 19.2 15.6H4.79998C4.13723 15.6 3.59998 15.0627 3.59998 14.4ZM3.59998 19.2C3.59998 18.5372 4.13723 18 4.79998 18H19.2C19.8627 18 20.4 18.5372 20.4 19.2C20.4 19.8627 19.8627 20.4 19.2 20.4H4.79998C4.13723 20.4 3.59998 19.8627 3.59998 19.2Z" fill="#687782"/>
</svg>
