<svg width="24" height="24" viewBox="0 0 24 24" fill="none" xmlns="http://www.w3.org/2000/svg">
<path d="M6.8001 19.2C6.26966 19.2 5.76096 18.9893 5.38588 18.6143C5.01081 18.2392 4.8001 17.7305 4.8001 17.2V3.60004C4.8001 3.28178 4.67367 2.97655 4.44863 2.75151C4.22358 2.52646 3.91836 2.40004 3.6001 2.40004C3.28184 2.40004 2.97661 2.52646 2.75157 2.75151C2.52653 2.97655 2.4001 3.28178 2.4001 3.60004V17.2C2.4001 18.367 2.86367 19.4861 3.68883 20.3113C4.51399 21.1365 5.63314 21.6 6.8001 21.6H20.4001C20.7184 21.6 21.0236 21.4736 21.2486 21.2486C21.4737 21.0235 21.6001 20.7183 21.6001 20.4C21.6001 20.0818 21.4737 19.7766 21.2486 19.5515C21.0236 19.3265 20.7184 19.2 20.4001 19.2H6.8001Z" fill="#687782"/>
<path d="M18.0001 16.8C18.3184 16.8 18.6236 16.6736 18.8486 16.4486C19.0737 16.2235 19.2001 15.9183 19.2001 15.6V10.8C19.2001 10.4818 19.0737 10.1766 18.8486 9.95151C18.6236 9.72646 18.3184 9.60004 18.0001 9.60004C17.6818 9.60004 17.3766 9.72646 17.1516 9.95151C16.9265 10.1766 16.8001 10.4818 16.8001 10.8V15.6C16.8001 15.9183 16.9265 16.2235 17.1516 16.4486C17.3766 16.6736 17.6818 16.8 18.0001 16.8Z" fill="#687782"/>
<path d="M8.4001 16.8C8.71836 16.8 9.02358 16.6736 9.24863 16.4486C9.47367 16.2235 9.6001 15.9183 9.6001 15.6V10.8C9.6001 10.4818 9.47367 10.1766 9.24863 9.95151C9.02358 9.72646 8.71836 9.60004 8.4001 9.60004C8.08184 9.60004 7.77661 9.72646 7.55157 9.95151C7.32653 10.1766 7.2001 10.4818 7.2001 10.8V15.6C7.2001 15.9183 7.32653 16.2235 7.55157 16.4486C7.77661 16.6736 8.08184 16.8 8.4001 16.8Z" fill="#687782"/>
<path d="M13.2001 16.8001C13.5184 16.8001 13.8236 16.6736 14.0486 16.4486C14.2737 16.2235 14.4001 15.9183 14.4001 15.6001V6.80004C14.4001 6.48178 14.2737 6.17655 14.0486 5.95151C13.8236 5.72646 13.5184 5.60004 13.2001 5.60004C12.8818 5.60004 12.5766 5.72646 12.3516 5.95151C12.1265 6.17655 12.0001 6.48178 12.0001 6.80004V15.6001C12.0001 15.9183 12.1265 16.2235 12.3516 16.4486C12.5766 16.6736 12.8818 16.8001 13.2001 16.8001Z" fill="#687782"/>
<path fill-rule="evenodd" clip-rule="evenodd" d="M5.59802 18.4021C5.91683 18.7209 6.34923 18.9 6.8001 18.9H20.4001C20.7979 18.9 21.1795 19.0581 21.4608 19.3394C21.7421 19.6207 21.9001 20.0022 21.9001 20.4C21.9001 20.7979 21.7421 21.1794 21.4608 21.4607C21.1795 21.742 20.7979 21.9 20.4001 21.9H6.8001C5.55358 21.9 4.35812 21.4049 3.4767 20.5234C2.59527 19.642 2.1001 18.4466 2.1001 17.2V3.60004C2.1001 3.20221 2.25813 2.82068 2.53944 2.53938C2.82074 2.25807 3.20227 2.10004 3.6001 2.10004C3.99792 2.10004 4.37945 2.25807 4.66076 2.53938C4.94206 2.82068 5.1001 3.20221 5.1001 3.60004V17.2C5.1001 17.6509 5.2792 18.0833 5.59802 18.4021ZM19.0608 16.6607C18.7795 16.942 18.3979 17.1 18.0001 17.1C17.6023 17.1 17.2207 16.942 16.9394 16.6607C16.6581 16.3794 16.5001 15.9979 16.5001 15.6V10.8C16.5001 10.4022 16.6581 10.0207 16.9394 9.73938C17.2207 9.45807 17.6023 9.30004 18.0001 9.30004C18.3979 9.30004 18.7795 9.45807 19.0608 9.73938C19.3421 10.0207 19.5001 10.4022 19.5001 10.8V15.6C19.5001 15.9979 19.3421 16.3794 19.0608 16.6607ZM9.46076 16.6607C9.17945 16.942 8.79792 17.1 8.4001 17.1C8.00227 17.1 7.62074 16.942 7.33944 16.6607C7.05813 16.3794 6.9001 15.9979 6.9001 15.6V10.8C6.9001 10.4022 7.05813 10.0207 7.33944 9.73938C7.62074 9.45807 8.00227 9.30004 8.4001 9.30004C8.79792 9.30004 9.17945 9.45807 9.46076 9.73938C9.74206 10.0207 9.9001 10.4022 9.9001 10.8V15.6C9.9001 15.9979 9.74206 16.3794 9.46076 16.6607ZM14.2608 16.6607C13.9795 16.942 13.5979 17.1001 13.2001 17.1001C12.8023 17.1001 12.4207 16.942 12.1394 16.6607C11.8581 16.3794 11.7001 15.9979 11.7001 15.6001V6.80004C11.7001 6.40221 11.8581 6.02068 12.1394 5.73938C12.4207 5.45807 12.8023 5.30004 13.2001 5.30004C13.5979 5.30004 13.9795 5.45807 14.2608 5.73938C14.5421 6.02068 14.7001 6.40221 14.7001 6.80004V15.6001C14.7001 15.9979 14.5421 16.3794 14.2608 16.6607ZM5.38588 18.6143C5.76096 18.9893 6.26966 19.2 6.8001 19.2H20.4001C20.7184 19.2 21.0236 19.3265 21.2486 19.5515C21.4737 19.7766 21.6001 20.0818 21.6001 20.4C21.6001 20.7183 21.4737 21.0235 21.2486 21.2486C21.0236 21.4736 20.7184 21.6 20.4001 21.6H6.8001C5.63314 21.6 4.51399 21.1365 3.68883 20.3113C2.86367 19.4861 2.4001 18.367 2.4001 17.2V3.60004C2.4001 3.28178 2.52653 2.97655 2.75157 2.75151C2.97661 2.52646 3.28184 2.40004 3.6001 2.40004C3.91836 2.40004 4.22358 2.52646 4.44863 2.75151C4.67367 2.97655 4.8001 3.28178 4.8001 3.60004V17.2C4.8001 17.7305 5.01081 18.2392 5.38588 18.6143ZM18.8486 16.4486C18.6236 16.6736 18.3184 16.8 18.0001 16.8C17.6818 16.8 17.3766 16.6736 17.1516 16.4486C16.9265 16.2235 16.8001 15.9183 16.8001 15.6V10.8C16.8001 10.4818 16.9265 10.1766 17.1516 9.95151C17.3766 9.72646 17.6818 9.60004 18.0001 9.60004C18.3184 9.60004 18.6236 9.72646 18.8486 9.95151C19.0737 10.1766 19.2001 10.4818 19.2001 10.8V15.6C19.2001 15.9183 19.0737 16.2235 18.8486 16.4486ZM8.4001 16.8C8.71836 16.8 9.02358 16.6736 9.24863 16.4486C9.47367 16.2235 9.6001 15.9183 9.6001 15.6V10.8C9.6001 10.4818 9.47367 10.1766 9.24863 9.95151C9.02358 9.72646 8.71836 9.60004 8.4001 9.60004C8.08184 9.60004 7.77661 9.72646 7.55157 9.95151C7.32653 10.1766 7.2001 10.4818 7.2001 10.8V15.6C7.2001 15.9183 7.32653 16.2235 7.55157 16.4486C7.77661 16.6736 8.08184 16.8 8.4001 16.8ZM14.0486 16.4486C13.8236 16.6736 13.5184 16.8001 13.2001 16.8001C12.8818 16.8001 12.5766 16.6736 12.3516 16.4486C12.1265 16.2235 12.0001 15.9183 12.0001 15.6001V6.80004C12.0001 6.48178 12.1265 6.17655 12.3516 5.95151C12.5766 5.72646 12.8818 5.60004 13.2001 5.60004C13.5184 5.60004 13.8236 5.72646 14.0486 5.95151C14.2737 6.17655 14.4001 6.48178 14.4001 6.80004V15.6001C14.4001 15.9183 14.2737 16.2235 14.0486 16.4486Z" fill="#687782"/>
</svg>
