<svg width="24" height="24" viewBox="0 0 24 24" fill="none" xmlns="http://www.w3.org/2000/svg">
<path d="M12.4727 2.49705C12.1709 2.36768 11.8292 2.36768 11.5273 2.49705L3.12732 6.09705C2.6861 6.28615 2.40002 6.71999 2.40002 7.20002C2.40002 7.68006 2.6861 8.1139 3.12732 8.303L6.30047 9.66292C6.41586 9.53218 6.5605 9.4257 6.72732 9.35421L11.5273 7.29707C12.1365 7.036 12.8419 7.31818 13.103 7.92734C13.3641 8.53649 13.0819 9.24195 12.4727 9.50301L9.20004 10.9056L11.5273 11.903C11.8292 12.0324 12.1709 12.0324 12.4727 11.903L20.8727 8.303C21.3139 8.1139 21.6 7.68006 21.6 7.20002C21.6 6.71999 21.3139 6.28615 20.8727 6.09705L12.4727 2.49705Z" fill="#687782"/>
<path d="M3.97208 11.2761L6.00002 12.1452V17.0672C5.5887 16.9739 5.16849 16.9041 4.74087 16.8593C4.17715 16.8002 3.73166 16.3547 3.67255 15.7909C3.62458 15.3334 3.60002 14.8693 3.60002 14.3998C3.60002 13.324 3.72892 12.2778 3.97208 11.2761Z" fill="#687782"/>
<path d="M11.16 19.887C10.3525 19.0955 9.42203 18.4301 8.40002 17.9221V13.1738L10.5819 14.1089C11.4875 14.497 12.5126 14.497 13.4181 14.1089L20.028 11.2761C20.2711 12.2778 20.4 13.324 20.4 14.3998C20.4 14.8693 20.3755 15.3334 20.3275 15.7909C20.2684 16.3547 19.8229 16.8002 19.2592 16.8593C16.7718 17.1201 14.5349 18.2256 12.8401 19.887C12.3735 20.3445 11.6266 20.3445 11.16 19.887Z" fill="#687782"/>
<path d="M7.20002 21.6C7.86277 21.6 8.40002 21.0627 8.40002 20.4V17.9221C7.64566 17.5472 6.84143 17.258 6.00002 17.0672V20.4C6.00002 21.0627 6.53728 21.6 7.20002 21.6Z" fill="#687782"/>
</svg>
