<svg width="24" height="24" viewBox="0 0 24 24" fill="none" xmlns="http://www.w3.org/2000/svg">
<path fill-rule="evenodd" clip-rule="evenodd" d="M7.19999 2.40002C5.8745 2.40002 4.79999 3.47454 4.79999 4.80002V19.2C4.79999 20.5255 5.8745 21.6 7.19999 21.6H16.8C18.1255 21.6 19.2 20.5255 19.2 19.2V8.89708C19.2 8.26056 18.9471 7.65011 18.497 7.20002L14.4 3.10297C13.9499 2.65288 13.3395 2.40002 12.7029 2.40002H7.19999ZM9.59999 14.4C9.59999 13.7373 9.06273 13.2 8.39999 13.2C7.73725 13.2 7.19999 13.7373 7.19999 14.4V18C7.19999 18.6628 7.73725 19.2 8.39999 19.2C9.06273 19.2 9.59999 18.6628 9.59999 18V14.4ZM12 10.8C12.6627 10.8 13.2 11.3373 13.2 12V18C13.2 18.6628 12.6627 19.2 12 19.2C11.3372 19.2 10.8 18.6628 10.8 18V12C10.8 11.3373 11.3372 10.8 12 10.8ZM16.8 9.60002C16.8 8.93728 16.2627 8.40002 15.6 8.40002C14.9372 8.40002 14.4 8.93728 14.4 9.60002V18C14.4 18.6628 14.9372 19.2 15.6 19.2C16.2627 19.2 16.8 18.6628 16.8 18V9.60002Z" fill="#687782"/>
</svg>
