<svg width="24" height="24" viewBox="0 0 24 24" fill="none" xmlns="http://www.w3.org/2000/svg">
<path fill-rule="evenodd" clip-rule="evenodd" d="M6.00002 4.80005C4.0118 4.80005 2.40002 6.41182 2.40002 8.40005V15.6C2.40002 17.5883 4.0118 19.2 6.00003 19.2H18C19.9883 19.2 21.6 17.5883 21.6 15.6V8.40005C21.6 6.41182 19.9883 4.80005 18 4.80005H6.00002ZM4.80002 15.6V14.4H10.8V16.8H6.00003C5.33728 16.8 4.80002 16.2628 4.80002 15.6ZM13.2 16.8H18C18.6628 16.8 19.2 16.2628 19.2 15.6V14.4H13.2V16.8ZM13.2 12H19.2V9.60005H13.2V12ZM10.8 9.60005H4.80002V12H10.8V9.60005Z" fill="#687782"/>
</svg>
