<svg width="24" height="24" viewBox="0 0 24 24" fill="none" xmlns="http://www.w3.org/2000/svg">
<g clip-path="url(#clip0_222_45)">
<path fill-rule="evenodd" clip-rule="evenodd" d="M13 21.949V20C13 19.7348 12.8946 19.4804 12.7071 19.2929C12.5196 19.1054 12.2652 19 12 19C11.7348 19 11.4804 19.1054 11.2929 19.2929C11.1054 19.4804 11 19.7348 11 20V21.949C8.70617 21.7154 6.56318 20.6976 4.93282 19.0672C3.30245 17.4368 2.28456 15.2938 2.05101 13H4C4.26522 13 4.51957 12.8946 4.70711 12.7071C4.89465 12.5196 5 12.2652 5 12C5 11.7348 4.89465 11.4804 4.70711 11.2929C4.51957 11.1054 4.26522 11 4 11H2.05101C2.28456 8.70617 3.30245 6.56318 4.93282 4.93281C6.56318 3.30244 8.70617 2.28456 11 2.051V4C11 4.26522 11.1054 4.51957 11.2929 4.70711C11.4804 4.89464 11.7348 5 12 5C12.2652 5 12.5196 4.89464 12.7071 4.70711C12.8946 4.51957 13 4.26522 13 4V2.051C15.2938 2.28456 17.4368 3.30244 19.0672 4.93281C20.6976 6.56318 21.7154 8.70617 21.949 11H20C19.7348 11 19.4804 11.1054 19.2929 11.2929C19.1054 11.4804 19 11.7348 19 12C19 12.2652 19.1054 12.5196 19.2929 12.7071C19.4804 12.8946 19.7348 13 20 13H21.949C21.7154 15.2938 20.6976 17.4368 19.0672 19.0672C17.4368 20.6976 15.2938 21.7154 13 21.949ZM15.7071 12.7071C15.8946 12.5196 16 12.2652 16 12C16 11.7348 15.8946 11.4804 15.7071 11.2929C15.5196 11.1054 15.2652 11 15 11H13V9C13 8.73478 12.8946 8.48043 12.7071 8.29289C12.5196 8.10536 12.2652 8 12 8C11.7348 8 11.4804 8.10536 11.2929 8.29289C11.1054 8.48043 11 8.73478 11 9V11H9C8.73479 11 8.48043 11.1054 8.2929 11.2929C8.10536 11.4804 8 11.7348 8 12C8 12.2652 8.10536 12.5196 8.2929 12.7071C8.48043 12.8946 8.73479 13 9 13H11V15C11 15.2652 11.1054 15.5196 11.2929 15.7071C11.4804 15.8946 11.7348 16 12 16C12.2652 16 12.5196 15.8946 12.7071 15.7071C12.8946 15.5196 13 15.2652 13 15V13H15C15.2652 13 15.5196 12.8946 15.7071 12.7071Z" fill="#687782"/>
</g>
<defs>
<clipPath id="clip0_222_45">
<rect width="24" height="24" fill="white"/>
</clipPath>
</defs>
</svg>
