<svg width="24" height="24" viewBox="0 0 24 24" fill="none" xmlns="http://www.w3.org/2000/svg">
<path d="M6.00002 14.4C6.00002 15.0627 6.53728 15.6 7.20002 15.6C7.86276 15.6 8.40002 15.0627 8.40002 14.4L8.40002 7.69703L9.9515 9.2485C10.4201 9.71713 11.1799 9.71713 11.6486 9.24851C12.1172 8.77988 12.1172 8.02008 11.6486 7.55145L8.04855 3.95145C7.82351 3.7264 7.51828 3.59998 7.20002 3.59998C6.88176 3.59998 6.57654 3.7264 6.3515 3.95145L2.7515 7.55145C2.28287 8.02008 2.28287 8.77987 2.7515 9.2485C3.22012 9.71713 3.97992 9.71713 4.44855 9.2485L6.00002 7.69703L6.00002 14.4Z" fill="#687782"/>
<path d="M18 9.59998C18 8.93723 17.4628 8.39998 16.8 8.39998C16.1373 8.39998 15.6 8.93723 15.6 9.59998L15.6 16.3029L14.0486 14.7514C13.5799 14.2828 12.8201 14.2828 12.3515 14.7514C11.8829 15.2201 11.8829 15.9799 12.3515 16.4485L15.9515 20.0485C16.1765 20.2735 16.4818 20.4 16.8 20.4C17.1183 20.4 17.4235 20.2735 17.6486 20.0485L21.2486 16.4485C21.7172 15.9799 21.7172 15.2201 21.2486 14.7514C20.7799 14.2828 20.0201 14.2828 19.5515 14.7514L18 16.3029L18 9.59998Z" fill="#687782"/>
</svg>
