<svg width="24" height="24" viewBox="0 0 24 24" fill="none" xmlns="http://www.w3.org/2000/svg">
<path d="M9.59998 6.00002C8.93724 6.00002 8.39998 6.53728 8.39998 7.20002C8.39998 7.86276 8.93724 8.40002 9.59998 8.40002L16.3029 8.40002L14.7514 9.9515C14.2828 10.4201 14.2828 11.1799 14.7514 11.6486C15.2201 12.1172 15.9799 12.1172 16.4485 11.6486L20.0485 8.04855C20.2735 7.82351 20.4 7.51829 20.4 7.20003C20.4 6.88177 20.2735 6.57654 20.0485 6.3515L16.4485 2.7515C15.9799 2.28287 15.2201 2.28287 14.7514 2.7515C14.2828 3.22012 14.2828 3.97992 14.7514 4.44855L16.3029 6.00002L9.59998 6.00002Z" fill="#687782"/>
<path d="M14.4 18C15.0627 18 15.6 17.4628 15.6 16.8C15.6 16.1373 15.0627 15.6 14.4 15.6L7.69703 15.6L9.2485 14.0486C9.71713 13.5799 9.71713 12.8201 9.2485 12.3515C8.77988 11.8829 8.02008 11.8829 7.55145 12.3515L3.95145 15.9515C3.7264 16.1765 3.59998 16.4818 3.59998 16.8C3.59998 17.1183 3.7264 17.4235 3.95145 17.6486L7.55145 21.2486C8.02007 21.7172 8.77987 21.7172 9.2485 21.2486C9.71713 20.7799 9.71713 20.0201 9.2485 19.5515L7.69703 18L14.4 18Z" fill="#687782"/>
</svg>
