<svg width="24" height="24" viewBox="0 0 24 24" fill="none" xmlns="http://www.w3.org/2000/svg">
<path fill-rule="evenodd" clip-rule="evenodd" d="M8.4 2.40002C9.06275 2.40002 9.6 2.93728 9.6 3.60002V4.80002H10.4787C10.4928 4.79977 10.507 4.79977 10.5212 4.80002H13.2C13.8627 4.80002 14.4 5.33728 14.4 6.00002C14.4 6.66277 13.8627 7.20002 13.2 7.20002H11.4936C11.0596 9.22499 10.3569 11.1499 9.42486 12.9356C9.77378 13.3606 10.1396 13.7713 10.5212 14.1666C10.9815 14.6434 10.9681 15.4031 10.4913 15.8634C10.0144 16.3237 9.25476 16.3103 8.79447 15.8335C8.56754 15.5984 8.34561 15.3584 8.12885 15.1138C7.06673 16.6921 5.81264 18.1301 4.4003 19.3942C3.90647 19.8361 3.14783 19.7941 2.70584 19.3003C2.26385 18.8065 2.30588 18.0478 2.79971 17.6058C4.25542 16.3029 5.52256 14.7946 6.55571 13.1267C5.88795 12.1799 5.2904 11.1799 4.77069 10.1341C4.47575 9.54057 4.71777 8.82035 5.31127 8.52541C5.90476 8.23047 6.62498 8.47249 6.91993 9.06598C7.20024 9.63005 7.50594 10.1794 7.83552 10.7124C8.33639 9.59129 8.73896 8.41684 9.03237 7.20002H3.60001C2.93726 7.20002 2.40001 6.66277 2.40001 6.00002C2.40001 5.33728 2.93726 4.80002 3.60001 4.80002H7.20001V3.60002C7.20001 2.93728 7.73726 2.40002 8.4 2.40002ZM15.6 9.60002C16.0545 9.60002 16.47 9.85683 16.6733 10.2634L20.2625 17.4418C20.2703 17.4565 20.2778 17.4715 20.2849 17.4866L21.4733 19.8634C21.7697 20.4561 21.5294 21.1769 20.9367 21.4733C20.3439 21.7697 19.6231 21.5295 19.3267 20.9367L18.4584 19.2H12.7416L11.8733 20.9367C11.5769 21.5295 10.8561 21.7697 10.2633 21.4733C9.67057 21.1769 9.43031 20.4561 9.72669 19.8634L10.9151 17.4866C10.9222 17.4715 10.9297 17.4565 10.9375 17.4418L14.5267 10.2634C14.73 9.85683 15.1455 9.60002 15.6 9.60002ZM13.9416 16.8H17.2584L15.6 13.4833L13.9416 16.8Z" fill="#687782"/>
</svg>
