<svg width="24" height="24" viewBox="0 0 24 24" fill="none" xmlns="http://www.w3.org/2000/svg">
<path fill-rule="evenodd" clip-rule="evenodd" d="M10.8 2.40002C10.3455 2.40002 9.92993 2.65683 9.72666 3.06337L8.85834 4.80002H4.79998C4.13723 4.80002 3.59998 5.33728 3.59998 6.00002C3.59998 6.66277 4.13723 7.20002 4.79998 7.20002L4.79998 19.2C4.79998 20.5255 5.87449 21.6 7.19998 21.6H16.8C18.1255 21.6 19.2 20.5255 19.2 19.2V7.20002C19.8627 7.20002 20.4 6.66277 20.4 6.00002C20.4 5.33728 19.8627 4.80002 19.2 4.80002H15.1416L14.2733 3.06337C14.07 2.65683 13.6545 2.40002 13.2 2.40002H10.8ZM8.39998 9.60002C8.39998 8.93728 8.93723 8.40002 9.59998 8.40002C10.2627 8.40002 10.8 8.93728 10.8 9.60002V16.8C10.8 17.4628 10.2627 18 9.59998 18C8.93723 18 8.39998 17.4628 8.39998 16.8V9.60002ZM14.4 8.40002C13.7372 8.40002 13.2 8.93728 13.2 9.60002V16.8C13.2 17.4628 13.7372 18 14.4 18C15.0627 18 15.6 17.4628 15.6 16.8V9.60002C15.6 8.93728 15.0627 8.40002 14.4 8.40002Z" fill="#687782"/>
</svg>
