<svg width="24" height="24" viewBox="0 0 24 24" fill="none" xmlns="http://www.w3.org/2000/svg">
<path d="M19.0366 16.043L17.8019 14.1914C18.0041 14.0572 18.1779 13.8845 18.3133 13.6832C18.4487 13.4818 18.543 13.2557 18.591 13.0178C18.6389 12.7799 18.6395 12.5349 18.5926 12.2968C18.5458 12.0587 18.4524 11.8322 18.3179 11.6302L16.5746 9.01655C16.7273 8.87755 16.8558 8.71414 16.9548 8.533C17.1133 8.24215 17.1904 7.91395 17.1781 7.58296C17.1658 7.25197 17.0644 6.93042 16.8848 6.65216C16.8639 6.62048 13.3991 2.57449 13.3991 2.57449C13.2115 2.38868 12.9887 2.24217 12.7438 2.14354C12.4989 2.04491 12.2368 1.99614 11.9728 2.0001C11.7088 2.00406 11.4483 2.06066 11.2064 2.1666C10.9646 2.27253 10.7464 2.42566 10.5644 2.61701C10.5644 2.61701 7.12457 6.61881 7.10457 6.64549C6.8649 7.01455 6.76511 7.45715 6.82321 7.89334C6.88131 8.32954 7.09347 8.73059 7.42137 9.02405L5.68226 11.6302C5.54777 11.8322 5.45444 12.0587 5.40758 12.2968C5.36073 12.5349 5.36129 12.7799 5.40922 13.0178C5.45715 13.2557 5.55152 13.4818 5.68693 13.6832C5.82233 13.8845 5.99611 14.0572 6.19833 14.1914L4.96361 16.043C4.68657 16.4584 4.52746 16.9412 4.50325 17.44C4.47903 17.9387 4.59063 18.4346 4.82613 18.8749C5.06163 19.3152 5.41221 19.6833 5.84048 19.94C6.26875 20.1967 6.75866 20.3323 7.25797 20.3325H11.1664V21.1662C11.1664 21.3873 11.2542 21.5993 11.4106 21.7557C11.5669 21.912 11.779 21.9999 12.0001 21.9999C12.2212 21.9999 12.4333 21.912 12.5896 21.7557C12.746 21.5993 12.8338 21.3873 12.8338 21.1662V20.3325H16.7414C17.2408 20.3325 17.7308 20.1969 18.1592 19.9403C18.5876 19.6837 18.9383 19.3156 19.1739 18.8753C19.4095 18.435 19.5211 17.939 19.497 17.4402C19.4728 16.9414 19.3137 16.4585 19.0366 16.043ZM12.0001 5.32573C12.165 5.32573 12.3262 5.37462 12.4633 5.46623C12.6004 5.55784 12.7072 5.68805 12.7703 5.84039C12.8334 5.99273 12.8499 6.16036 12.8178 6.32208C12.7856 6.48381 12.7062 6.63236 12.5896 6.74896C12.473 6.86555 12.3245 6.94496 12.1627 6.97712C12.001 7.00929 11.8334 6.99278 11.681 6.92968C11.5287 6.86658 11.3985 6.75972 11.3069 6.62262C11.2153 6.48552 11.1664 6.32433 11.1664 6.15944C11.1664 5.93832 11.2542 5.72627 11.4106 5.56992C11.5669 5.41357 11.779 5.32573 12.0001 5.32573ZM8.66527 17.8313C8.50037 17.8313 8.33918 17.7824 8.20208 17.6908C8.06498 17.5992 7.95812 17.469 7.89502 17.3167C7.83192 17.1643 7.81541 16.9967 7.84758 16.835C7.87975 16.6733 7.95915 16.5247 8.07575 16.4081C8.19234 16.2915 8.34089 16.2121 8.50262 16.1799C8.66434 16.1478 8.83197 16.1643 8.98431 16.2274C9.13665 16.2905 9.26686 16.3973 9.35847 16.5345C9.45008 16.6716 9.49897 16.8327 9.49897 16.9976C9.49897 17.2187 9.41114 17.4308 9.25479 17.5872C9.09843 17.7435 8.88638 17.8313 8.66527 17.8313ZM8.66527 13.6628C8.50037 13.6628 8.33918 13.6139 8.20208 13.5223C8.06498 13.4307 7.95812 13.3005 7.89502 13.1481C7.83192 12.9958 7.81541 12.8282 7.84758 12.6664C7.87975 12.5047 7.95915 12.3562 8.07575 12.2396C8.19234 12.123 8.34089 12.0436 8.50262 12.0114C8.66434 11.9792 8.83197 11.9957 8.98431 12.0589C9.13665 12.122 9.26686 12.2288 9.35847 12.3659C9.45008 12.503 9.49897 12.6642 9.49897 12.8291C9.49897 13.0502 9.41114 13.2623 9.25479 13.4186C9.09843 13.575 8.88638 13.6628 8.66527 13.6628ZM12.0001 10.328C11.8352 10.328 11.674 10.2791 11.5369 10.1875C11.3998 10.0959 11.2929 9.96565 11.2298 9.81331C11.1667 9.66097 11.1502 9.49334 11.1824 9.33162C11.2146 9.16989 11.294 9.02134 11.4106 8.90475C11.5272 8.78815 11.6757 8.70875 11.8374 8.67658C11.9992 8.64441 12.1668 8.66092 12.3191 8.72402C12.4715 8.78712 12.6017 8.89398 12.6933 9.03108C12.7849 9.16818 12.8338 9.32937 12.8338 9.49427C12.8338 9.71538 12.746 9.92744 12.5896 10.0838C12.4333 10.2401 12.2212 10.328 12.0001 10.328ZM15.3349 11.9954C15.17 11.9954 15.0088 11.9465 14.8717 11.8549C14.7346 11.7633 14.6278 11.6331 14.5647 11.4807C14.5016 11.3284 14.4851 11.1608 14.5172 10.999C14.5494 10.8373 14.6288 10.6888 14.7454 10.5722C14.862 10.4556 15.0105 10.3762 15.1723 10.344C15.334 10.3118 15.5016 10.3283 15.654 10.3914C15.8063 10.4545 15.9365 10.5614 16.0281 10.6985C16.1197 10.8356 16.1686 10.9968 16.1686 11.1617C16.1686 11.3828 16.0808 11.5949 15.9244 11.7512C15.7681 11.9076 15.556 11.9954 15.3349 11.9954ZM15.3349 16.9976C15.17 16.9976 15.0088 16.9487 14.8717 16.8571C14.7346 16.7655 14.6278 16.6353 14.5647 16.483C14.5016 16.3306 14.4851 16.163 14.5172 16.0013C14.5494 15.8396 14.6288 15.691 14.7454 15.5744C14.862 15.4578 15.0105 15.3784 15.1723 15.3462C15.334 15.3141 15.5016 15.3306 15.654 15.3937C15.8063 15.4568 15.9365 15.5636 16.0281 15.7007C16.1197 15.8378 16.1686 15.999 16.1686 16.1639C16.1686 16.385 16.0808 16.5971 15.9244 16.7534C15.7681 16.9098 15.556 16.9976 15.3349 16.9976ZM12.0001 15.3302C11.8352 15.3302 11.674 15.2813 11.5369 15.1897C11.3998 15.0981 11.2929 14.9679 11.2298 14.8156C11.1667 14.6632 11.1502 14.4956 11.1824 14.3339C11.2146 14.1721 11.294 14.0236 11.4106 13.907C11.5272 13.7904 11.6757 13.711 11.8374 13.6788C11.9992 13.6467 12.1668 13.6632 12.3191 13.7263C12.4715 13.7894 12.6017 13.8962 12.6933 14.0333C12.7849 14.1704 12.8338 14.3316 12.8338 14.4965C12.8338 14.7176 12.746 14.9297 12.5896 15.086C12.4333 15.2424 12.2212 15.3302 12.0001 15.3302Z" fill="#687782"/>
</svg>
