<svg width="24" height="24" viewBox="0 0 24 24" fill="none" xmlns="http://www.w3.org/2000/svg">
<path fill-rule="evenodd" clip-rule="evenodd" d="M14.4 8.4C13.7373 8.4 13.2 7.86274 13.2 7.2C13.2 6.53726 13.7373 6 14.4 6H20.4C21.0628 6 21.6 6.53726 21.6 7.2V13.2C21.6 13.8627 21.0628 14.4 20.4 14.4C19.7373 14.4 19.2 13.8627 19.2 13.2V10.0971L14.0486 15.2485C13.5799 15.7172 12.8201 15.7172 12.3515 15.2485L9.60002 12.4971L4.44855 17.6485C3.97992 18.1172 3.22013 18.1172 2.7515 17.6485C2.28287 17.1799 2.28287 16.4201 2.7515 15.9515L8.7515 9.95147C9.22012 9.48284 9.97992 9.48284 10.4486 9.95147L13.2 12.7029L17.503 8.4H14.4Z" fill="#687782"/>
</svg>
