<svg width="24" height="24" viewBox="0 0 24 24" fill="none" xmlns="http://www.w3.org/2000/svg">
<path fill-rule="evenodd" clip-rule="evenodd" d="M14.4 15.6C13.7373 15.6 13.2 16.1373 13.2 16.8C13.2 17.4627 13.7373 18 14.4 18H20.4C21.0628 18 21.6 17.4627 21.6 16.8V10.8C21.6 10.1373 21.0628 9.6 20.4 9.6C19.7373 9.6 19.2 10.1373 19.2 10.8V13.9029L14.0486 8.75147C13.5799 8.28284 12.8201 8.28284 12.3515 8.75147L9.60002 11.5029L4.44855 6.35147C3.97992 5.88284 3.22013 5.88284 2.7515 6.35147C2.28287 6.8201 2.28287 7.5799 2.7515 8.04853L8.7515 14.0485C9.22012 14.5172 9.97992 14.5172 10.4486 14.0485L13.2 11.2971L17.503 15.6H14.4Z" fill="#687782"/>
</svg>
