<svg width="24" height="24" viewBox="0 0 24 24" fill="none" xmlns="http://www.w3.org/2000/svg">
<path d="M9.59999 19.8C9.59999 20.7942 8.79411 21.6 7.79999 21.6C6.80588 21.6 5.99999 20.7942 5.99999 19.8C5.99999 18.8059 6.80588 18 7.79999 18C8.79411 18 9.59999 18.8059 9.59999 19.8Z" fill="#687782"/>
<path d="M18 19.8C18 20.7942 17.1941 21.6 16.2 21.6C15.2059 21.6 14.4 20.7942 14.4 19.8C14.4 18.8059 15.2059 18 16.2 18C17.1941 18 18 18.8059 18 19.8Z" fill="#687782"/>
<path d="M3.59999 4.80005C2.93725 4.80005 2.39999 5.33731 2.39999 6.00005V18C2.39999 18.6628 2.93725 19.2 3.59999 19.2H4.86C5.13797 17.8307 6.34862 16.8 7.79999 16.8C9.25137 16.8 10.462 17.8307 10.74 19.2H12C12.6627 19.2 13.2 18.6628 13.2 18V6.00005C13.2 5.33731 12.6627 4.80005 12 4.80005H3.59999Z" fill="#687782"/>
<path d="M16.8 8.40005C16.1373 8.40005 15.6 8.93731 15.6 9.60005V16.8601C15.7939 16.8207 15.9945 16.8 16.2 16.8C17.6514 16.8 18.862 17.8307 19.14 19.2H20.4C21.0627 19.2 21.6 18.6628 21.6 18V12C21.6 11.6818 21.4736 11.3766 21.2485 11.1515L18.8485 8.75152C18.6235 8.52648 18.3183 8.40005 18 8.40005H16.8Z" fill="#687782"/>
</svg>
