<svg width="24" height="24" viewBox="0 0 24 24" fill="none" xmlns="http://www.w3.org/2000/svg">
<path d="M12 2.40002C8.68627 2.40002 5.99998 5.08632 5.99998 8.40002V10.8C4.67449 10.8 3.59998 11.8745 3.59998 13.2V19.2C3.59998 20.5255 4.67449 21.6 5.99998 21.6H18C19.3255 21.6 20.4 20.5255 20.4 19.2V13.2C20.4 11.8745 19.3255 10.8 18 10.8H8.39998V8.40002C8.39998 6.4118 10.0118 4.80002 12 4.80002C13.6758 4.80002 15.0869 5.94617 15.4866 7.49913C15.6518 8.14096 16.306 8.52734 16.9479 8.36215C17.5897 8.19695 17.9761 7.54274 17.8109 6.90091C17.1449 4.31333 14.7974 2.40002 12 2.40002Z" fill="#687782"/>
</svg>
