<svg width="24" height="24" viewBox="0 0 24 24" fill="none" xmlns="http://www.w3.org/2000/svg">
<path fill-rule="evenodd" clip-rule="evenodd" d="M3.59998 20.4C3.59998 19.7373 4.13723 19.2 4.79998 19.2H19.2C19.8627 19.2 20.4 19.7373 20.4 20.4C20.4 21.0628 19.8627 21.6 19.2 21.6H4.79998C4.13723 21.6 3.59998 21.0628 3.59998 20.4ZM7.55145 8.04855C7.08282 7.57992 7.08282 6.82013 7.55145 6.3515L11.1514 2.7515C11.3765 2.52645 11.6817 2.40002 12 2.40002C12.3182 2.40002 12.6235 2.52645 12.8485 2.7515L16.4485 6.3515C16.9171 6.82012 16.9171 7.57992 16.4485 8.04855C15.9799 8.51718 15.2201 8.51718 14.7514 8.04855L13.2 6.49708L13.2 15.6C13.2 16.2628 12.6627 16.8 12 16.8C11.3372 16.8 10.8 16.2628 10.8 15.6L10.8 6.49708L9.2485 8.04855C8.77988 8.51718 8.02008 8.51718 7.55145 8.04855Z" fill="#687782"/>
</svg>
