<svg width="24" height="24" viewBox="0 0 24 24" fill="none" xmlns="http://www.w3.org/2000/svg">
<path d="M5.5782 3.70041C6.1855 3.96575 6.46272 4.67318 6.19737 5.28048C5.29898 7.33669 4.79999 9.60851 4.79999 12C4.79999 14.3916 5.29898 16.6634 6.19737 18.7196C6.46272 19.3269 6.1855 20.0343 5.5782 20.2997C4.97089 20.565 4.26347 20.2878 3.99813 19.6805C2.96983 17.327 2.39999 14.7285 2.39999 12C2.39999 9.27161 2.96983 6.67311 3.99813 4.31959C4.26347 3.71228 4.97089 3.43507 5.5782 3.70041Z" fill="#687782"/>
<path d="M15.5535 8.40002C14.4599 8.40002 13.4255 8.89715 12.7424 9.75112L12.3494 10.2424L12.2159 9.90869C11.8514 8.99751 10.9689 8.40002 9.98755 8.40002H9.59999C8.93725 8.40002 8.39999 8.93728 8.39999 9.60002C8.39999 10.2628 8.93725 10.8 9.59999 10.8H9.98755L10.6261 12.3964L9.38354 13.9497C9.15581 14.2343 8.81103 14.4 8.44649 14.4H8.39999C7.73725 14.4 7.19999 14.9373 7.19999 15.6C7.19999 16.2628 7.73725 16.8 8.39999 16.8H8.44649C9.54012 16.8 10.5744 16.3029 11.2576 15.4489L11.6506 14.9577L11.7841 15.2914C12.1486 16.2025 13.0311 16.8 14.0124 16.8H14.4C15.0627 16.8 15.6 16.2628 15.6 15.6C15.6 14.9373 15.0627 14.4 14.4 14.4H14.0124L13.3739 12.8036L14.6165 11.2504C14.8442 10.9657 15.189 10.8 15.5535 10.8H15.6C16.2627 10.8 16.8 10.2628 16.8 9.60002C16.8 8.93728 16.2627 8.40002 15.6 8.40002H15.5535Z" fill="#687782"/>
<path d="M17.8026 5.28048C17.5373 4.67318 17.8145 3.96575 18.4218 3.70041C19.0291 3.43507 19.7365 3.71228 20.0019 4.31959C21.0302 6.67311 21.6 9.27161 21.6 12C21.6 14.7285 21.0302 17.327 20.0019 19.6805C19.7365 20.2878 19.0291 20.565 18.4218 20.2997C17.8145 20.0343 17.5373 19.3269 17.8026 18.7196C18.701 16.6634 19.2 14.3916 19.2 12C19.2 9.60851 18.701 7.33669 17.8026 5.28048Z" fill="#687782"/>
</svg>
