<svg width="24" height="24" viewBox="0 0 24 24" fill="none" xmlns="http://www.w3.org/2000/svg">
<path fill-rule="evenodd" clip-rule="evenodd" d="M7.52044 4.14597C8.29212 4.08439 9.02471 3.78094 9.61391 3.27883C10.9889 2.10709 13.0112 2.10709 14.3861 3.27883C14.9753 3.78094 15.7079 4.08439 16.4796 4.14597C18.2804 4.28968 19.7104 5.71965 19.8541 7.52044C19.9157 8.29212 20.2191 9.02471 20.7212 9.61391C21.893 10.9889 21.893 13.0112 20.7212 14.3861C20.2191 14.9753 19.9157 15.7079 19.8541 16.4796C19.7104 18.2804 18.2804 19.7104 16.4796 19.8541C15.7079 19.9157 14.9753 20.2191 14.3861 20.7212C13.0112 21.893 10.9889 21.893 9.61391 20.7212C9.02471 20.2191 8.29212 19.9157 7.52044 19.8541C5.71965 19.7104 4.28968 18.2804 4.14597 16.4796C4.08439 15.7079 3.78094 14.9753 3.27883 14.3861C2.10709 13.0112 2.10709 10.9889 3.27883 9.61391C3.78094 9.02471 4.08439 8.29212 4.14597 7.52044C4.28968 5.71965 5.71965 4.28968 7.52044 4.14597ZM16.4486 10.4486C16.9172 9.97992 16.9172 9.22012 16.4486 8.7515C15.9799 8.28287 15.2201 8.28287 14.7515 8.7515L10.8 12.703L9.24855 11.1515C8.77992 10.6829 8.02012 10.6829 7.5515 11.1515C7.08287 11.6201 7.08287 12.3799 7.5515 12.8486L9.9515 15.2486C10.4201 15.7172 11.1799 15.7172 11.6486 15.2486L16.4486 10.4486Z" fill="#687782"/>
</svg>
