<svg width="24" height="24" viewBox="0 0 24 24" fill="none" xmlns="http://www.w3.org/2000/svg">
<path d="M22.0927 5.01914C21.197 3.42689 19.6048 2.53125 17.8134 2.53125H5.97098C4.1797 2.53125 2.58741 3.42689 1.69177 5.01914C0.597094 7.00945 0 9.19884 0 11.4877C0 16.9611 2.18934 21.4394 4.97583 21.4394C6.46856 21.4394 7.6628 20.0461 8.55844 17.1601C8.65795 16.7621 9.05602 16.4635 9.55359 16.4635H14.4299C14.828 16.4635 15.226 16.7621 15.4251 17.1601C16.3207 20.0461 17.5149 21.4394 19.0077 21.4394C21.7942 21.4394 23.9835 16.9611 23.9835 11.4877C23.7845 9.1988 23.1874 7.00945 22.0927 5.01914ZM8.9565 10.4925H7.96134V11.4877C7.96134 12.0848 7.56328 12.4829 6.96619 12.4829C6.36909 12.4829 5.97103 12.0848 5.97103 11.4877V10.4925H4.97588C4.37878 10.4925 3.98072 10.0945 3.98072 9.49739C3.98072 8.9003 4.37878 8.50223 4.97588 8.50223H5.97103V7.50708C5.97103 6.90998 6.36909 6.51192 6.96619 6.51192C7.56328 6.51192 7.96134 6.90998 7.96134 7.50708V8.50223H8.9565C9.55359 8.50223 9.95166 8.9003 9.95166 9.49739C9.95166 10.0945 9.55359 10.4925 8.9565 10.4925ZM15.5246 12.4829C14.7285 12.4829 14.0318 11.7863 14.0318 10.9901C14.0318 10.194 14.7285 9.49739 15.5246 9.49739C16.3207 9.49739 17.0173 10.194 17.0173 10.9901C17.0173 11.7863 16.2212 12.4829 15.5246 12.4829ZM18.4106 9.49739C17.714 9.49739 16.9178 8.80078 16.9178 8.00466C16.9178 7.20853 17.714 6.51192 18.4106 6.51192C19.1072 6.51192 19.9033 7.20853 19.9033 8.00466C19.9033 8.80078 19.2067 9.49739 18.4106 9.49739Z" fill="#687782"/>
</svg>
