<svg width="24" height="24" viewBox="0 0 24 24" fill="none" xmlns="http://www.w3.org/2000/svg">
<path fill-rule="evenodd" clip-rule="evenodd" d="M21.3337 9.86617C16.1788 4.71125 7.82103 4.71125 2.66611 9.86617C2.19748 10.3348 1.43769 10.3348 0.969056 9.86617C0.500427 9.39754 0.500427 8.63774 0.969056 8.16911C7.06123 2.07693 16.9386 2.07693 23.0308 8.16911C23.4994 8.63774 23.4994 9.39754 23.0308 9.86617C22.5622 10.3348 21.8024 10.3348 21.3337 9.86617ZM17.9396 13.2603C14.6592 9.97988 9.34063 9.97988 6.06022 13.2603C5.5916 13.7289 4.8318 13.7289 4.36317 13.2603C3.89454 12.7917 3.89454 12.0319 4.36317 11.5632C8.58083 7.34557 15.419 7.34557 19.6367 11.5632C20.1053 12.0319 20.1053 12.7917 19.6367 13.2603C19.168 13.7289 18.4082 13.7289 17.9396 13.2603ZM14.5455 16.6544C13.1396 15.2485 10.8602 15.2485 9.45434 16.6544C8.98571 17.123 8.22591 17.123 7.75728 16.6544C7.28865 16.1858 7.28865 15.426 7.75728 14.9574C10.1004 12.6142 13.8994 12.6142 16.2426 14.9574C16.7112 15.426 16.7112 16.1858 16.2426 16.6544C15.7739 17.123 15.0141 17.123 14.5455 16.6544ZM10.7999 19.2C10.7999 18.5373 11.3372 18 11.9999 18H12.0119C12.6747 18 13.2119 18.5373 13.2119 19.2C13.2119 19.8627 12.6747 20.4 12.0119 20.4H11.9999C11.3372 20.4 10.7999 19.8627 10.7999 19.2Z" fill="#687782"/>
</svg>
