<svg width="24" height="24" viewBox="0 0 24 24" fill="none" xmlns="http://www.w3.org/2000/svg">
<path fill-rule="evenodd" clip-rule="evenodd" d="M12 21.6C17.3019 21.6 21.6 17.302 21.6 12C21.6 6.69809 17.3019 2.40002 12 2.40002C6.69806 2.40002 2.39999 6.69809 2.39999 12C2.39999 17.302 6.69806 21.6 12 21.6ZM5.19814 9.63291C5.6465 8.34435 6.45069 7.22239 7.49304 6.38469C7.81451 6.87562 8.36939 7.19992 9.00001 7.19992C9.99412 7.19992 10.8 8.0058 10.8 8.99992V9.59992C10.8 10.9254 11.8745 11.9999 13.2 11.9999C14.5255 11.9999 15.6 10.9254 15.6 9.59992C15.6 8.47178 16.3784 7.52543 17.4274 7.26865C18.5313 8.53395 19.2 10.1889 19.2 11.9999C19.2 12.4089 19.1659 12.8098 19.1004 13.2001H18C16.6745 13.2001 15.6 14.2746 15.6 15.6001V18.2367C14.5409 18.8493 13.3113 19.1999 11.9999 19.1999V16.8C11.9999 15.4745 10.9254 14.4 9.59989 14.4C8.27441 14.4 7.19989 13.3255 7.19989 12C7.19989 10.8102 6.33409 9.82262 5.19814 9.63291Z" fill="#687782"/>
</svg>
