<svg width="24" height="24" viewBox="0 0 24 24" fill="none" xmlns="http://www.w3.org/2000/svg">
<path d="M20.8971 3.10297C19.9598 2.16571 18.4402 2.16571 17.503 3.10297L8.40002 12.2059V15.6H11.7941L20.8971 6.49708C21.8343 5.55982 21.8343 4.04023 20.8971 3.10297Z" fill="#687782"/>
<path fill-rule="evenodd" clip-rule="evenodd" d="M2.40002 7.20002C2.40002 5.87454 3.47454 4.80002 4.80002 4.80002H9.60002C10.2628 4.80002 10.8 5.33728 10.8 6.00002C10.8 6.66277 10.2628 7.20002 9.60002 7.20002H4.80002V19.2H16.8V14.4C16.8 13.7373 17.3373 13.2 18 13.2C18.6628 13.2 19.2 13.7373 19.2 14.4V19.2C19.2 20.5255 18.1255 21.6 16.8 21.6H4.80002C3.47454 21.6 2.40002 20.5255 2.40002 19.2V7.20002Z" fill="#687782"/>
</svg>
