<svg width="25" height="24" viewBox="0 0 25 24" fill="none" xmlns="http://www.w3.org/2000/svg">
<path fill-rule="evenodd" clip-rule="evenodd" d="M15.8698 8.07284C15.7316 9.03258 15.125 9.95963 14.2713 10.5157C13.5678 10.9741 13.0651 11.1162 11.9566 11.1702C11.5424 11.1904 11.0715 11.2351 10.9103 11.2696C9.14508 11.6465 7.67142 12.8688 7.00081 14.5119C6.71959 15.201 6.60002 15.8233 6.60229 16.5868C6.60405 17.1834 6.67706 17.6468 6.8603 18.2248C6.94519 18.4925 6.97361 18.6296 6.94027 18.611C6.91185 18.595 6.73077 18.4455 6.53788 18.2787C4.97783 16.9293 3.93387 14.9095 3.71542 12.8179C3.65281 12.2184 3.68849 11.1602 3.79078 10.5833C4.22264 8.14716 5.69186 6.04773 7.86157 4.7662C8.65569 4.29718 9.62823 3.94422 10.6172 3.76624C11.2543 3.65155 12.7445 3.64044 13.1314 3.74746C14.2521 4.05751 15.1162 4.77645 15.5826 5.78662C15.9052 6.48529 15.9952 7.20208 15.8698 8.07284ZM12.809 4.61028C13.673 4.89634 14.269 5.58231 14.4663 6.51776C14.5307 6.82299 14.4858 7.4378 14.3735 7.78943C14.1372 8.52926 13.5573 9.1109 12.809 9.35866C12.5345 9.44957 12.4295 9.46323 12.0047 9.46323C11.58 9.46323 11.4749 9.44957 11.2004 9.35866C10.4542 9.1116 9.87928 8.53618 9.63241 7.78943C9.54158 7.51471 9.52793 7.40956 9.52793 6.98447C9.52793 6.55938 9.54158 6.45423 9.63241 6.17951C9.87928 5.43276 10.4542 4.85734 11.2004 4.61028C11.4749 4.51937 11.58 4.50572 12.0047 4.50572C12.4295 4.50572 12.5345 4.51937 12.809 4.61028Z" fill="#687782"/>
<path fill-rule="evenodd" clip-rule="evenodd" d="M20.7014 7.03427C21.3917 8.24534 21.8454 9.68905 21.9681 11.0656C22.0971 12.5133 21.8902 14.1028 21.4001 15.4293C21.0572 16.3574 20.4069 17.5008 19.7821 18.274C19.4615 18.6707 18.6786 19.4543 18.2822 19.7751C17.5096 20.4004 16.3671 21.0513 15.4398 21.3944C14.1268 21.8803 12.5412 22.0919 11.1526 21.9666C10.3084 21.8904 9.31593 21.6706 8.56962 21.3944C7.6423 21.0513 6.49981 20.4004 5.72727 19.7751C5.33081 19.4543 4.54792 18.6707 4.22729 18.274C3.80595 17.7525 3.33769 17.0137 3.03669 16.3953C2.68964 15.6823 2.54444 15.3054 2.36656 14.656C1.72288 12.3064 1.94528 9.83742 2.99233 7.70814C3.50045 6.6749 3.98578 5.98604 4.7933 5.15209C5.61755 4.30086 6.49609 3.64814 7.5098 3.13387C8.62981 2.56565 9.71821 2.23049 11.0276 2.05067C11.5875 1.97376 12.9037 1.98299 13.4509 2.0676C16.549 2.54683 19.1646 4.33857 20.7014 7.03427ZM19.2242 16.138C19.6897 15.3487 20.0459 14.3687 20.2195 13.3997C20.3114 12.887 20.3505 11.5567 20.2885 11.0527C20.0363 9.00098 18.9931 7.02034 17.4715 5.70431C17.2787 5.53748 17.0976 5.38797 17.0692 5.37205C17.0358 5.35339 17.0642 5.4905 17.1491 5.75826C17.3324 6.33618 17.4054 6.79964 17.4071 7.39618C17.4094 8.15968 17.2898 8.78203 17.0086 9.47109C16.5015 10.7136 15.5526 11.7079 14.3074 12.3016C13.6004 12.6387 13.0339 12.7637 11.8288 12.8486C10.752 12.9244 9.92654 13.3001 9.26461 14.0156C8.17715 15.1912 7.94983 16.9213 8.6963 18.3417C9.15974 19.2236 9.97184 19.8843 10.9713 20.1927C11.3063 20.296 11.3544 20.3004 12.1415 20.2992C13.0652 20.2978 13.4914 20.2389 14.3305 19.9968C16.3398 19.4171 18.1169 18.0158 19.2242 16.138ZM14.2713 10.5157C15.125 9.95963 15.7316 9.03258 15.8698 8.07284C15.9952 7.20208 15.9052 6.48529 15.5826 5.78662C15.1162 4.77645 14.2521 4.05751 13.1314 3.74746C12.7445 3.64044 11.2543 3.65155 10.6172 3.76624C9.62823 3.94422 8.65569 4.29718 7.86157 4.7662C5.69186 6.04773 4.22264 8.14716 3.79078 10.5833C3.68849 11.1602 3.65281 12.2184 3.71542 12.8179C3.93387 14.9095 4.97783 16.9293 6.53788 18.2787C6.73077 18.4455 6.91185 18.595 6.94027 18.611C6.97361 18.6296 6.94519 18.4925 6.8603 18.2248C6.67706 17.6468 6.60405 17.1834 6.60229 16.5868C6.60002 15.8233 6.71959 15.201 7.00081 14.5119C7.67142 12.8688 9.14508 11.6465 10.9103 11.2696C11.0715 11.2351 11.5424 11.1904 11.9566 11.1702C13.0651 11.1162 13.5678 10.9741 14.2713 10.5157ZM12.809 14.6243C13.673 14.9104 14.269 15.5964 14.4663 16.5318C14.5307 16.8371 14.4858 17.4519 14.3735 17.8035C14.1372 18.5433 13.5573 19.125 12.809 19.3727C12.5345 19.4636 12.4295 19.4773 12.0047 19.4773C11.58 19.4773 11.4749 19.4636 11.2004 19.3727C10.4542 19.1257 9.87928 18.5502 9.63241 17.8035C9.54158 17.5288 9.52793 17.4236 9.52793 16.9985C9.52793 16.5734 9.54158 16.4683 9.63241 16.1936C9.87928 15.4468 10.4542 14.8714 11.2004 14.6243C11.4749 14.5334 11.58 14.5198 12.0047 14.5198C12.4295 14.5198 12.5345 14.5334 12.809 14.6243ZM12.0047 17.8183C12.3666 17.8183 12.6367 17.6489 12.765 17.3415C12.892 17.0375 12.8079 16.5886 12.5858 16.3843C12.2752 16.0985 11.6683 16.1151 11.391 16.4169C11.262 16.5573 11.1839 16.7767 11.1839 16.9985C11.1839 17.4913 11.5113 17.8183 12.0047 17.8183Z" fill="#687782"/>
<path d="M12.765 7.32745C12.6367 7.63488 12.3666 7.80422 12.0047 7.80422C11.5113 7.80422 11.1839 7.47727 11.1839 6.98447C11.1839 6.76267 11.262 6.54323 11.391 6.40287C11.6683 6.101 12.2752 6.08442 12.5858 6.37025C12.8079 6.57456 12.892 7.02343 12.765 7.32745Z" fill="#687782"/>
</svg>
