<svg width="24" height="24" viewBox="0 0 24 24" fill="none" xmlns="http://www.w3.org/2000/svg">
<path fill-rule="evenodd" clip-rule="evenodd" d="M11.9999 21.6C17.3018 21.6 21.5999 17.3019 21.5999 12C21.5999 6.69806 17.3018 2.39999 11.9999 2.39999C6.69797 2.39999 2.3999 6.69806 2.3999 12C2.3999 17.3019 6.69797 21.6 11.9999 21.6ZM9.42893 6.58249C9.08795 6.01419 8.35084 5.82991 7.78254 6.17089C7.21425 6.51187 7.02997 7.24898 7.37095 7.81728L9.16051 10.7999H8.39994C7.7372 10.7999 7.19994 11.3371 7.19994 11.9999C7.19994 12.6626 7.7372 13.1999 8.39994 13.1999H10.6005L10.7999 13.5323V14.3999H8.39994C7.7372 14.3999 7.19994 14.9371 7.19994 15.5999C7.19994 16.2626 7.7372 16.7999 8.39994 16.7999H10.7999V17.9999C10.7999 18.6626 11.3372 19.1999 11.9999 19.1999C12.6627 19.1999 13.1999 18.6626 13.1999 17.9999V16.7999H15.5999C16.2627 16.7999 16.7999 16.2626 16.7999 15.5999C16.7999 14.9371 16.2627 14.3999 15.5999 14.3999H13.1999V13.5323L13.3994 13.1999H15.5999C16.2627 13.1999 16.7999 12.6626 16.7999 11.9999C16.7999 11.3371 16.2627 10.7999 15.5999 10.7999H14.8394L16.6289 7.81728C16.9699 7.24898 16.7856 6.51187 16.2173 6.17089C15.649 5.82991 14.9119 6.01419 14.5709 6.58249L12.0405 10.7999H11.9594L9.42893 6.58249Z" fill="#687782"/>
</svg>
