<svg width="24" height="24" viewBox="0 0 24 24" fill="none" xmlns="http://www.w3.org/2000/svg">
<path fill-rule="evenodd" clip-rule="evenodd" d="M7.99359 1.99997H5.58974C4.63768 1.99997 3.72462 2.37817 3.05141 3.05138C2.3782 3.72459 2 4.63765 2 5.58971V7.99356C2 8.94562 2.3782 9.85868 3.05141 10.5319C3.72462 11.2051 4.63768 11.5833 5.58974 11.5833H7.99359C8.94565 11.5833 9.85871 11.2051 10.5319 10.5319C11.2051 9.85868 11.5833 8.94562 11.5833 7.99356V5.58971C11.5833 4.63765 11.2051 3.72459 10.5319 3.05138C9.85871 2.37817 8.94565 1.99997 7.99359 1.99997ZM9.21153 7.99356C9.21153 8.31658 9.08321 8.62637 8.85481 8.85477C8.6264 9.08318 8.31661 9.2115 7.99359 9.2115H5.58974C5.26672 9.2115 4.95693 9.08318 4.72852 8.85477C4.50011 8.62637 4.37179 8.31658 4.37179 7.99356V5.58971C4.37179 5.26669 4.50011 4.9569 4.72852 4.72849C4.95693 4.50008 5.26672 4.37176 5.58974 4.37176H7.99359C8.31661 4.37176 8.6264 4.50008 8.85481 4.72849C9.08321 4.9569 9.21153 5.26669 9.21153 5.58971V7.99356ZM18.4103 1.99997H16.0064C15.0543 1.99997 14.1413 2.37817 13.4681 3.05138C12.7949 3.72459 12.4167 4.63765 12.4167 5.58971V7.99356C12.4167 8.94562 12.7949 9.85868 13.4681 10.5319C14.1413 11.2051 15.0543 11.5833 16.0064 11.5833H18.4103C19.3623 11.5833 20.2754 11.2051 20.9486 10.5319C21.6218 9.85868 22 8.94562 22 7.99356V5.58971C22 4.63765 21.6218 3.72459 20.9486 3.05138C20.2754 2.37817 19.3623 1.99997 18.4103 1.99997ZM19.6282 7.99356C19.6282 8.31658 19.4999 8.62637 19.2715 8.85478C19.0431 9.08319 18.7333 9.21151 18.4103 9.21151H16.0064C15.6834 9.21151 15.3736 9.08319 15.1452 8.85478C14.9168 8.62637 14.7885 8.31658 14.7885 7.99356V5.58971C14.7885 5.26669 14.9168 4.9569 15.1452 4.72849C15.3736 4.50008 15.6834 4.37176 16.0064 4.37176H18.4103C18.7333 4.37176 19.0431 4.50008 19.2715 4.72849C19.4999 4.9569 19.6282 5.26669 19.6282 5.58971V7.99356ZM7.99359 12.4166H5.58974C4.63768 12.4166 3.72462 12.7948 3.05141 13.468C2.3782 14.1412 2 15.0543 2 16.0064V18.4102C2 19.3623 2.3782 20.2754 3.05141 20.9486C3.72462 21.6218 4.63768 22 5.58974 22H7.99359C8.94565 22 9.85871 21.6218 10.5319 20.9486C11.2051 20.2754 11.5833 19.3623 11.5833 18.4102V16.0064C11.5833 15.0543 11.2051 14.1412 10.5319 13.468C9.85872 12.7948 8.94565 12.4166 7.99359 12.4166ZM9.21154 18.4102C9.21154 18.7332 9.08322 19.043 8.85481 19.2714C8.6264 19.4999 8.31661 19.6282 7.99359 19.6282H5.58974C5.26672 19.6282 4.95693 19.4999 4.72852 19.2714C4.50011 19.043 4.3718 18.7332 4.3718 18.4102V16.0064C4.3718 15.6834 4.50011 15.3736 4.72852 15.1452C4.95693 14.9167 5.26672 14.7884 5.58974 14.7884H7.99359C8.31661 14.7884 8.6264 14.9167 8.85481 15.1452C9.08322 15.3736 9.21154 15.6834 9.21154 16.0064V18.4102ZM18.4103 12.4166H16.0064C15.0543 12.4166 14.1413 12.7948 13.4681 13.468C12.7949 14.1412 12.4167 15.0543 12.4167 16.0064V18.4102C12.4167 19.3623 12.7949 20.2754 13.4681 20.9486C14.1413 21.6218 15.0543 22 16.0064 22H18.4103C19.3623 22 20.2754 21.6218 20.9486 20.9486C21.6218 20.2754 22 19.3623 22 18.4102V16.0064C22 15.0543 21.6218 14.1412 20.9486 13.468C20.2754 12.7948 19.3623 12.4166 18.4103 12.4166ZM19.6282 18.4102C19.6282 18.7332 19.4999 19.043 19.2715 19.2714C19.0431 19.4999 18.7333 19.6282 18.4103 19.6282H16.0064C15.6834 19.6282 15.3736 19.4999 15.1452 19.2714C14.9168 19.043 14.7885 18.7332 14.7885 18.4102V16.0064C14.7885 15.6834 14.9168 15.3736 15.1452 15.1452C15.3736 14.9167 15.6834 14.7884 16.0064 14.7884H18.4103C18.7333 14.7884 19.0431 14.9167 19.2715 15.1452C19.4999 15.3736 19.6282 15.6834 19.6282 16.0064V18.4102ZM3.79781 2.93229C3.6287 3.04632 3.46969 3.17703 3.32338 3.32334C3.09797 3.54875 2.90961 3.80427 2.7622 4.08045C2.90961 3.80427 3.09797 3.54875 3.32338 3.32335C3.46969 3.17703 3.6287 3.04632 3.79781 2.93229Z" fill="#687782"/>
</svg>
