<svg width="24" height="24" viewBox="0 0 24 24" fill="none" xmlns="http://www.w3.org/2000/svg">
<path fill-rule="evenodd" clip-rule="evenodd" d="M6.92937 1.2726C7.46283 1.12966 8.01117 1.44624 8.15411 1.97971L8.93057 4.87749C9.07351 5.41095 8.75693 5.95929 8.22346 6.10223C7.69 6.24517 7.14166 5.92859 6.99872 5.39513L6.22226 2.49735C6.07932 1.96388 6.3959 1.41555 6.92937 1.2726ZM14.6568 3.34319C15.0473 3.73371 15.0473 4.36688 14.6568 4.7574L12.5354 6.87872C12.1449 7.26925 11.5118 7.26925 11.1212 6.87872C10.7307 6.4882 10.7307 5.85503 11.1212 5.46451L13.2426 3.34319C13.6331 2.95267 14.2662 2.95267 14.6568 3.34319ZM1.27248 6.92945C1.41542 6.39598 1.96376 6.0794 2.49723 6.22234L5.395 6.9988C5.92847 7.14174 6.24505 7.69008 6.10211 8.22355C5.95917 8.75701 5.41083 9.07359 4.87737 8.93065L1.97959 8.15419C1.44612 8.01125 1.12954 7.46292 1.27248 6.92945ZM8.29285 8.2929C8.56758 8.01817 8.97656 7.92744 9.3417 8.06021L20.3417 12.0602C20.7314 12.2019 20.9932 12.5695 20.9998 12.9841C21.0064 13.3988 20.7564 13.7745 20.3713 13.9285L16.7794 15.3653L20.7071 19.2929C21.0976 19.6834 21.0976 20.3166 20.7071 20.7071C20.3165 21.0976 19.6834 21.0976 19.2928 20.7071L15.3652 16.7795L13.9284 20.3714C13.7744 20.7564 13.3987 21.0065 12.9841 20.9999C12.5694 20.9933 12.2019 20.7315 12.0602 20.3417L8.06016 9.34175C7.92739 8.97661 8.01812 8.56763 8.29285 8.2929ZM10.6721 10.6721L13.0444 17.1962L14.0715 14.6286C14.1731 14.3745 14.3745 14.1732 14.6286 14.0715L17.1961 13.0445L10.6721 10.6721ZM6.87869 11.1213C7.26922 11.5118 7.26922 12.145 6.87869 12.5355L4.75737 14.6568C4.36685 15.0473 3.73368 15.0473 3.34316 14.6568C2.95263 14.2663 2.95263 13.6331 3.34316 13.2426L5.46448 11.1213C5.855 10.7307 6.48817 10.7307 6.87869 11.1213Z" fill="#687782"/>
</svg>
