<svg width="24" height="24" viewBox="0 0 24 24" fill="none" xmlns="http://www.w3.org/2000/svg">
<path fill-rule="evenodd" clip-rule="evenodd" d="M13.7678 20.0955C13.7678 21.1473 12.9151 22 11.8633 22H11.7678C10.1109 22 8.7678 20.6569 8.7678 19V15H5.00387C2.77372 15 1.32324 12.6531 2.32059 10.6584L5.82059 3.65836C6.32876 2.64201 7.36755 2 8.50387 2H12.5216C12.7669 2 13.0112 2.03008 13.2492 2.08957L16.8909 3H18.7678C20.4247 3 21.7678 4.34314 21.7678 6V12C21.7678 13.6569 20.4247 15 18.7678 15H16.6363L14.2075 18.6432C13.9208 19.0733 13.7678 19.5786 13.7678 20.0955ZM17.7678 13H18.7678C19.3201 13 19.7678 12.5523 19.7678 12V6C19.7678 5.44772 19.3201 5 18.7678 5H17.7678V13ZM15.7678 4.78078V12.6972L12.5434 17.5338C12.0553 18.2659 11.7869 19.1216 11.7688 20C11.2165 20 10.7678 19.5523 10.7678 19V15H11.7678C12.3201 15 12.7678 14.5523 12.7678 14C12.7678 13.4477 12.3201 13 11.7678 13H5.00387C4.26049 13 3.77699 12.2177 4.10944 11.5528L7.60944 4.55279C7.77884 4.214 8.1251 4 8.50387 4H12.5216C12.6034 4 12.6848 4.01003 12.7641 4.02986L15.7678 4.78078Z" fill="#687782"/>
</svg>
