<svg width="24" height="24" viewBox="0 0 24 24" fill="none" xmlns="http://www.w3.org/2000/svg">
<path fill-rule="evenodd" clip-rule="evenodd" d="M19.5607 4.43934C18.9749 3.85355 18.0251 3.85355 17.4393 4.43934L16.6465 5.23223L18.7678 7.35355L19.5607 6.56066C20.1465 5.97487 20.1465 5.02513 19.5607 4.43934ZM17.3536 8.76777L15.2322 6.64645L4.00006 17.8786V20.0355H6.08585L17.3536 8.76777ZM16.0251 3.02513C17.392 1.65829 19.608 1.65829 20.9749 3.02513C22.3417 4.39196 22.3417 6.60804 20.9749 7.97487L7.20717 21.7426C7.01963 21.9301 6.76528 22.0355 6.50006 22.0355H3.00006C2.44778 22.0355 2.00006 21.5878 2.00006 21.0355V17.4644C2.00006 17.1992 2.10542 16.9448 2.29295 16.7573L16.0251 3.02513Z" fill="#687782"/>
</svg>
