<svg width="24" height="24" viewBox="0 0 24 24" fill="none" xmlns="http://www.w3.org/2000/svg">
<path fill-rule="evenodd" clip-rule="evenodd" d="M13.3362 2.05826C13.7343 2.20035 14 2.57738 14 3.00005V9.00005L20 9.00005C20.3864 9.00005 20.7382 9.22265 20.9037 9.57182C21.0691 9.92099 21.0186 10.3342 20.774 10.6333L11.774 21.6333C11.5063 21.9604 11.0619 22.0839 10.6638 21.9418C10.2658 21.7998 10 21.4227 10 21.0001L10 15.0001H4.00001C3.61362 15.0001 3.2618 14.7775 3.09634 14.4283C2.93088 14.0791 2.98138 13.6659 3.22605 13.3668L12.2261 2.36682C12.4937 2.03969 12.9381 1.91616 13.3362 2.05826ZM6.11025 13.0001H11C11.2652 13.0001 11.5196 13.1054 11.7071 13.2929C11.8947 13.4805 12 13.7348 12 14.0001V18.1986L17.8898 11.0001L13 11.0001C12.4477 11.0001 12 10.5523 12 10.0001V5.80146L6.11025 13.0001Z" fill="#687782"/>
</svg>
