<svg width="24" height="24" viewBox="0 0 24 24" fill="none" xmlns="http://www.w3.org/2000/svg">
<path fill-rule="evenodd" clip-rule="evenodd" d="M11.333 2.28555C11.7127 1.94111 12.2872 1.94111 12.6669 2.28556C14.6136 4.05173 17.182 5.12446 20 5.12446C20.1903 5.12446 20.3794 5.11957 20.5672 5.10992C21.0414 5.08554 21.467 5.4024 21.586 5.86824C21.8564 6.92719 22 8.03682 22 9.17896C22 15.3203 17.856 20.478 12.2493 21.9408C12.0858 21.9834 11.9143 21.9834 11.7507 21.9408C6.14397 20.478 2 15.3203 2 9.17896C2 8.03678 2.14361 6.9271 2.41403 5.86811C2.53299 5.40228 2.95867 5.08542 3.43278 5.10979C3.62057 5.11945 3.80968 5.12434 4 5.12434C6.81791 5.12434 9.38626 4.05165 11.333 2.28555ZM4.18146 7.15031C4.06234 7.80754 4 8.48549 4 9.17896C4 14.2815 7.38244 18.5858 12 19.9093C16.6176 18.5858 20 14.2815 20 9.17896C20 8.48553 19.9377 7.80762 19.8186 7.15043C16.8723 7.10954 14.1613 6.07423 11.9999 4.36177C9.83862 6.07415 7.12763 7.10941 4.18146 7.15031ZM12 8.16535C12.5523 8.16535 13 8.61916 13 9.17896V11.2062C13 11.766 12.5523 12.2198 12 12.2198C11.4477 12.2198 11 11.766 11 11.2062V9.17896C11 8.61916 11.4477 8.16535 12 8.16535ZM11 15.2607C11 14.7008 11.4477 14.247 12 14.247H12.01C12.5623 14.247 13.01 14.7008 13.01 15.2607C13.01 15.8205 12.5623 16.2743 12.01 16.2743H12C11.4477 16.2743 11 15.8205 11 15.2607Z" fill="#687782"/>
</svg>
