<svg width="24" height="24" viewBox="0 0 24 24" fill="none" xmlns="http://www.w3.org/2000/svg">
<path fill-rule="evenodd" clip-rule="evenodd" d="M11.9999 2C12.5522 2 12.9999 2.44772 12.9999 3V4C12.9999 4.55228 12.5522 5 11.9999 5C11.4477 5 10.9999 4.55228 10.9999 4V3C10.9999 2.44772 11.4477 2 11.9999 2ZM4.92888 4.92893C5.3194 4.53841 5.95257 4.53841 6.34309 4.92893L7.0502 5.63604C7.44072 6.02656 7.44072 6.65973 7.0502 7.05025C6.65967 7.44078 6.02651 7.44078 5.63599 7.05025L4.92888 6.34315C4.53835 5.95262 4.53835 5.31946 4.92888 4.92893ZM19.071 4.92893C19.4615 5.31946 19.4615 5.95262 19.071 6.34315L18.3639 7.05025C17.9734 7.44078 17.3402 7.44078 16.9497 7.05025C16.5592 6.65973 16.5592 6.02656 16.9497 5.63604L17.6568 4.92893C18.0473 4.53841 18.6805 4.53841 19.071 4.92893ZM9.17152 9.1716C7.60942 10.7337 7.60942 13.2664 9.17152 14.8285L9.71862 15.3755C9.91165 15.5686 10.0848 15.7778 10.2367 16H13.7632C13.9151 15.7778 14.0882 15.5686 14.2813 15.3755L14.8284 14.8285C16.3905 13.2664 16.3905 10.7337 14.8284 9.1716C13.2663 7.6095 10.7336 7.6095 9.17152 9.1716ZM15.2448 17.4187C15.3586 17.188 15.5101 16.9751 15.6955 16.7898L16.2426 16.2427C18.5857 13.8995 18.5857 10.1005 16.2426 7.75738C13.8994 5.41424 10.1005 5.41424 7.75731 7.75738C5.41416 10.1005 5.41416 13.8995 7.75731 16.2427L8.3044 16.7898C8.48976 16.9751 8.64131 17.188 8.75509 17.4187C8.76009 17.4295 8.76527 17.4403 8.77064 17.4509C8.92021 17.7661 8.99995 18.1134 8.99995 18.469V19C8.99995 20.6569 10.3431 22 11.9999 22C13.6568 22 14.9999 20.6569 14.9999 19V18.469C14.9999 18.1134 15.0797 17.7661 15.2292 17.4509C15.2346 17.4403 15.2398 17.4295 15.2448 17.4187ZM13.0251 18H10.9748C10.9915 18.155 10.9999 18.3116 10.9999 18.469V19C10.9999 19.5523 11.4477 20 11.9999 20C12.5522 20 12.9999 19.5523 12.9999 19V18.469C12.9999 18.3116 13.0084 18.155 13.0251 18ZM2 11.9999C2 11.4477 2.44772 10.9999 3 10.9999H4C4.55228 10.9999 5 11.4477 5 11.9999C5 12.5522 4.55228 12.9999 4 12.9999H3C2.44772 12.9999 2 12.5522 2 11.9999ZM19 11.9999C19 11.4477 19.4477 10.9999 20 10.9999H21C21.5523 10.9999 22 11.4477 22 11.9999C22 12.5522 21.5523 12.9999 21 12.9999H20C19.4477 12.9999 19 12.5522 19 11.9999Z" fill="#687782"/>
</svg>
