<svg width="24" height="24" viewBox="0 0 24 24" fill="none" xmlns="http://www.w3.org/2000/svg">
<path fill-rule="evenodd" clip-rule="evenodd" d="M12 5C7.46774 5 4 8.24148 4 12C4 13.3518 4.43799 14.619 5.20892 15.6991C5.40232 15.97 5.44821 16.3195 5.33132 16.6312L4.56803 18.6666L7.54855 18.0705C7.76061 18.0281 7.9807 18.0555 8.17582 18.1488C9.30814 18.6899 10.6098 19 12 19C16.5323 19 20 15.7585 20 12C20 8.24148 16.5323 5 12 5ZM2 12C2 6.92196 6.59113 3 12 3C17.4089 3 22 6.92196 22 12C22 17.078 17.4089 21 12 21C10.4347 21 8.94857 20.6761 7.62322 20.0952L3.19612 20.9806C2.84008 21.0518 2.47342 20.9244 2.2382 20.6478C2.00299 20.3712 1.93618 19.9888 2.06367 19.6489L3.27872 16.4087C2.46778 15.1108 2 13.6065 2 12Z" fill="#687782"/>
</svg>
