<svg width="24" height="24" viewBox="0 0 24 24" fill="none" xmlns="http://www.w3.org/2000/svg">
<path fill-rule="evenodd" clip-rule="evenodd" d="M9.35292 2.9388C9.6362 3.22207 9.72307 3.64707 9.57369 4.01879C9.20396 4.93882 9 5.94441 9 7.00009C9 11.4184 12.5817 15.0001 17 15.0001C18.0557 15.0001 19.0613 14.7961 19.9813 14.4264C20.353 14.277 20.778 14.3639 21.0613 14.6472C21.3446 14.9304 21.4314 15.3554 21.2821 15.7272C19.8051 19.4024 16.2071 22.0001 12 22.0001C6.47715 22.0001 2 17.5229 2 12.0001C2 7.79297 4.59771 4.19499 8.27293 2.71803C8.64465 2.56864 9.06964 2.65552 9.35292 2.9388ZM7.08558 5.68681C5.20699 7.15133 4 9.43546 4 12.0001C4 16.4184 7.58172 20.0001 12 20.0001C14.5646 20.0001 16.8488 18.7931 18.3133 16.9145C17.8833 16.971 17.4449 17.0001 17 17.0001C11.4772 17.0001 7 12.5229 7 7.00009C7 6.55519 7.02911 6.1168 7.08558 5.68681Z" fill="#687782"/>
</svg>
