<svg width="24" height="24" viewBox="0 0 24 24" fill="none" xmlns="http://www.w3.org/2000/svg">
<path d="M17.2703 6.09054V16.9173C17.2703 17.5128 17.7576 18 18.353 18C18.9485 18 19.4357 17.5128 19.4357 16.9173V6.09054C19.4357 5.49507 18.9485 5.00786 18.353 5.00786C17.7576 5.00786 17.2703 5.49507 17.2703 6.09054Z" fill="#687782"/>
<path fill-rule="evenodd" clip-rule="evenodd" d="M5 15.8307C5 17.6151 7.03709 18.6336 8.46457 17.563L14.2389 13.2323C15.3937 12.3661 15.3937 10.6339 14.2389 9.76772L8.46457 5.437C7.03709 4.36639 5 5.38494 5 7.16929V15.8307ZM7.16536 15.8307L12.9396 11.5L7.16536 7.16929V15.8307Z" fill="#687782"/>
</svg>
