<svg width="24" height="24" viewBox="0 0 24 24" fill="none" xmlns="http://www.w3.org/2000/svg">
<path d="M17.8334 4.1725V3.25C17.8334 2.91848 17.7017 2.60054 17.4673 2.36612C17.2329 2.1317 16.9149 2 16.5834 2C16.2519 2 15.934 2.1317 15.6995 2.36612C15.4651 2.60054 15.3334 2.91848 15.3334 3.25V3.66667H13.2501V3.25C13.2501 2.91848 13.1184 2.60054 12.884 2.36612C12.6495 2.1317 12.3316 2 12.0001 2C11.6686 2 11.3506 2.1317 11.1162 2.36612C10.8818 2.60054 10.7501 2.91848 10.7501 3.25V3.66667H8.66675V3.25C8.66675 2.91848 8.53505 2.60054 8.30063 2.36612C8.06621 2.1317 7.74827 2 7.41675 2C7.08523 2 6.76729 2.1317 6.53287 2.36612C6.29845 2.60054 6.16675 2.91848 6.16675 3.25V4.1725C5.41503 4.55611 4.78383 5.13982 4.3427 5.85929C3.90158 6.57876 3.66767 7.40606 3.66675 8.25V17.4167C3.66807 18.6318 4.15138 19.7969 5.01064 20.6561C5.86989 21.5154 7.03491 21.9987 8.25008 22H15.7501C16.9652 21.9985 18.1301 21.5151 18.9893 20.6559C19.8485 19.7967 20.3319 18.6318 20.3334 17.4167V8.25C20.3325 7.40606 20.0986 6.57876 19.6575 5.85929C19.2163 5.13982 18.5851 4.55611 17.8334 4.1725ZM17.8334 17.4167C17.8334 17.9692 17.6139 18.4991 17.2232 18.8898C16.8325 19.2805 16.3026 19.5 15.7501 19.5H8.25008C7.69755 19.5 7.16764 19.2805 6.77694 18.8898C6.38624 18.4991 6.16675 17.9692 6.16675 17.4167V8.25C6.16675 7.69747 6.38624 7.16756 6.77694 6.77686C7.16764 6.38616 7.69755 6.16667 8.25008 6.16667H15.7501C16.3026 6.16667 16.8325 6.38616 17.2232 6.77686C17.6139 7.16756 17.8334 7.69747 17.8334 8.25V17.4167ZM16.1668 9.08333C16.1668 9.41485 16.0351 9.7328 15.8006 9.96722C15.5662 10.2016 15.2483 10.3333 14.9168 10.3333H9.08342C8.7519 10.3333 8.43395 10.2016 8.19953 9.96722C7.96511 9.7328 7.83342 9.41485 7.83342 9.08333C7.83342 8.75181 7.96511 8.43387 8.19953 8.19945C8.43395 7.96503 8.7519 7.83333 9.08342 7.83333H14.9168C15.2483 7.83333 15.5662 7.96503 15.8006 8.19945C16.0351 8.43387 16.1668 8.75181 16.1668 9.08333ZM13.2501 13.25C13.2501 13.5815 13.1184 13.8995 12.884 14.1339C12.6495 14.3683 12.3316 14.5 12.0001 14.5H9.08342C8.7519 14.5 8.43395 14.3683 8.19953 14.1339C7.96511 13.8995 7.83342 13.5815 7.83342 13.25C7.83342 12.9185 7.96511 12.6005 8.19953 12.3661C8.43395 12.1317 8.7519 12 9.08342 12H12.0001C12.3316 12 12.6495 12.1317 12.884 12.3661C13.1184 12.6005 13.2501 12.9185 13.2501 13.25Z" fill="#687782"/>
</svg>
