<svg width="24" height="24" viewBox="0 0 24 24" fill="none" xmlns="http://www.w3.org/2000/svg">
<path fill-rule="evenodd" clip-rule="evenodd" d="M7 8C7 7.44772 7.44772 7 8 7H8.01C8.56228 7 9.01 7.44772 9.01 8C9.01 8.55228 8.56228 9 8.01 9H8C7.44772 9 7 8.55228 7 8ZM12 3H7C4.79086 3 3 4.79086 3 7V12C3 12.5118 3.19526 13.0237 3.58579 13.4142L10.5858 20.4142C11.3668 21.1953 12.6332 21.1953 13.4142 20.4142L20.4143 13.4142C21.1953 12.6332 21.1953 11.3668 20.4143 10.5858L13.4142 3.58579C13.0237 3.19525 12.5119 2.99999 12 3ZM12 5H7C5.89543 5 5 5.89543 5 7V12L13.4142 20.4142L12 19L19.0001 12L12 5Z" fill="#687782"/>
</svg>
