<svg width="24" height="24" viewBox="0 0 24 24" fill="none" xmlns="http://www.w3.org/2000/svg">
<path fill-rule="evenodd" clip-rule="evenodd" d="M6.34315 4.92888C6.73367 5.3194 6.73367 5.95257 6.34315 6.34309C3.21895 9.46729 3.21895 14.5326 6.34315 17.6568C6.73367 18.0473 6.73367 18.6805 6.34315 19.071C5.95262 19.4615 5.31946 19.4615 4.92893 19.071C1.02369 15.1658 1.02369 8.83412 4.92893 4.92888C5.31946 4.53836 5.95262 4.53836 6.34315 4.92888ZM17.6569 4.92888C18.0474 4.53836 18.6805 4.53836 19.0711 4.92888C22.9763 8.83412 22.9763 15.1658 19.0711 19.071C18.6805 19.4615 18.0474 19.4615 17.6569 19.071C17.2663 18.6805 17.2663 18.0473 17.6569 17.6568C20.781 14.5326 20.781 9.46729 17.6569 6.34309C17.2663 5.95257 17.2663 5.3194 17.6569 4.92888ZM9.17157 7.75731C9.5621 8.14783 9.5621 8.781 9.17157 9.17152C7.60948 10.7336 7.60948 13.2663 9.17157 14.8284C9.5621 15.2189 9.5621 15.8521 9.17157 16.2426C8.78105 16.6331 8.14788 16.6331 7.75736 16.2426C5.41421 13.8994 5.41421 10.1005 7.75736 7.75731C8.14788 7.36678 8.78105 7.36678 9.17157 7.75731ZM14.8284 7.75731C15.219 7.36678 15.8521 7.36678 16.2426 7.75731C18.5858 10.1005 18.5858 13.8994 16.2426 16.2426C15.8521 16.6331 15.219 16.6331 14.8284 16.2426C14.4379 15.8521 14.4379 15.2189 14.8284 14.8284C16.3905 13.2663 16.3905 10.7336 14.8284 9.17152C14.4379 8.781 14.4379 8.14783 14.8284 7.75731ZM10 11.9999C10 10.8954 10.8954 9.99995 12 9.99995C13.1046 9.99995 14 10.8954 14 11.9999C14 13.1045 13.1046 13.9999 12 13.9999C10.8954 13.9999 10 13.1045 10 11.9999Z" fill="#687782"/>
</svg>
