<svg width="24" height="24" viewBox="0 0 24 24" fill="none" xmlns="http://www.w3.org/2000/svg">
<path d="M3.24956 22C3.41383 22.0003 3.57654 21.9681 3.72828 21.9052C3.88002 21.8422 4.01778 21.7499 4.13361 21.6334L9.09125 16.6724L9.69784 17.2998C10.5038 18.1459 11.6126 18.6374 12.7807 18.6663C13.1829 18.667 13.5822 18.5991 13.9614 18.4655C14.5505 18.2576 15.068 17.8857 15.4527 17.3935C15.8374 16.9013 16.0734 16.3094 16.1328 15.6875C16.2196 14.8669 16.1595 14.0374 15.9553 13.2379L15.9203 13.0712L18.7433 10.2491L19.1199 10.6266C19.397 10.9177 19.768 11.1017 20.1675 11.1463C20.5669 11.1908 20.9693 11.0929 21.3037 10.8699C21.4996 10.7299 21.6627 10.5491 21.7817 10.3399C21.9007 10.1306 21.9727 9.89803 21.9929 9.65817C22.013 9.41831 21.9807 9.17695 21.8983 8.9508C21.8158 8.72466 21.6852 8.51916 21.5154 8.34855L15.7103 2.53019C15.4332 2.23904 15.0622 2.05501 14.6628 2.0105C14.2633 1.96599 13.8609 2.06387 13.5265 2.28689C13.3306 2.42681 13.1675 2.60765 13.0485 2.81689C12.9296 3.02612 12.8575 3.25873 12.8374 3.49858C12.8172 3.73844 12.8495 3.97981 12.932 4.20595C13.0144 4.43209 13.145 4.63759 13.3148 4.80821L13.7481 5.24565L10.9318 8.06276C10.1144 7.84856 9.26496 7.78447 8.42468 7.87362C7.77616 7.94031 7.16026 8.19118 6.64971 8.59661C6.13917 9.00203 5.75529 9.54508 5.54341 10.1616C5.31487 10.7898 5.27006 11.47 5.41423 12.1227C5.5584 12.7754 5.88559 13.3735 6.35747 13.847L7.35733 14.8768L2.36552 19.867C2.1909 20.0418 2.07202 20.2645 2.02391 20.5068C1.97581 20.7492 2.00063 21.0004 2.09524 21.2287C2.18984 21.457 2.35 21.6521 2.55546 21.7894C2.76091 21.9266 3.00246 21.9999 3.24956 22ZM7.89975 10.9949C7.95518 10.8245 8.05883 10.6738 8.19813 10.5611C8.33744 10.4484 8.50643 10.3785 8.68464 10.3599C9.23072 10.3028 9.78263 10.3451 10.3136 10.4849L11.0043 10.6607C11.2144 10.7142 11.4348 10.7122 11.6438 10.6548C11.8529 10.5974 12.0434 10.4866 12.1967 10.3333L15.5145 7.01373L16.976 8.4802L13.6731 11.7839C13.5262 11.9309 13.4183 12.1121 13.3591 12.3113C13.2999 12.5105 13.2913 12.7212 13.334 12.9246L13.5215 13.8103C13.6596 14.3378 13.7014 14.886 13.6448 15.4284C13.6369 15.5812 13.5829 15.728 13.49 15.8495C13.397 15.971 13.2694 16.0615 13.124 16.1091C12.8249 16.1795 12.5119 16.164 12.2211 16.0646C11.9303 15.9651 11.6735 15.7856 11.4801 15.5467L8.14055 12.093C7.99974 11.9521 7.90223 11.7738 7.85955 11.5792C7.81688 11.3845 7.83083 11.1818 7.89975 10.9949Z" fill="#687782"/>
</svg>
