<svg width="24" height="24" viewBox="0 0 24 24" fill="none" xmlns="http://www.w3.org/2000/svg">
<path d="M7.16536 17.9095V7.08268C7.16536 6.48721 6.67815 6 6.08268 6C5.48721 6 5 6.48721 5 7.08268V17.9095C5 18.5049 5.48721 18.9921 6.08268 18.9921C6.67815 18.9921 7.16536 18.5049 7.16536 17.9095Z" fill="#687782"/>
<path fill-rule="evenodd" clip-rule="evenodd" d="M19.4357 8.16929C19.4357 6.38494 17.3986 5.36639 15.9711 6.437L10.1969 10.7677C9.042 11.6339 9.042 13.3661 10.1969 14.2323L15.9711 18.563C17.3986 19.6336 19.4357 18.6151 19.4357 16.8307V8.16929ZM17.2703 8.16929L11.4961 12.5L17.2703 16.8307V8.16929Z" fill="#687782"/>
</svg>
