<svg width="24" height="24" viewBox="0 0 24 24" fill="none" xmlns="http://www.w3.org/2000/svg">
<path d="M9.14286 6C9.93184 6 10.5714 6.63959 10.5714 7.42857C10.5714 8.21755 9.93184 8.85714 9.14286 8.85714C7.86679 8.85714 6.72099 9.41484 5.93588 10.2998C6.05126 10.2905 6.16793 10.2857 6.28571 10.2857C8.65265 10.2857 10.5714 12.2045 10.5714 14.5714C10.5714 16.9384 8.65265 18.8571 6.28571 18.8571C3.91878 18.8571 2 16.9384 2 14.5714V13.1429C2 9.19797 5.19797 6 9.14286 6ZM20.5714 6C21.3604 6 22 6.63959 22 7.42857C22 8.21755 21.3604 8.85714 20.5714 8.85714C19.2954 8.85714 18.1496 9.41484 17.3645 10.2998C17.4798 10.2905 17.5965 10.2857 17.7143 10.2857C20.0812 10.2857 22 12.2045 22 14.5714C22 16.9384 20.0812 18.8571 17.7143 18.8571C15.3474 18.8571 13.4286 16.9384 13.4286 14.5714V13.1429C13.4286 9.19797 16.6265 6 20.5714 6ZM6.28571 13.1429C5.49674 13.1429 4.85714 13.7825 4.85714 14.5714C4.85714 15.3604 5.49674 16 6.28571 16C7.07469 16 7.71429 15.3604 7.71429 14.5714C7.71429 13.7825 7.07469 13.1429 6.28571 13.1429ZM17.7143 13.1429C16.9253 13.1429 16.2857 13.7825 16.2857 14.5714C16.2857 15.3604 16.9253 16 17.7143 16C18.5033 16 19.1429 15.3604 19.1429 14.5714C19.1429 13.7825 18.5033 13.1429 17.7143 13.1429Z" fill="#687782"/>
</svg>
