<svg width="24" height="24" viewBox="0 0 24 24" fill="none" xmlns="http://www.w3.org/2000/svg">
<path fill-rule="evenodd" clip-rule="evenodd" d="M8.80002 6.39997C10.1185 5.41111 12 6.35188 12 7.99997V9.99997L16.8 6.39997C18.1185 5.41111 20 6.35188 20 7.99997V16C20 17.6481 18.1185 18.5888 16.8 17.6L12 14V16C12 17.6481 10.1185 18.5888 8.80002 17.6L3.46669 13.6C2.40002 12.8 2.40002 11.2 3.46669 10.4L8.80002 6.39997ZM10 7.99997L4.66669 12L10 16V7.99997ZM18 7.99997L12.6667 12L18 16L18 7.99997Z" fill="#687782"/>
</svg>
