<svg width="24" height="24" viewBox="0 0 24 24" fill="none" xmlns="http://www.w3.org/2000/svg">
<path fill-rule="evenodd" clip-rule="evenodd" d="M10.1 4.9C8.58827 4.9 7.13845 5.50053 6.06949 6.56949C5.00053 7.63845 4.4 9.08827 4.4 10.6C4.4 11.3485 4.54743 12.0897 4.83389 12.7813C5.12034 13.4729 5.5402 14.1012 6.06949 14.6305C6.59879 15.1598 7.22715 15.5797 7.9187 15.8661C8.61026 16.1526 9.35146 16.3 10.1 16.3C10.8485 16.3 11.5897 16.1526 12.2813 15.8661C12.9729 15.5797 13.6012 15.1598 14.1305 14.6305C14.6598 14.1012 15.0797 13.4729 15.3661 12.7813C15.6526 12.0897 15.8 11.3485 15.8 10.6C15.8 9.08827 15.1995 7.63845 14.1305 6.56949C13.0616 5.50053 11.6117 4.9 10.1 4.9ZM4.72599 5.22599C6.15126 3.80071 8.08435 3 10.1 3C12.1156 3 14.0487 3.80071 15.474 5.22599C16.8993 6.65126 17.7 8.58435 17.7 10.6C17.7 11.598 17.5034 12.5863 17.1215 13.5084C16.8613 14.1364 16.5187 14.7254 16.1036 15.2601L21.2218 20.3782C21.5928 20.7492 21.5928 21.3508 21.2218 21.7218C20.8508 22.0928 20.2492 22.0928 19.8782 21.7218L14.7601 16.6036C14.2254 17.0187 13.6364 17.3613 13.0084 17.6215C12.0863 18.0034 11.098 18.2 10.1 18.2C9.10195 18.2 8.11368 18.0034 7.19161 17.6215C6.26953 17.2395 5.43171 16.6797 4.72599 15.974C4.02026 15.2683 3.46045 14.4305 3.07852 13.5084C2.69658 12.5863 2.5 11.598 2.5 10.6C2.5 8.58435 3.30071 6.65126 4.72599 5.22599Z" fill="#687782"/>
</svg>
