<svg width="24" height="24" viewBox="0 0 24 24" fill="none" xmlns="http://www.w3.org/2000/svg">
<path fill-rule="evenodd" clip-rule="evenodd" d="M19.0469 6.28571C19.5992 6.28571 20.0469 6.73343 20.0469 7.28572V16.7143C20.0469 17.2666 19.5992 17.7143 19.0469 17.7143H18.4428C17.8905 17.7143 17.4428 17.2666 17.4428 16.7143V7.28571C17.4428 6.73343 17.8905 6.28571 18.4428 6.28571H19.0469ZM15.4897 6.28571C15.4897 5.02331 16.3641 4 17.4428 4H20.0469C21.1256 4 22.0001 5.02331 22.0001 6.28571V17.7143C22.0001 18.9767 21.1256 20 20.0469 20L17.423 20H10.9126V20L8.51039 20H4.17013C2.9716 20 2 18.9927 2 17.75V16.25C2 15.0073 2.9716 14 4.17013 14H6.35753C6.44943 12.8801 7.38277 12 8.52058 12H10.9126V10.25C10.9126 9.00734 11.787 8.00001 12.8657 8.00001H15.4897V6.28571ZM14.4699 10.25C15.0222 10.25 15.4699 10.6977 15.4699 11.25V16.75C15.4699 17.3023 15.0222 17.75 14.4699 17.75H13.8657C13.3134 17.75 12.8657 17.3023 12.8657 16.75V11.25C12.8657 10.6977 13.3134 10.25 13.8657 10.25H14.4699ZM10.6911 15.1818C10.6911 14.6295 10.2434 14.1818 9.69107 14.1818H9.52058C8.9683 14.1818 8.52058 14.6295 8.52058 15.1818V16.8182C8.52058 17.3705 8.9683 17.8182 9.52058 17.8182H9.69107C10.2434 17.8182 10.6911 17.3705 10.6911 16.8182V15.1818ZM5.59026 16.25C6.00447 16.25 6.34026 16.5858 6.34026 17C6.34026 17.4142 6.00447 17.75 5.59026 17.75H4.92013C4.50591 17.75 4.17013 17.4142 4.17013 17C4.17013 16.5858 4.50591 16.25 4.92013 16.25H5.59026Z" fill="#687782"/>
</svg>
