<svg width="24" height="24" viewBox="0 0 24 24" fill="none" xmlns="http://www.w3.org/2000/svg">
<path fill-rule="evenodd" clip-rule="evenodd" d="M10.0979 2.61761C10.6967 0.775083 13.3034 0.775089 13.9021 2.61761L15.4209 7.29152L20.3354 7.29171C22.2728 7.29178 23.0783 9.77088 21.511 10.9097L17.5352 13.7985L19.0537 18.4725C19.6523 20.3151 17.5434 21.8473 15.976 20.7086L12 17.8201L8.02399 20.7086C6.45658 21.8473 4.34774 20.3151 4.94635 18.4725L6.46483 13.7985L2.48903 10.9097C0.921705 9.77088 1.72722 7.29178 3.66459 7.29171L8.57908 7.29152L10.0979 2.61761ZM12 3.23572L10.4812 7.90963C10.2134 8.73361 9.44555 9.29149 8.57916 9.29152L3.66466 9.29171L7.64047 12.1805C8.34138 12.6898 8.63467 13.5925 8.36697 14.4165L6.84848 19.0905L10.8245 16.202C11.5255 15.6928 12.4746 15.6928 13.1755 16.202L17.1515 19.0905L15.6331 14.4165C15.3654 13.5925 15.6587 12.6898 16.3596 12.1805L20.3354 9.29171L15.4209 9.29152C14.5545 9.29149 13.7866 8.73361 13.5189 7.90963L12 3.23572Z" fill="#687782"/>
</svg>
