<svg width="24" height="24" viewBox="0 0 24 24" fill="none" xmlns="http://www.w3.org/2000/svg">
<path d="M6.7999 19.2C6.26947 19.2 5.76076 18.9893 5.38569 18.6142C5.01062 18.2392 4.7999 17.7305 4.7999 17.2V3.60002C4.7999 3.28176 4.67347 2.97654 4.44843 2.7515C4.22339 2.52645 3.91816 2.40002 3.5999 2.40002C3.28164 2.40002 2.97642 2.52645 2.75137 2.7515C2.52633 2.97654 2.3999 3.28176 2.3999 3.60002V17.2C2.3999 18.367 2.86347 19.4861 3.68863 20.3113C4.51379 21.1365 5.63295 21.6 6.7999 21.6H20.3999C20.7182 21.6 21.0234 21.4736 21.2484 21.2486C21.4735 21.0235 21.5999 20.7183 21.5999 20.4C21.5999 20.0818 21.4735 19.7765 21.2484 19.5515C21.0234 19.3265 20.7182 19.2 20.3999 19.2H6.7999Z" fill="#687782"/>
<path d="M17.9999 16.8C18.3182 16.8 18.6234 16.6736 18.8484 16.4486C19.0735 16.2235 19.1999 15.9183 19.1999 15.6V10.8C19.1999 10.4818 19.0735 10.1765 18.8484 9.9515C18.6234 9.72645 18.3182 9.60002 17.9999 9.60002C17.6816 9.60002 17.3764 9.72645 17.1514 9.9515C16.9263 10.1765 16.7999 10.4818 16.7999 10.8V15.6C16.7999 15.9183 16.9263 16.2235 17.1514 16.4486C17.3764 16.6736 17.6816 16.8 17.9999 16.8Z" fill="#687782"/>
<path d="M8.3999 16.8C8.71816 16.8 9.02339 16.6736 9.24843 16.4486C9.47347 16.2235 9.5999 15.9183 9.5999 15.6V10.8C9.5999 10.4818 9.47347 10.1765 9.24843 9.9515C9.02339 9.72645 8.71816 9.60002 8.3999 9.60002C8.08164 9.60002 7.77642 9.72645 7.55137 9.9515C7.32633 10.1765 7.1999 10.4818 7.1999 10.8V15.6C7.1999 15.9183 7.32633 16.2235 7.55137 16.4486C7.77642 16.6736 8.08164 16.8 8.3999 16.8Z" fill="#687782"/>
<path d="M13.1999 16.8C13.5182 16.8 13.8234 16.6736 14.0484 16.4486C14.2735 16.2235 14.3999 15.9183 14.3999 15.6V6.80003C14.3999 6.48177 14.2735 6.17654 14.0484 5.9515C13.8234 5.72645 13.5182 5.60002 13.1999 5.60002C12.8816 5.60002 12.5764 5.72645 12.3514 5.9515C12.1263 6.17654 11.9999 6.48177 11.9999 6.80003V15.6C11.9999 15.9183 12.1263 16.2235 12.3514 16.4486C12.5764 16.6736 12.8816 16.8 13.1999 16.8Z" fill="#687782"/>
</svg>
