<svg width="24" height="24" viewBox="0 0 24 24" fill="none" xmlns="http://www.w3.org/2000/svg">
<path d="M12 2C10.0222 2 8.08879 2.58649 6.4443 3.6853C4.79981 4.78412 3.51809 6.3459 2.76121 8.17316C2.00433 10.0004 1.8063 12.0111 2.19215 13.9509C2.578 15.8907 3.53041 17.6725 4.92894 19.0711C6.32746 20.4696 8.10929 21.422 10.0491 21.8078C11.9889 22.1937 13.9996 21.9957 15.8268 21.2388C17.6541 20.4819 19.2159 19.2002 20.3147 17.5557C21.4135 15.9112 22 13.9778 22 12C21.9971 9.34871 20.9426 6.80684 19.0679 4.9321C17.1932 3.05736 14.6513 2.00287 12 2V2ZM12.8333 20.2908V18.6667C12.8333 18.4457 12.7455 18.2337 12.5893 18.0774C12.433 17.9211 12.221 17.8333 12 17.8333C11.779 17.8333 11.567 17.9211 11.4107 18.0774C11.2545 18.2337 11.1667 18.4457 11.1667 18.6667V20.2908C9.25514 20.0962 7.46932 19.248 6.11068 17.8893C4.75204 16.5307 3.9038 14.7449 3.70917 12.8333H5.33334C5.55435 12.8333 5.76631 12.7455 5.92259 12.5893C6.07887 12.433 6.16667 12.221 6.16667 12C6.16667 11.779 6.07887 11.567 5.92259 11.4107C5.76631 11.2545 5.55435 11.1667 5.33334 11.1667H3.70917C3.9038 9.25514 4.75204 7.46932 6.11068 6.11068C7.46932 4.75203 9.25514 3.9038 11.1667 3.70917V5.33333C11.1667 5.55435 11.2545 5.76631 11.4107 5.92259C11.567 6.07887 11.779 6.16667 12 6.16667C12.221 6.16667 12.433 6.07887 12.5893 5.92259C12.7455 5.76631 12.8333 5.55435 12.8333 5.33333V3.70917C14.7449 3.9038 16.5307 4.75203 17.8893 6.11068C19.248 7.46932 20.0962 9.25514 20.2908 11.1667H18.6667C18.4457 11.1667 18.2337 11.2545 18.0774 11.4107C17.9211 11.567 17.8333 11.779 17.8333 12C17.8333 12.221 17.9211 12.433 18.0774 12.5893C18.2337 12.7455 18.4457 12.8333 18.6667 12.8333H20.2908C20.0962 14.7449 19.248 16.5307 17.8893 17.8893C16.5307 19.248 14.7449 20.0962 12.8333 20.2908ZM15.3333 12C15.3333 12.221 15.2455 12.433 15.0893 12.5893C14.933 12.7455 14.721 12.8333 14.5 12.8333H12.8333V14.5C12.8333 14.721 12.7455 14.933 12.5893 15.0893C12.433 15.2455 12.221 15.3333 12 15.3333C11.779 15.3333 11.567 15.2455 11.4107 15.0893C11.2545 14.933 11.1667 14.721 11.1667 14.5V12.8333H9.5C9.27899 12.8333 9.06703 12.7455 8.91075 12.5893C8.75447 12.433 8.66667 12.221 8.66667 12C8.66667 11.779 8.75447 11.567 8.91075 11.4107C9.06703 11.2545 9.27899 11.1667 9.5 11.1667H11.1667V9.5C11.1667 9.27899 11.2545 9.06702 11.4107 8.91074C11.567 8.75446 11.779 8.66667 12 8.66667C12.221 8.66667 12.433 8.75446 12.5893 8.91074C12.7455 9.06702 12.8333 9.27899 12.8333 9.5V11.1667H14.5C14.721 11.1667 14.933 11.2545 15.0893 11.4107C15.2455 11.567 15.3333 11.779 15.3333 12Z" fill="#687782"/>
</svg>
