<svg width="24" height="24" viewBox="0 0 24 24" fill="none" xmlns="http://www.w3.org/2000/svg">
<path d="M4.86642 18.722C5.12697 19.2079 5.51436 19.6142 5.98739 19.8976C6.46042 20.181 7.0014 20.3309 7.55281 20.3313H10.7498V20.7485C10.7498 21.0804 10.8816 21.3987 11.1163 21.6333C11.351 21.868 11.6693 21.9999 12.0012 21.9999C12.3331 21.9999 12.6514 21.868 12.8861 21.6333C13.1208 21.3987 13.2526 21.0804 13.2526 20.7485V20.3313H16.4496C17.0011 20.3308 17.5422 20.1808 18.0152 19.8972C18.4882 19.6137 18.8756 19.2073 19.136 18.7211C19.4011 18.2294 19.5282 17.675 19.5038 17.1169C19.4794 16.5588 19.3045 16.0176 18.9975 15.5509L18.059 14.1242C18.2026 13.9772 18.3248 13.8106 18.4219 13.6295C18.6125 13.2768 18.7041 12.879 18.6867 12.4784C18.6694 12.0778 18.5438 11.6894 18.3234 11.3544L16.8793 9.15689C16.9449 9.07095 17.0038 8.98001 17.0553 8.88491C17.2469 8.53612 17.3412 8.14226 17.3284 7.74452C17.3157 7.34679 17.1963 6.95979 16.9827 6.624C16.9518 6.57693 16.9184 6.53153 16.8826 6.48801L13.7132 2.7404C13.6931 2.71788 13.6698 2.69535 13.6523 2.6745C13.2115 2.2421 12.6187 1.99988 12.0012 1.99988C11.3838 1.99988 10.7909 2.2421 10.3502 2.6745C10.3301 2.69452 10.3101 2.71621 10.2918 2.7379L7.10814 6.48217C7.07258 6.52507 7.03944 6.56991 7.00886 6.61649C6.79355 6.95186 6.67257 7.33904 6.65862 7.73732C6.64468 8.13561 6.73828 8.5303 6.9296 8.87991C6.98415 8.9804 7.04664 9.07637 7.11648 9.1669L5.67901 11.3519C5.45808 11.6865 5.33195 12.0748 5.31403 12.4754C5.29611 12.876 5.38706 13.274 5.57723 13.627C5.67435 13.8081 5.79652 13.9747 5.94014 14.1217L5.00157 15.5484C4.69449 16.0158 4.51977 16.5577 4.49597 17.1165C4.47217 17.6753 4.60019 18.2301 4.86642 18.722ZM7.09563 16.9233L8.87349 14.2202C8.98711 14.0473 9.0561 13.8489 9.07429 13.6429C9.09248 13.4368 9.05931 13.2294 8.97772 13.0393C8.89614 12.8492 8.76871 12.6823 8.60681 12.5535C8.44492 12.4247 8.25363 12.3381 8.05005 12.3013L9.91551 9.46391C10.0121 9.31405 10.0757 9.14535 10.1021 8.96902C10.1284 8.79269 10.117 8.61277 10.0684 8.44121C10.0199 8.26965 9.93541 8.11039 9.82058 7.974C9.70575 7.83761 9.5632 7.72722 9.40242 7.65017L12.0012 4.59252L14.5875 7.65017C14.4271 7.72776 14.285 7.83871 14.171 7.97561C14.0569 8.11251 13.9733 8.2722 13.9259 8.444C13.8785 8.61579 13.8684 8.79573 13.8962 8.97177C13.9239 9.1478 13.989 9.31588 14.0869 9.46474L15.9532 12.3013C15.7496 12.3381 15.5583 12.4247 15.3965 12.5535C15.2346 12.6823 15.1071 12.8492 15.0255 13.0393C14.944 13.2294 14.9108 13.4368 14.929 13.6429C14.9472 13.8489 15.0162 14.0473 15.1298 14.2202L16.9085 16.9233C16.9688 17.0127 17.0031 17.1171 17.0077 17.2249C17.0123 17.3327 16.9869 17.4397 16.9343 17.5339C16.8895 17.6234 16.8205 17.6986 16.7351 17.7508C16.6497 17.803 16.5514 17.8302 16.4513 17.8293H7.55281C7.45273 17.8302 7.35439 17.803 7.269 17.7508C7.1836 17.6986 7.11457 17.6234 7.06976 17.5339C7.01724 17.4397 6.99185 17.3327 6.99642 17.2249C7.00098 17.1171 7.03532 17.0127 7.09563 16.9233Z" fill="#687782"/>
<path d="M11.5841 16.1599C12.2752 16.1599 12.8355 15.5996 12.8355 14.9085C12.8355 14.2173 12.2752 13.657 11.5841 13.657C10.8929 13.657 10.3327 14.2173 10.3327 14.9085C10.3327 15.5996 10.8929 16.1599 11.5841 16.1599Z" fill="#687782"/>
<path d="M12.4184 11.9885C13.1095 11.9885 13.6698 11.4282 13.6698 10.737C13.6698 10.0459 13.1095 9.4856 12.4184 9.4856C11.7272 9.4856 11.1669 10.0459 11.1669 10.737C11.1669 11.4282 11.7272 11.9885 12.4184 11.9885Z" fill="#687782"/>
</svg>
