<svg width="24" height="24" viewBox="0 0 24 24" fill="none" xmlns="http://www.w3.org/2000/svg">
<path fill-rule="evenodd" clip-rule="evenodd" d="M18.555 3.10446C19.0496 2.85868 19.6498 3.06037 19.8956 3.55494C21.1604 6.10005 21.8711 8.96845 21.8711 12C21.8711 15.0315 21.1604 17.8999 19.8956 20.445C19.6498 20.9396 19.0496 21.1413 18.555 20.8955C18.0604 20.6497 17.8588 20.0495 18.1045 19.5549C19.235 17.2802 19.8711 14.7158 19.8711 12C19.8711 9.28414 19.235 6.71974 18.1045 4.44501C17.8588 3.95043 18.0604 3.35025 18.555 3.10446ZM5.31607 3.10446C5.81065 3.35025 6.01234 3.95043 5.76655 4.44501C4.63611 6.71974 4 9.28414 4 12C4 14.7158 4.63611 17.2802 5.76655 19.5549C6.01234 20.0495 5.81065 20.6497 5.31607 20.8955C4.82149 21.1413 4.22131 20.9396 3.97552 20.445C2.71072 17.8999 2 15.0315 2 12C2 8.96845 2.71071 6.10005 3.97552 3.55494C4.22131 3.06037 4.82149 2.85868 5.31607 3.10446ZM8 8.99998C8 8.44769 8.44772 7.99998 9 7.99998H10.2457C11.1387 7.99998 11.9234 8.59193 12.1687 9.45053L12.4507 10.4375L13.6421 9.0476C14.212 8.38266 15.0441 7.99998 15.9199 7.99998H16C16.5523 7.99998 17 8.44769 17 8.99998C17 9.55226 16.5523 9.99998 16 9.99998H15.9199C15.6279 9.99998 15.3506 10.1275 15.1606 10.3492L13.1093 12.7424L13.7543 15H15C15.5523 15 16 15.4477 16 16C16 16.5523 15.5523 17 15 17H13.7543C12.8613 17 12.0766 16.408 11.8313 15.5494L11.5493 14.5624L10.3579 15.9524C9.78795 16.6173 8.9559 17 8.08013 17H8C7.44772 17 7 16.5523 7 16C7 15.4477 7.44772 15 8 15H8.08013C8.37206 15 8.64941 14.8724 8.83939 14.6508L10.8907 12.2575L10.2457 9.99998H9C8.44772 9.99998 8 9.55226 8 8.99998Z" fill="#687782"/>
</svg>
