<svg width="25" height="24" viewBox="0 0 25 24" fill="none" xmlns="http://www.w3.org/2000/svg">
<path fill-rule="evenodd" clip-rule="evenodd" d="M2.03938 12.9346C2.16207 14.3111 2.61571 15.7548 3.30609 16.9659C4.84284 19.6616 7.45849 21.4533 10.5565 21.9325C11.1038 22.0171 12.4199 22.0264 12.9799 21.9495C14.2892 21.7696 15.3776 21.4345 16.4977 20.8663C17.5114 20.352 18.3899 19.6993 19.2141 18.848C20.0217 18.0141 20.507 17.3252 21.0151 16.292C22.0622 14.1627 22.2846 11.6937 21.6409 9.34409C21.463 8.6947 21.3178 8.31785 20.9708 7.60485C20.6698 6.98645 20.2015 6.24759 19.7802 5.72616C19.4595 5.32939 18.6766 4.54587 18.2802 4.22499C17.5076 3.59974 16.3651 2.94886 15.4378 2.60568C14.6915 2.32955 13.6991 2.10967 12.8549 2.03351C11.4662 1.90822 9.88067 2.1198 8.56764 2.60568C7.64032 2.94886 6.49783 3.59974 5.72529 4.22499C5.32884 4.54587 4.54594 5.32939 4.22532 5.72616C3.60056 6.49932 2.95021 7.64272 2.60731 8.57078C2.11724 9.89733 1.91036 11.4869 2.03938 12.9346ZM3.78794 10.6004C3.96156 9.63145 4.31776 8.65144 4.7832 7.86217C5.89055 5.9843 7.66764 4.58303 9.67695 4.00331C10.5161 3.76121 10.9422 3.70234 11.8659 3.70093C12.653 3.69972 12.7011 3.7041 13.0361 3.80745C14.0356 4.11581 14.8477 4.77654 15.3112 5.65845C16.0576 7.07884 15.8303 8.80893 14.7428 9.98449C14.0809 10.7 13.2554 11.0757 12.1786 11.1516C10.9736 11.2364 10.407 11.3615 9.70001 11.6985C8.4548 12.2922 7.5059 13.2865 6.99884 14.529C6.71761 15.2181 6.59805 15.8404 6.60031 16.6039C6.60207 17.2005 6.67509 17.6639 6.85832 18.2419C6.94322 18.5096 6.97163 18.6467 6.93829 18.6281C6.90988 18.6122 6.72879 18.4626 6.5359 18.2958C5.01439 16.9798 3.97118 14.9991 3.71892 12.9474C3.65693 12.4434 3.69605 11.1131 3.78794 10.6004ZM8.13762 15.9273C8.27586 14.9675 8.88244 14.0405 9.73612 13.4844C10.4397 13.0261 10.9424 12.8839 12.0508 12.8299C12.4651 12.8097 12.9359 12.765 13.0971 12.7306C14.8624 12.3536 16.336 11.1314 17.0066 9.4882C17.2879 8.79915 17.4074 8.17679 17.4052 7.41329C17.4034 6.81675 17.3304 6.35329 17.1471 5.77537C17.0623 5.50761 17.0338 5.3705 17.0672 5.38916C17.0956 5.40508 17.2767 5.55459 17.4696 5.72143C19.0296 7.07082 20.0736 9.09057 20.292 11.1822C20.3546 11.7817 20.319 12.8399 20.2167 13.4168C19.7848 15.853 18.3156 17.9524 16.1459 19.2339C15.3518 19.7029 14.3792 20.0559 13.3903 20.2339C12.7532 20.3486 11.2629 20.3597 10.876 20.2527C9.75539 19.9426 8.8912 19.2237 8.42482 18.2135C8.10228 17.5148 8.01223 16.798 8.13762 15.9273ZM9.54116 17.4824C9.73847 18.4178 10.3345 19.1038 11.1984 19.3898C11.4729 19.4808 11.578 19.4944 12.0027 19.4944C12.4275 19.4944 12.5325 19.4808 12.8071 19.3898C13.5532 19.1428 14.1282 18.5674 14.375 17.8206C14.4659 17.5459 14.4795 17.4407 14.4795 17.0157C14.4795 16.5906 14.4659 16.4854 14.375 16.2107C14.1282 15.4639 13.5532 14.8885 12.8071 14.6415C12.5325 14.5505 12.4275 14.5369 12.0027 14.5369C11.578 14.5369 11.4729 14.5505 11.1984 14.6415C10.4502 14.8892 9.87027 15.4709 9.63395 16.2107C9.52166 16.5623 9.47679 17.1771 9.54116 17.4824ZM9.54116 7.46829C9.73847 8.40375 10.3345 9.08971 11.1984 9.37578C11.4729 9.46669 11.578 9.48034 12.0027 9.48034C12.4275 9.48034 12.5325 9.46669 12.8071 9.37578C13.5532 9.12871 14.1282 8.5533 14.375 7.80654C14.4659 7.53182 14.4795 7.42667 14.4795 7.00158C14.4795 6.57649 14.4659 6.47135 14.375 6.19663C14.1282 5.44987 13.5532 4.87446 12.8071 4.62739C12.5325 4.53648 12.4275 4.52283 12.0027 4.52283C11.578 4.52283 11.4729 4.53648 11.1984 4.62739C10.4502 4.87516 9.87027 5.4568 9.63395 6.19663C9.52166 6.54825 9.47679 7.16306 9.54116 7.46829ZM11.2424 16.6727C11.3707 16.3652 11.6408 16.1959 12.0027 16.1959C12.4962 16.1959 12.8235 16.5228 12.8235 17.0157C12.8235 17.2374 12.7454 17.4569 12.6165 17.5972C12.3392 17.8991 11.7322 17.9157 11.4216 17.6299C11.1995 17.4256 11.1155 16.9767 11.2424 16.6727ZM11.2424 6.6586C11.3707 6.35118 11.6408 6.18184 12.0027 6.18184C12.4962 6.18184 12.8235 6.50878 12.8235 7.00158C12.8235 7.22338 12.7454 7.44283 12.6165 7.58318C12.3392 7.88505 11.7322 7.90164 11.4216 7.61581C11.1995 7.4115 11.1155 6.96262 11.2424 6.6586Z" fill="#687782"/>
</svg>
